<svg width="400" height="400" viewBox="0 0 400 400" fill="none" xmlns="http://www.w3.org/2000/svg">
<path d="M37.6001 116.586C36.8821 112.26 31.5661 108.046 27.7181 113.77C27.1024 114.691 26.7785 115.776 26.7888 116.884C26.7991 117.992 27.143 119.071 27.7757 119.98C28.4084 120.889 29.3005 121.587 30.3356 121.981C31.3706 122.376 32.5007 122.45 33.5781 122.192C34.2227 122.116 34.8442 121.906 35.4031 121.576C35.962 121.246 36.4461 120.803 36.8245 120.276C37.2028 119.748 37.4672 119.148 37.6008 118.513C37.7343 117.877 37.7341 117.221 37.6001 116.586Z" fill="#FFD35C"/>
<path d="M62.6201 116.586C61.9041 112.26 56.5861 108.046 52.7381 113.77C52.1193 114.691 51.793 115.778 51.8019 116.887C51.8108 117.997 52.1545 119.078 52.788 119.989C53.4214 120.9 54.3152 121.598 55.3522 121.993C56.3893 122.387 57.5213 122.46 58.6001 122.2C59.2453 122.124 59.8674 121.913 60.4267 121.583C60.9861 121.252 61.4703 120.808 61.8486 120.28C62.2269 119.752 62.4909 119.151 62.6237 118.515C62.7565 117.879 62.7553 117.222 62.6201 116.586Z" fill="#86F2AA"/>
<path d="M86.566 116.586C85.848 112.262 80.532 108.046 76.684 113.77C76.0682 114.691 75.7444 115.776 75.7546 116.884C75.7649 117.991 76.1088 119.07 76.7415 119.98C77.3742 120.889 78.2663 121.586 79.3014 121.981C80.3365 122.376 81.4665 122.449 82.544 122.192C83.1885 122.115 83.81 121.905 84.3689 121.575C84.9279 121.245 85.4119 120.803 85.7903 120.275C86.1687 119.748 86.433 119.147 86.5666 118.512C86.7001 117.877 86.6999 117.221 86.566 116.586Z" fill="#000"/>
<path d="M37.6001 141.978C36.8821 137.654 31.5661 133.438 27.7181 139.162C27.1024 140.083 26.7785 141.168 26.7888 142.276C26.7991 143.383 27.143 144.462 27.7757 145.372C28.4084 146.281 29.3005 146.978 30.3356 147.373C31.3706 147.768 32.5007 147.841 33.5781 147.584C34.2227 147.507 34.8442 147.297 35.4031 146.967C35.962 146.637 36.4461 146.195 36.8245 145.667C37.2028 145.14 37.4672 144.539 37.6008 143.904C37.7343 143.269 37.7341 142.613 37.6001 141.978Z" fill="#F76559"/>
<path d="M62.6199 141.978C61.9039 137.654 56.5859 133.438 52.7379 139.162C52.1222 140.083 51.7983 141.168 51.8086 142.276C51.8189 143.383 52.1628 144.462 52.7955 145.372C53.4282 146.281 54.3203 146.978 55.3553 147.373C56.3904 147.768 57.5204 147.841 58.5979 147.584C59.2424 147.507 59.864 147.297 60.4229 146.967C60.9818 146.637 61.4659 146.195 61.8442 145.667C62.2226 145.14 62.487 144.539 62.6205 143.904C62.7541 143.269 62.7539 142.613 62.6199 141.978Z" fill="#FF8684"/>
<path d="M86.566 141.978C85.848 137.654 80.532 133.438 76.684 139.162C76.0682 140.083 75.7444 141.168 75.7546 142.276C75.7649 143.383 76.1088 144.462 76.7415 145.372C77.3742 146.281 78.2663 146.978 79.3014 147.373C80.3365 147.768 81.4665 147.841 82.544 147.584C83.1885 147.507 83.81 147.297 84.3689 146.967C84.9279 146.637 85.4119 146.195 85.7903 145.667C86.1687 145.14 86.433 144.539 86.5666 143.904C86.7001 143.269 86.6999 142.613 86.566 141.978Z" fill="#FFD2D2"/>
<path d="M86.566 173.11C85.848 168.784 80.532 164.57 76.684 170.294C76.0682 171.215 75.7444 172.3 75.7546 173.408C75.7649 174.515 76.1088 175.594 76.7415 176.504C77.3742 177.413 78.2663 178.111 79.3014 178.505C80.3365 178.9 81.4665 178.973 82.544 178.716C83.1885 178.64 83.81 178.43 84.3689 178.1C84.9279 177.77 85.4119 177.327 85.7903 176.799C86.1687 176.272 86.433 175.672 86.5666 175.036C86.7001 174.401 86.6999 173.745 86.566 173.11Z" fill="#FE744F"/>
<path d="M87.4538 199.15C86.7378 194.824 81.4198 190.608 77.5718 196.334C76.9572 197.255 76.6343 198.34 76.645 199.447C76.6558 200.554 76.9998 201.633 77.6323 202.542C78.2647 203.451 79.1562 204.148 80.1907 204.543C81.2251 204.938 82.3546 205.012 83.4318 204.756C84.0763 204.679 84.6976 204.469 85.2564 204.139C85.8151 203.809 86.2991 203.366 86.6774 202.839C87.0557 202.311 87.3201 201.711 87.4538 201.076C87.5875 200.441 87.5875 199.785 87.4538 199.15Z" fill="#5BBD8F"/>
<path d="M89.106 91.8902C86.8599 91.8065 84.6131 91.7399 82.366 91.6902C76.8847 91.5502 71.4013 91.4629 65.916 91.4282C58.928 91.3842 51.936 91.4282 44.95 91.6282C38.316 91.8142 31.672 92.1102 25.068 92.7962C22.39 93.0742 19.712 93.4122 17.068 93.9182C15.1545 94.2411 13.2784 94.7557 11.468 95.4542C11.0977 95.6044 10.7346 95.7719 10.38 95.9562C10.2649 96.0198 10.169 96.1131 10.1021 96.2264C10.0353 96.3396 10 96.4687 10 96.6002L10.092 100.07L10.34 109.47L10.71 123.422L11.158 140.382L11.65 158.958L12.148 177.776L12.612 195.318L13.012 210.09L13.292 220.716C13.336 222.398 13.356 224.084 13.426 225.766V225.98C13.4291 226.177 13.5084 226.365 13.6472 226.504C13.786 226.643 13.9735 226.723 14.17 226.726H21.4C21.5909 226.716 21.7707 226.634 21.9024 226.495C22.034 226.356 22.1074 226.173 22.1074 225.981C22.1074 225.79 22.034 225.606 21.9024 225.468C21.7707 225.329 21.5909 225.246 21.4 225.236H14.894L14.822 222.51L14.572 213.11C14.4507 208.458 14.328 203.808 14.204 199.158C14.0533 193.505 13.904 187.851 13.756 182.196L13.264 163.622L12.766 144.8L12.302 127.256L11.902 112.486L11.622 101.86C11.58 100.26 11.622 98.6362 11.502 97.0422C12.0516 96.7871 12.6191 96.5726 13.2 96.4002C14.126 96.1002 15.07 95.8622 16.018 95.6502C18.4445 95.1338 20.8957 94.7406 23.362 94.4722C29.806 93.7202 36.298 93.3962 42.78 93.1822C49.744 92.9522 56.716 92.8882 63.684 92.9122C69.408 92.9309 75.13 93.0089 80.85 93.1462C83.556 93.2102 86.29 93.4222 88.996 93.3822H89.108C90.066 93.4162 90.064 91.9262 89.106 91.8902Z" fill="#4FB3AA"/>
<path d="M84.1621 154.552C80.8241 154.932 77.4701 155.172 74.1201 155.416C69.3461 155.766 64.568 156.076 59.79 156.374C54.778 156.686 49.766 156.984 44.754 157.268C40.7007 157.5 36.6467 157.725 32.592 157.944C30.694 158.048 28.792 158.096 26.89 158.248H26.81C25.856 158.296 25.85 159.786 26.81 159.736C28.3594 159.656 29.9087 159.574 31.458 159.49C35.3087 159.282 39.1594 159.069 43.01 158.85C47.97 158.57 52.928 158.279 57.884 157.976C62.7587 157.676 67.6301 157.357 72.4981 157.018C76.0981 156.762 79.6861 156.506 83.2681 156.132C83.5667 156.103 83.8647 156.071 84.1621 156.036C85.1021 155.934 85.1141 154.444 84.1621 154.552Z" fill="#4FB3AA"/>
<path d="M301.176 191.074C295.384 191.466 289.575 190.629 284.13 188.618C281.959 187.839 280.021 186.522 278.496 184.792C277.831 183.981 277.366 183.024 277.14 182C276.993 181.26 277.001 180.497 277.164 179.76L267.624 180.36C268.251 184.259 269.1 188.118 270.168 191.92C271.464 196.571 273.164 201.1 275.25 205.454L306 203.488C305.4 199.354 304.87 194.944 304.442 190.92C303.348 190.986 302.262 191.042 301.176 191.074ZM308.086 50.182C236.066 47.138 93.2659 55.046 93.2659 55.046C90.1979 81.214 99.3779 216.71 99.3779 216.71L193.192 210.71L194.682 210.614L223.95 208.742C223.334 205.305 222.811 201.852 222.382 198.384C221.895 194.488 221.517 190.579 221.248 186.658C221.17 185.526 221.11 184.392 221.048 183.258L113.072 189.972L107.746 69.572L283.946 63.104L284.832 93.66C287.11 91.6236 289.656 89.9078 292.398 88.56C297.553 86.0512 303.219 84.7724 308.952 84.824C309.174 84.824 309.392 84.836 309.612 84.844L308.086 50.182ZM207.578 61.4C207.258 61.749 206.831 61.982 206.365 62.0623C205.898 62.1427 205.418 62.0659 205 61.844C204.522 61.5429 204.154 61.0963 203.95 60.57C203.834 60.3052 203.76 60.0238 203.732 59.736C203.705 59.2286 203.855 58.7275 204.158 58.3193C204.461 57.9111 204.896 57.6214 205.39 57.5L205.482 57.472C205.955 57.4539 206.423 57.564 206.839 57.7908C207.254 58.0175 207.6 58.3525 207.84 58.76C208.067 59.1754 208.163 59.6495 208.117 60.1205C208.07 60.5915 207.882 61.0375 207.578 61.4Z" fill="#CFF0FA"/>
<path d="M329.48 150.22C327.06 151.626 324.467 152.713 321.766 153.452C318.805 154.249 315.732 154.548 312.672 154.338C311.733 154.273 310.799 154.158 309.872 153.992C308.663 153.785 307.474 153.475 306.318 153.064L306.39 153.544C306.816 156.429 307.596 159.25 308.712 161.944C309.653 164.424 311.232 166.612 313.288 168.288C313.601 168.514 313.928 168.719 314.268 168.902L314.312 168.714L314.334 168.616C314.42 168.28 314.522 167.948 314.636 167.616L314.672 167.508C314.792 167.172 314.926 166.842 315.072 166.52L315.086 166.49C315.993 164.509 317.385 162.789 319.134 161.49C320.669 160.358 322.443 159.595 324.32 159.26L324.472 159.232C324.684 159.196 324.898 159.166 325.112 159.14C325.623 159.07 326.137 159.031 326.652 159.024C327.322 159.031 327.991 159.086 328.652 159.19C329.321 156.249 329.599 153.233 329.48 150.22Z" fill="#F76559"/>
<path d="M31.2561 201.4L31.1741 200.656L31.0921 199.922C28.8387 200.277 26.5974 200.701 24.3681 201.194C24.3372 201.205 24.3072 201.217 24.2781 201.232C24.3553 201.209 24.4354 201.197 24.5161 201.196C24.5992 201.188 24.683 201.194 24.7641 201.214C24.8858 201.244 24.9985 201.303 25.0921 201.386L25.1281 201.408C25.2801 201.504 25.4341 201.598 25.5921 201.688L25.6901 201.748C26.0101 201.92 26.3381 202.074 26.6701 202.218L26.7021 202.23L26.9021 202.316L27.2601 202.454C27.5561 202.564 27.8601 202.668 28.1521 202.766C29.2501 203.126 30.3701 203.42 31.5021 203.67L31.4201 202.928L31.2561 201.4ZM42.2881 200.266V198.774C41.6881 198.804 41.0881 198.834 40.4881 198.874C39.5081 198.94 38.5301 199.024 37.5521 199.118L37.6301 199.852L37.7081 200.598L38.1081 204.29L38.1501 204.69C39.5407 204.828 40.9336 204.942 42.3281 205.032V204.92L42.2881 200.266ZM71.5861 201.154C70.0481 200.754 68.4821 200.436 66.9061 200.174L66.8361 200.932L66.7681 201.676L66.6821 202.628L66.6221 203.298C67.2341 203.112 67.8421 202.914 68.4401 202.686C68.8161 202.544 69.1841 202.392 69.5621 202.214C69.8721 202.07 70.1881 201.91 70.5221 201.714L70.5801 201.678C70.7261 201.59 70.8661 201.5 71.0081 201.408L71.1481 201.306C71.1041 201.338 71.0621 201.372 71.0161 201.402C70.9581 201.446 71.0161 201.414 71.0481 201.384C71.2032 201.255 71.4003 201.188 71.6017 201.196C71.8031 201.203 71.9948 201.284 72.1401 201.424L72.1701 201.454C72.1551 201.435 72.1391 201.417 72.1221 201.4C72.0627 201.315 71.9818 201.247 71.8875 201.204C71.7933 201.161 71.6892 201.144 71.5861 201.154ZM56.9081 199.702L56.8421 200.442L56.4421 204.75L56.4181 205.006C56.9421 204.966 57.4661 204.928 57.9881 204.876C58.6561 204.812 59.3261 204.734 59.9881 204.65L60.0321 204.14L60.3161 200.76L60.3781 200.026L60.4401 199.292C59.2814 199.159 58.1214 199.049 56.9601 198.962L56.9081 199.702ZM48.8001 199.364V205.272H50.7641L51.1961 200.162L51.2581 199.414L51.3221 198.668C50.4841 198.646 49.6481 198.628 48.8101 198.624L48.8001 199.364ZM120.37 78.374L283.948 68.44V63.114L107.748 69.582L113.074 189.982L122.964 188.86L119.504 79.334C119.494 79.0925 119.579 78.8568 119.741 78.6773C119.903 78.4979 120.129 78.389 120.37 78.374ZM113.984 117.3C114.04 117.112 114.166 116.952 114.337 116.855C114.508 116.758 114.71 116.731 114.9 116.78C114.942 116.79 114.986 116.796 115.03 116.804C115.074 116.812 115.176 116.804 115.248 116.818C115.427 116.827 115.606 116.823 115.784 116.804C115.984 116.771 116.181 116.721 116.372 116.654L116.44 116.628L116.562 116.57C116.668 116.516 116.772 116.456 116.872 116.392C116.957 116.343 117.05 116.31 117.147 116.297C117.244 116.284 117.342 116.29 117.437 116.314C117.531 116.339 117.62 116.382 117.698 116.442C117.776 116.501 117.842 116.575 117.891 116.659C117.94 116.743 117.973 116.837 117.986 116.934C117.999 117.031 117.993 117.129 117.969 117.224C117.944 117.318 117.901 117.407 117.842 117.485C117.782 117.563 117.709 117.629 117.624 117.678C116.691 118.249 115.575 118.441 114.504 118.216C114.315 118.161 114.155 118.035 114.058 117.864C113.96 117.693 113.934 117.49 113.984 117.3ZM113.698 105.6C113.701 105.403 113.78 105.215 113.92 105.076C114.059 104.937 114.247 104.858 114.444 104.856H116.472C116.663 104.866 116.843 104.949 116.974 105.087C117.106 105.226 117.179 105.41 117.179 105.601C117.179 105.792 117.106 105.976 116.974 106.115C116.843 106.253 116.663 106.336 116.472 106.346H114.444C114.247 106.342 114.06 106.263 113.921 106.124C113.781 105.984 113.702 105.797 113.698 105.6ZM110.898 78.736H116.732C116.929 78.736 117.119 78.8144 117.258 78.9539C117.398 79.0935 117.476 79.2827 117.476 79.48C117.476 79.6773 117.398 79.8666 117.258 80.0061C117.119 80.1456 116.929 80.224 116.732 80.224H110.892C110.695 80.224 110.506 80.1456 110.366 80.0061C110.226 79.8666 110.148 79.6773 110.148 79.48C110.148 79.2827 110.226 79.0935 110.366 78.9539C110.506 78.8144 110.695 78.736 110.892 78.736H110.898ZM112.986 91.63L112.808 91.556C112.638 91.4559 112.514 91.2923 112.464 91.101C112.414 90.9098 112.442 90.7066 112.542 90.536C112.64 90.3682 112.799 90.2454 112.986 90.194L115.006 89.888C115.137 89.8516 115.275 89.8516 115.406 89.888L115.582 89.962C115.667 90.0112 115.741 90.0767 115.8 90.1547C115.86 90.2326 115.903 90.3215 115.928 90.4163C115.953 90.5111 115.959 90.6099 115.945 90.7069C115.932 90.804 115.9 90.8975 115.85 90.982C115.752 91.1494 115.593 91.272 115.406 91.324L113.384 91.63C113.252 91.6675 113.112 91.6675 112.98 91.63H112.986ZM113.958 134.752C113.959 134.555 114.037 134.367 114.174 134.226C114.312 134.086 114.499 134.005 114.696 134H114.736C115.004 134 115.272 133.979 115.536 133.936C115.35 133.974 115.55 133.936 115.58 133.936L115.79 133.902C116.179 133.832 116.563 133.739 116.94 133.624C117.074 133.58 117.21 133.534 117.34 133.486L117.51 133.42C117.542 133.408 117.784 133.306 117.614 133.38C117.742 133.305 117.889 133.27 118.037 133.279C118.185 133.288 118.327 133.341 118.444 133.431C118.562 133.522 118.65 133.645 118.697 133.785C118.744 133.926 118.748 134.077 118.708 134.22C118.657 134.408 118.534 134.568 118.366 134.666C117.203 135.174 115.954 135.458 114.686 135.502C114.49 135.496 114.305 135.415 114.168 135.275C114.031 135.135 113.954 134.948 113.952 134.752H113.958ZM115.21 145.922C115.474 145.922 115.736 145.896 115.998 145.866H116.02L116.22 145.832C116.34 145.812 116.46 145.788 116.58 145.76C116.82 145.707 117.056 145.64 117.288 145.56C117.415 145.519 117.539 145.475 117.66 145.428L117.816 145.366L117.9 145.328C118.072 145.234 118.274 145.209 118.463 145.259C118.653 145.309 118.816 145.43 118.92 145.596C119.019 145.767 119.047 145.97 118.996 146.161C118.946 146.352 118.822 146.516 118.652 146.616C117.569 147.108 116.399 147.38 115.21 147.416C115.109 147.421 115.008 147.406 114.913 147.371C114.818 147.336 114.731 147.282 114.658 147.212C114.584 147.142 114.526 147.058 114.486 146.965C114.446 146.872 114.425 146.772 114.425 146.671C114.425 146.57 114.446 146.47 114.486 146.377C114.526 146.284 114.584 146.2 114.658 146.13C114.731 146.06 114.818 146.006 114.913 145.971C115.008 145.936 115.109 145.921 115.21 145.926V145.922ZM118.694 182.88L115.408 183.442C115.218 183.489 115.016 183.461 114.846 183.365C114.675 183.268 114.548 183.11 114.49 182.922C114.437 182.731 114.463 182.526 114.56 182.353C114.658 182.18 114.821 182.053 115.012 182L118.298 181.436C118.488 181.39 118.689 181.418 118.859 181.514C119.03 181.611 119.156 181.769 119.214 181.956C119.241 182.051 119.249 182.15 119.237 182.248C119.225 182.346 119.194 182.44 119.146 182.526C119.098 182.612 119.033 182.687 118.955 182.748C118.878 182.809 118.789 182.854 118.694 182.88ZM119.262 173.548H116.218C116.027 173.538 115.847 173.455 115.716 173.317C115.584 173.178 115.511 172.994 115.511 172.803C115.511 172.612 115.584 172.428 115.716 172.289C115.847 172.151 116.027 172.068 116.218 172.058H119.262C119.453 172.068 119.633 172.151 119.764 172.289C119.896 172.428 119.969 172.612 119.969 172.803C119.969 172.994 119.896 173.178 119.764 173.317C119.633 173.455 119.453 173.538 119.262 173.548ZM120.252 160C120.303 160.191 120.277 160.393 120.179 160.565C120.082 160.737 119.922 160.863 119.732 160.918L116.918 161.574C116.728 161.622 116.526 161.595 116.355 161.498C116.185 161.401 116.058 161.242 116.002 161.054C115.951 160.864 115.977 160.661 116.074 160.489C116.172 160.318 116.332 160.192 116.522 160.138L119.336 159.48C119.526 159.432 119.728 159.459 119.898 159.556C120.069 159.653 120.196 159.812 120.252 160Z" fill="#6C458F"/>
<path d="M355.362 187.416L355.286 186.616L355.208 185.816L353.896 172.172C353.851 171.725 353.754 171.285 353.608 170.86C352.45 172.918 351.125 174.877 349.646 176.718C346.494 180.728 342.512 184.008 337.972 186.332C337.496 186.57 337.014 186.8 336.524 187.012C336.238 187.136 335.948 187.25 335.658 187.364C334.579 187.793 333.476 188.159 332.354 188.46C328.875 189.379 325.271 189.73 321.68 189.502C320.415 189.433 319.155 189.299 317.904 189.102C317.112 188.978 316.323 188.831 315.538 188.66L315.246 188.59C314.886 188.508 314.526 188.424 314.168 188.332C310.476 187.376 306.956 185.851 303.734 183.812C303.89 185.512 304.072 187.434 304.284 189.484L304.356 190.192L304.434 190.934C304.862 194.958 305.384 199.368 305.992 203.502C306.392 206.224 306.828 208.828 307.296 211.122V211.158C307.402 211.142 307.509 211.148 307.613 211.175C307.716 211.202 307.813 211.251 307.897 211.317C307.98 211.384 308.049 211.467 308.1 211.561C308.15 211.656 308.18 211.76 308.188 211.866C308.202 212.036 308.222 212.21 308.242 212.382C308.373 214.484 309.205 216.481 310.606 218.054C311.891 219.203 313.495 219.935 315.206 220.152C317.05 220.447 318.917 220.578 320.784 220.542C323.018 220.544 325.249 220.385 327.46 220.066C331.819 219.421 336.084 218.251 340.162 216.582C346.362 214.068 352.948 210.726 356.59 204.882C356.72 204.67 356.85 204.458 356.972 204.242L356.896 203.442L355.362 187.416ZM356.884 152.382V152.34V152.384V152.382Z" fill="#FFCEB6"/>
<path d="M374.262 153.918C374.184 152.502 373.625 151.155 372.676 150.1C371.728 149.046 370.448 148.346 369.048 148.118C364.892 147.348 360.898 150.086 358.15 152.898C358.081 152.975 357.994 153.035 357.898 153.072C357.801 153.11 357.698 153.125 357.594 153.116C357.537 153.115 357.479 153.105 357.424 153.088C357.259 153.037 357.115 152.933 357.015 152.791C356.915 152.65 356.864 152.479 356.87 152.306C356.87 152.284 356.854 152.256 356.84 152.222C356.79 152.09 356.748 151.956 356.698 151.822C356.588 151.532 356.468 151.246 356.348 150.96C356.064 150.274 355.805 149.577 355.57 148.872C353.924 143.869 352.554 138.78 351.466 133.626C350.496 129.242 349.718 124.71 347.116 120.944C344.589 117.581 341.18 114.984 337.266 113.442C332.884 111.557 328.193 110.495 323.426 110.308C319.155 110.075 314.878 110.627 310.806 111.938C310.64 111.994 310.47 112.042 310.306 112.1C306.377 113.532 302.828 115.845 299.93 118.86C294.732 124.317 291.105 131.076 289.43 138.424C287.617 145.75 287.579 153.403 289.32 160.746C291.058 168.164 295.087 174.847 300.836 179.846C301.783 180.648 302.774 181.394 303.806 182.082C306.964 184.182 310.44 185.76 314.1 186.754C316.534 187.42 319.029 187.84 321.546 188.008C321.714 188.008 321.884 188.034 322.054 188.044C325.404 188.23 328.762 187.878 332 187C334.814 186.233 337.497 185.053 339.964 183.498C344.242 180.726 347.887 177.084 350.664 172.81C351.774 171.134 352.763 169.381 353.624 167.564C354.207 166.369 354.682 165.125 355.044 163.846C355.098 163.657 355.224 163.496 355.396 163.398C355.567 163.301 355.77 163.275 355.96 163.326C357.552 163.959 359.225 164.363 360.93 164.526C363.836 164.941 366.796 164.362 369.33 162.882C370.841 161.925 372.086 160.601 372.948 159.034C373.81 157.467 374.262 155.707 374.262 153.918ZM305.8 151.23C305.906 151.284 306.016 151.33 306.124 151.376L306.256 151.432L306.53 151.538C306.73 151.616 306.93 151.688 307.142 151.758C308.911 152.35 310.746 152.718 312.606 152.852C318.662 153.167 324.665 151.581 329.774 148.314C329.888 148.251 330.016 148.217 330.146 148.218C330.276 148.219 330.404 148.253 330.516 148.318C330.629 148.382 330.723 148.475 330.79 148.587C330.856 148.699 330.892 148.826 330.894 148.956C331.181 152.751 330.856 156.567 329.932 160.258C329.341 162.837 328.199 165.257 326.584 167.352C324.861 169.469 322.4 170.854 319.696 171.23C319.664 171.232 319.631 171.232 319.598 171.23L319.498 171.252C317.849 171.476 316.171 171.284 314.614 170.694C314.185 170.517 313.768 170.311 313.366 170.078C312.05 169.307 310.895 168.289 309.966 167.078C307.872 164.188 306.405 160.892 305.658 157.402C305.192 155.589 304.867 153.742 304.684 151.878C304.626 151.27 305.34 151 305.8 151.23Z" fill="#FFCEB6"/>
<path d="M319.382 169.778C321.801 169.446 324.002 168.201 325.532 166.298C326.814 164.618 327.749 162.698 328.28 160.652C327.608 160.559 326.93 160.524 326.252 160.548C326.116 160.548 325.982 160.56 325.852 160.57L325.498 160.6C325.205 160.631 324.914 160.673 324.624 160.726H324.596C322.601 161.086 320.743 161.985 319.223 163.327C317.704 164.669 316.582 166.401 315.978 168.336C315.891 168.6 315.813 168.867 315.744 169.136C315.716 169.248 315.698 169.362 315.674 169.474C316.876 169.827 318.138 169.931 319.382 169.778Z" fill="#FF8684"/>
<path d="M182.286 270.696C177.324 268.759 172.315 266.945 167.264 265.256C162.13 263.466 156.884 262.015 151.56 260.914C149.629 260.5 147.661 260.282 145.686 260.264C145.298 260.264 144.91 260.285 144.524 260.328C144.468 260.328 144.412 260.34 144.358 260.346L144.12 260.384C143.97 260.412 143.822 260.442 143.674 260.48C143.526 260.518 143.368 260.568 143.216 260.618C143.174 260.631 143.134 260.647 143.094 260.664L142.966 260.722C142.851 260.783 142.74 260.85 142.632 260.922L142.586 260.954C142.544 260.986 142.505 261.021 142.468 261.058C142.186 261.357 141.941 261.689 141.738 262.046C141.217 263.195 140.984 264.453 141.059 265.712C141.134 266.971 141.515 268.193 142.168 269.272C143.059 271.005 144.234 272.578 145.644 273.924C145.758 274.041 145.832 274.193 145.853 274.356C145.874 274.518 145.841 274.683 145.76 274.826L145.7 274.928C144.557 277.05 143.721 279.324 143.218 281.682C142.197 286.422 142.579 291.356 144.318 295.882C145.552 298.982 147.306 301.848 149.506 304.356C150.132 305.084 150.788 305.786 151.466 306.464C151.626 306.648 151.8 306.819 151.986 306.978C152.22 307.129 152.464 307.263 152.718 307.378C155.992 309.082 159.373 310.573 162.84 311.84C168.499 313.949 174.318 315.604 180.24 316.788L180.82 316.898C181.158 316.964 181.494 317.028 181.832 317.098L181.866 316.898C182.128 315.34 182.412 313.786 182.682 312.23L184.638 301.03L186.896 288.074L188.764 277.37L189.422 273.596C188.756 273.342 188.1 273.018 187.45 272.756C185.73 272.051 184.008 271.364 182.286 270.696ZM152.626 298.232C150.962 298.03 149.368 297.446 147.968 296.526C147.8 296.423 147.679 296.26 147.629 296.07C147.579 295.88 147.604 295.678 147.7 295.506C147.801 295.336 147.964 295.213 148.155 295.164C148.346 295.114 148.549 295.141 148.72 295.24C149.029 295.447 149.35 295.636 149.68 295.808C149.856 295.9 150.036 295.984 150.216 296.066L150.27 296.09L150.312 296.108C150.404 296.144 150.496 296.182 150.59 296.216C150.938 296.347 151.293 296.457 151.654 296.548C151.822 296.59 151.992 296.628 152.162 296.662L152.456 296.714C152.482 296.714 152.766 296.76 152.626 296.742C152.821 296.748 153.007 296.828 153.146 296.966C153.284 297.104 153.364 297.29 153.37 297.486C153.37 297.684 153.291 297.873 153.152 298.013C153.013 298.153 152.823 298.231 152.626 298.232ZM156.67 278.538C156.614 278.727 156.487 278.887 156.316 278.984C156.145 279.081 155.942 279.108 155.752 279.058C155.016 278.851 154.271 278.676 153.518 278.532C152.756 278.386 152.098 278.292 151.358 278.218C151.162 278.213 150.975 278.133 150.836 277.994C150.697 277.855 150.617 277.668 150.612 277.472C150.612 277.274 150.691 277.085 150.831 276.946C150.971 276.806 151.16 276.728 151.358 276.728C152.981 276.886 154.587 277.185 156.158 277.622C156.345 277.68 156.502 277.807 156.597 277.977C156.693 278.148 156.719 278.349 156.67 278.538ZM240.494 108.238C240.6 108.2 240.528 108.222 240.494 108.238V108.238Z" fill="#FFCEB6"/>
<path d="M258.38 160.756C260.584 159.949 262.724 158.976 264.78 157.844C264.838 157.012 264.98 156.174 265.074 155.35C265.074 155.292 265.09 155.234 265.096 155.176C265.302 153.239 265.49 151.299 265.658 149.358C266.088 144.342 266.416 139.302 266.39 134.264C266.406 132.1 266.284 129.938 266.024 127.79C265.92 126.963 265.752 126.146 265.522 125.346C265.401 124.809 265.171 124.303 264.848 123.858C264.882 123.912 264.704 123.704 264.66 123.658L264.616 123.612C264.616 123.612 264.592 123.612 264.53 123.562C264.501 123.544 264.471 123.529 264.44 123.516C264.408 123.516 264.376 123.492 264.342 123.484C264.221 123.435 264.091 123.415 263.962 123.424C263.213 123.48 262.497 123.758 261.908 124.224C260.063 125.654 258.482 127.394 257.234 129.366C255.172 132.299 253.341 135.389 251.758 138.606C251.681 138.729 251.571 138.828 251.44 138.89C251.309 138.952 251.163 138.975 251.019 138.956C250.876 138.937 250.74 138.877 250.63 138.784C250.519 138.69 250.438 138.566 250.396 138.428C249.224 134.272 248.312 130.048 247.664 125.78C247.07 122.397 246.336 119.04 245.464 115.718C245.018 113.617 244.241 111.601 243.162 109.744C242.783 109.032 242.157 108.484 241.402 108.202C241.205 108.157 241.003 108.143 240.802 108.162H240.784C240.731 108.173 240.678 108.186 240.626 108.202L240.488 108.248C240.39 108.296 240.288 108.35 240.202 108.408L240.142 108.446L240.118 108.468C240.07 108.505 240.024 108.545 239.98 108.588C239.888 108.676 239.8 108.768 239.714 108.862C239.645 108.928 239.585 109.002 239.536 109.084C239.452 109.202 239.372 109.324 239.296 109.448C238.967 109.994 238.695 110.572 238.486 111.174C237.931 112.788 237.522 114.449 237.264 116.136C236.371 121.824 235.993 127.58 236.136 133.336C236.132 133.514 236.065 133.685 235.946 133.818C235.828 133.951 235.666 134.037 235.489 134.061C235.313 134.085 235.133 134.046 234.984 133.949C234.834 133.853 234.723 133.706 234.672 133.536C234.658 133.49 234.646 133.442 234.63 133.398C233.67 130.534 232.72 127.676 231.604 124.868C230.782 122.768 229.865 120.706 228.856 118.69C228.001 116.883 226.95 115.177 225.72 113.602C225.457 113.281 225.175 112.975 224.878 112.686C224.657 112.464 224.416 112.263 224.158 112.086C224.018 111.991 223.873 111.903 223.724 111.824C223.639 111.763 223.542 111.719 223.44 111.696C223.308 111.653 223.175 111.617 223.04 111.588H222.624C222.582 111.591 222.541 111.599 222.502 111.612L222.302 111.67L222.258 111.684L222.232 111.698C221.959 111.817 221.715 111.992 221.514 112.212C221.045 112.738 220.716 113.374 220.56 114.062C220.127 116.064 220.072 118.129 220.398 120.152C220.692 122.541 221.148 124.907 221.764 127.234C222.456 130.016 223.292 132.76 224.268 135.456C224.576 136.294 223.346 136.694 222.908 136.03L222.69 135.708C221.368 133.752 219.988 131.837 218.548 129.962C216.693 127.396 214.577 125.03 212.234 122.9C211.53 122.208 210.67 121.696 209.726 121.408H209.678C209.634 121.405 209.59 121.405 209.546 121.408H209.488L209.444 121.422L209.352 121.444C209.25 121.492 209.153 121.55 209.062 121.616C208.615 122.026 208.334 122.586 208.272 123.19C208.084 124.796 208.227 126.424 208.69 127.974C208.963 129.089 209.297 130.189 209.69 131.268C210.782 134.294 211.758 137.366 212.786 140.414L218.89 158.478L221.798 167.078L222.058 167.852C227.555 167.616 233.032 167.04 238.458 166.128C245.262 165.01 251.936 163.211 258.38 160.756Z" fill="#FFCEB6"/>
<path d="M55.9578 175.156C55.2298 175.156 54.5283 175.429 53.9924 175.922C53.4564 176.415 53.125 177.091 53.0638 177.816L51.3058 198.66L51.2418 199.406L51.1798 200.154L50.7478 205.264C51.4398 205.253 52.1305 205.235 52.8198 205.21C54.0198 205.167 55.2198 205.101 56.4198 205.01L56.4438 204.754L56.8438 200.446L56.9098 199.706L56.9778 198.966L58.8538 178.328C58.8908 177.925 58.8434 177.52 58.7147 177.136C58.5859 176.753 58.3787 176.401 58.1061 176.103C57.8335 175.804 57.5017 175.566 57.1318 175.403C56.7619 175.24 56.362 175.156 55.9578 175.156Z" fill="#FFD2D2"/>
<path d="M44.4203 205.152C43.7136 205.084 43.0103 205.007 42.3103 204.92V205.032C43.013 205.079 43.7163 205.119 44.4203 205.152Z" fill="#FE744F"/>
<path d="M45.2001 172.8C44.3686 172.874 43.5953 173.257 43.0333 173.874C42.4713 174.492 42.1618 175.297 42.1661 176.132L42.2721 198.78V200.272L42.2941 204.926C42.9941 205.013 43.6974 205.09 44.4041 205.158C45.8577 205.228 47.3127 205.268 48.7681 205.278V198.622L48.8081 176.122C48.8086 175.661 48.7133 175.205 48.5284 174.783C48.3434 174.36 48.0728 173.981 47.7336 173.669C47.3945 173.356 46.9941 173.118 46.558 172.969C46.1219 172.819 45.6595 172.762 45.2001 172.8Z" fill="#FE744F"/>
<path d="M38.0902 204.29L37.6902 200.598L37.6122 199.852L37.5342 199.118L35.0002 174.894C34.9529 174.459 34.8204 174.038 34.6104 173.655C34.4003 173.271 34.1167 172.932 33.7758 172.658C33.4349 172.384 33.0434 172.18 32.6236 172.057C32.2038 171.935 31.764 171.896 31.3292 171.943C30.8944 171.99 30.4731 172.123 30.0895 172.333C29.7059 172.543 29.3674 172.827 29.0934 173.168C28.8193 173.508 28.6151 173.9 28.4924 174.32C28.3697 174.74 28.3309 175.179 28.3782 175.614L31.1002 199.926L31.1822 200.66L31.2642 201.404L31.4362 202.932L31.5182 203.674C33.7037 204.142 35.9148 204.482 38.1402 204.69L38.0902 204.29Z" fill="#F76559"/>
<path d="M275.234 108.172C276.401 105.084 277.92 102.141 279.76 99.4001C281.221 97.3 282.924 95.3789 284.834 93.6761L283.948 63.1201V68.4401L120.37 78.3741C120.13 78.3885 119.905 78.4958 119.743 78.6731C119.581 78.8505 119.495 79.0839 119.502 79.3241L122.962 188.85L113.072 189.972L221.048 183.256C220.94 181.244 220.848 179.23 220.796 177.214C220.739 175.108 220.719 173.001 220.736 170.894C220.736 170.17 220.752 169.446 220.778 168.72L220.742 168.616C219.298 164.512 217.956 160.368 216.564 156.248L210.4 138C209.418 135.092 208.284 132.182 207.474 129.218C206.967 127.549 206.706 125.815 206.702 124.07C206.638 123.299 206.785 122.524 207.127 121.83C207.47 121.136 207.995 120.548 208.646 120.13C209.116 119.956 209.621 119.901 210.117 119.968C210.613 120.035 211.085 120.224 211.492 120.516C212.645 121.23 213.7 122.093 214.628 123.082C216.956 125.493 219.101 128.073 221.046 130.802L221.324 131.184C220.733 129.222 220.216 127.238 219.774 125.236C219.205 122.8 218.861 120.317 218.744 117.818C218.547 115.817 218.918 113.8 219.814 112C220.167 111.324 220.731 110.782 221.421 110.457C222.111 110.132 222.888 110.042 223.634 110.2C225.161 110.789 226.455 111.86 227.32 113.25C229.909 117.032 231.967 121.151 233.438 125.492C233.873 126.617 234.293 127.751 234.698 128.892C234.724 127.841 234.764 126.79 234.816 125.74C234.947 121.687 235.42 117.653 236.23 113.68C236.54 112.053 237.079 110.478 237.83 109.002C238.074 108.457 238.432 107.972 238.881 107.579C239.33 107.186 239.858 106.894 240.43 106.724C242.566 106.324 244.088 108.212 244.958 109.896C245.9 111.876 246.615 113.956 247.09 116.096C247.951 119.513 248.679 122.963 249.274 126.436C249.852 129.728 250.44 133.02 251.308 136.246C252.699 133.591 254.257 131.028 255.974 128.572C257.109 126.884 258.429 125.327 259.908 123.93C260.964 122.792 262.405 122.087 263.952 121.95C266.524 122.016 267.108 125.134 267.412 127.15C267.879 130.853 268.013 134.591 267.812 138.318C267.679 142.356 267.423 146.389 267.044 150.412C266.823 152.888 266.567 155.36 266.278 157.828C266.258 157.982 266.242 158.132 266.216 158.276V158.396C266.234 160.214 266.114 162.036 266.144 163.856C266.217 167.916 266.502 171.97 267 176C267.177 177.457 267.385 178.912 267.622 180.364L277.162 179.764C277.317 179.063 277.576 178.389 277.93 177.764C279.468 174.986 282.042 172.86 281.95 169.422C281.791 167.643 281.317 165.907 280.55 164.294C279.918 162.72 279.258 161.16 278.592 159.602C275.661 153.44 273.482 146.948 272.102 140.266C270.89 133.066 270.94 125.709 272.25 118.526C272.91 114.987 273.91 111.52 275.234 108.172ZM65.8359 171.814C65.0012 171.814 64.197 172.128 63.5825 172.692C62.968 173.257 62.5881 174.032 62.5179 174.864L60.4559 199.292L60.3939 200.026L60.3319 200.76L60.0479 204.14L60.0039 204.65C62.2438 204.385 64.4575 203.933 66.6219 203.298L66.6819 202.628L66.7679 201.676L66.8359 200.932L66.9059 200.174L69.1539 175.446C69.1956 174.985 69.1408 174.521 68.993 174.082C68.8452 173.643 68.6076 173.24 68.2955 172.899C67.9833 172.557 67.6034 172.284 67.1799 172.097C66.7564 171.911 66.2987 171.814 65.8359 171.814Z" fill="#D1A9FF"/>
<path d="M232.134 244.306L227.782 244.558L217.328 245.158L204.684 245.89L194.684 246.47V210.61L193.194 210.706V246.56C191.62 246.642 190.04 246.704 188.468 246.836H188.392C187.438 246.892 187.432 248.382 188.392 248.326L192.744 248.074L193.344 248.04C193.424 248.126 193.523 248.193 193.632 248.236C193.741 248.28 193.858 248.299 193.975 248.292C194.092 248.285 194.207 248.253 194.31 248.197C194.413 248.141 194.503 248.063 194.572 247.968L203.192 247.468L215.836 246.736L226.718 246.106C228.494 246.004 230.28 245.946 232.052 245.796H232.13C233.088 245.742 233.094 244.252 232.134 244.306ZM151.4 308.358C150.875 308.008 150.403 307.582 150 307.096C148.676 305.737 147.46 304.278 146.36 302.732C144.487 300.122 143.067 297.215 142.16 294.132C141.347 291.274 141.03 288.298 141.222 285.332C139.418 284.762 137.573 284.332 135.702 284.046C132.526 283.392 129.237 283.537 126.13 284.466C124.418 285.066 122.974 286.253 122.055 287.817C121.136 289.381 120.801 291.221 121.11 293.008C121.469 294.601 122.374 296.017 123.669 297.01C124.965 298.004 126.567 298.511 128.198 298.444C129.068 298.301 129.89 297.953 130.598 297.429C131.306 296.904 131.879 296.218 132.268 295.428C132.415 295.154 132.496 294.849 132.504 294.538C132.512 294.227 132.448 293.919 132.316 293.637C132.184 293.355 131.989 293.108 131.745 292.915C131.501 292.723 131.215 292.589 130.91 292.526C130.72 292.473 130.558 292.347 130.46 292.174C130.363 292.002 130.338 291.798 130.391 291.607C130.444 291.417 130.571 291.255 130.743 291.157C130.916 291.06 131.12 291.035 131.31 291.088C131.784 291.197 132.23 291.404 132.618 291.697C133.007 291.99 133.328 292.362 133.563 292.788C133.797 293.214 133.938 293.685 133.978 294.17C134.017 294.654 133.953 295.142 133.79 295.6C133.363 296.7 132.66 297.671 131.75 298.42C130.839 299.17 129.751 299.674 128.59 299.882C126.646 300.053 124.704 299.542 123.096 298.437C121.488 297.331 120.315 295.7 119.778 293.824C119.27 291.743 119.513 289.55 120.465 287.631C121.416 285.711 123.014 284.19 124.978 283.334C128.545 282.055 132.4 281.804 136.102 282.61C137.884 282.882 139.644 283.283 141.368 283.81C141.52 282.528 141.763 281.258 142.096 280.01C142.565 278.119 143.268 276.294 144.19 274.578C144.102 274.486 144.016 274.388 143.928 274.294C142.214 274.87 140.452 275.336 138.728 275.856L127.62 279.196L114.836 283.04L104.276 286.214L99.8763 287.536C99.6889 287.58 99.4919 287.55 99.3264 287.452C99.1608 287.354 99.0396 287.195 98.988 287.01C98.9364 286.825 98.9583 286.626 99.0493 286.457C99.1403 286.287 99.2933 286.16 99.4763 286.1L99.5523 286.076C101.318 285.476 103.138 284.998 104.924 284.46L116.032 281.122L128.816 277.278L139.376 274.102L142.854 273.058C141.576 271.505 140.595 269.729 139.962 267.82C139.595 266.79 139.44 265.695 139.509 264.603C139.578 263.511 139.868 262.444 140.362 261.468L127.252 255.868C127.252 255.868 70.6843 268.82 55.4883 275.53C55.4883 275.53 137.716 325.436 148.346 327.424L178.488 317.958C172.222 316.632 166.08 314.773 160.13 312.4C157.14 311.234 154.224 309.884 151.4 308.358ZM85.9623 278.2C85.7749 278.244 85.5779 278.214 85.4124 278.116C85.2468 278.017 85.1256 277.859 85.074 277.674C85.0224 277.489 85.0443 277.29 85.1353 277.121C85.2263 276.951 85.3793 276.824 85.5623 276.764L85.6383 276.74C87.4043 276.14 89.2263 275.662 91.0123 275.126L102.12 271.786L114.904 267.942L125.464 264.768L129.864 263.446C130.052 263.402 130.249 263.433 130.414 263.531C130.58 263.629 130.701 263.787 130.753 263.972C130.804 264.158 130.782 264.356 130.691 264.525C130.6 264.695 130.447 264.823 130.264 264.882L130.188 264.906C128.422 265.506 126.602 265.984 124.814 266.52L113.708 269.86L100.922 273.704L90.3623 276.878L85.9623 278.2Z" fill="#87C8ED"/>
<path d="M177.356 326.684L167.508 330.2L151.744 335.8L148.416 336.984L146.102 335.682L138.98 331.682L128.448 325.752L115.6 318.51C110.933 315.878 106.26 313.247 101.58 310.618L87.3199 302.588L74.1199 295.16L62.9199 288.856L54.8679 284.324C53.5979 283.608 52.3379 282.868 51.0539 282.178L50.8919 282.086C50.7222 281.999 50.5256 281.98 50.3425 282.034C50.1594 282.087 50.0037 282.208 49.9074 282.373C49.8112 282.538 49.7816 282.733 49.8248 282.919C49.8681 283.105 49.9808 283.267 50.1399 283.372L54.3559 285.746L65.4239 291.976L81.0659 300.776L98.9979 310.87L116.934 320.968L132.638 329.808L143.702 336.036L146.838 337.802C147.206 338.002 147.576 338.266 147.966 338.436C148.45 338.648 148.908 338.38 149.366 338.216L151.966 337.288L160.462 334.264L176.774 328.464L177.74 328.12C178.648 327.8 178.262 326.362 177.356 326.684Z" fill="#87C8ED"/>
<path d="M68.0983 204.4C67.5623 204.582 67.0203 204.748 66.4763 204.902C64.3126 205.497 62.106 205.923 59.8763 206.176C58.6763 206.32 57.4763 206.434 56.2903 206.52H56.2303C55.1923 206.594 54.1523 206.646 53.1103 206.688C52.2823 206.72 51.4529 206.743 50.6223 206.756C50.0083 206.756 49.3943 206.772 48.7803 206.768C47.4469 206.768 46.1136 206.737 44.7803 206.674C43.9576 206.641 43.1383 206.597 42.3223 206.542C40.9743 206.453 39.6316 206.337 38.2943 206.194C37.9223 206.156 37.5483 206.12 37.1763 206.078C35.3365 205.879 33.5061 205.601 31.6903 205.244C30.0526 204.923 28.4428 204.473 26.8763 203.898C26.3834 203.722 25.8994 203.522 25.4263 203.298C25.5543 204.886 25.6603 206.478 25.7803 208.064L26.7263 220.564L27.8183 235.024L28.7223 246.976L29.0603 251.438C33.4917 253.28 38.1464 254.53 42.9043 255.156C49.3266 255.976 55.8462 255.572 62.1183 253.966C64.003 253.484 65.8537 252.877 67.6583 252.15C68.0183 252.004 68.0283 252 68.4003 251.834C68.6003 251.744 68.8003 251.654 69.0003 251.558L69.1203 251.498C69.1203 250.974 69.1843 250.426 69.2023 249.916L69.3423 245.762L69.7643 233.26L70.2523 218.814L70.6523 206.878L70.7723 203.3C69.9097 203.733 69.0159 204.101 68.0983 204.4Z" fill="#FFD35C"/>
<path d="M321.572 338.442C322.348 337.892 321.604 336.598 320.82 337.156C316.078 340.522 310.317 342.142 304.516 341.74C303.56 341.672 303.564 343.162 304.516 343.23C310.583 343.642 316.606 341.951 321.572 338.442Z" fill="#000"/>
<path d="M365.416 305.046C365.416 305.126 365.394 305.246 365.384 305.306C365.33 305.693 365.264 306.079 365.184 306.462C364.913 307.877 364.56 309.275 364.128 310.65C362.658 315.324 360.469 319.741 357.64 323.742C353.433 329.64 348.054 334.607 341.84 338.332C333.122 343.435 323.482 346.765 313.474 348.132C305.065 349.251 296.551 349.343 288.12 348.404C278.662 347.448 269.277 345.865 260.028 343.666C250.702 341.516 241.48 338.92 232.354 336.032C224.206 333.452 216.131 330.652 208.128 327.632C202.097 325.365 196.109 322.987 190.164 320.498C187.849 319.526 185.545 318.531 183.252 317.514L183.14 318.162C183.13 318.246 183.103 318.326 183.061 318.399C183.019 318.472 182.962 318.535 182.894 318.585C182.826 318.635 182.748 318.67 182.666 318.688C182.584 318.707 182.499 318.708 182.416 318.692C182.35 318.701 182.282 318.701 182.216 318.692C183.651 319.331 185.09 319.959 186.534 320.576C191.95 322.896 197.407 325.117 202.906 327.24C210.622 330.225 218.407 333.025 226.26 335.64C235.306 338.64 244.446 341.362 253.686 343.686C263.082 346.1 272.613 347.959 282.228 349.252C291.023 350.511 299.928 350.824 308.79 350.186C318.756 349.371 328.489 346.737 337.506 342.414C344.644 339 350.991 334.135 356.142 328.13C359.742 323.865 362.605 319.029 364.61 313.82C365.655 311.183 366.398 308.436 366.824 305.632C366.85 305.444 366.878 305.254 366.896 305.066C367 304.092 365.504 304.098 365.416 305.046ZM389.88 233.832C387.324 229.867 384.53 226.06 381.514 222.432C378.852 219.148 375.979 216.041 372.914 213.13C369.921 210.207 366.554 207.694 362.9 205.656C361.316 204.798 359.639 204.127 357.9 203.656L357.82 203.634C357.51 203.554 357.198 203.482 356.884 203.418L356.96 204.218C356.838 204.434 356.708 204.646 356.578 204.858C352.936 210.702 346.352 214.044 340.15 216.558C336.072 218.227 331.807 219.397 327.448 220.042C325.237 220.36 323.006 220.52 320.772 220.518C318.905 220.553 317.038 220.423 315.194 220.128C313.484 219.911 311.88 219.179 310.594 218.03C309.194 216.457 308.361 214.46 308.23 212.358C308.209 212.186 308.191 212.014 308.176 211.842C308.168 211.735 308.138 211.632 308.088 211.537C308.038 211.443 307.968 211.36 307.885 211.293C307.801 211.227 307.704 211.178 307.601 211.151C307.498 211.123 307.39 211.118 307.284 211.134V211.098C306.814 211.27 306.347 211.452 305.884 211.644C302.71 212.978 299.7 214.674 296.914 216.698C296.778 216.712 296.648 216.763 296.537 216.844C296.427 216.925 296.34 217.034 296.286 217.16C293.564 219.171 291.003 221.392 288.626 223.802C284.008 219.519 280.109 214.522 277.076 209.002C276.43 207.835 275.818 206.65 275.24 205.448C273.155 201.093 271.454 196.565 270.158 191.914C269.091 188.112 268.241 184.253 267.614 180.354C267.378 178.902 267.171 177.447 266.992 175.99C266.495 171.954 266.211 167.894 266.14 163.828C266.11 162.008 266.23 160.186 266.212 158.368V158.248C266.195 158.398 266.145 158.542 266.065 158.671C265.986 158.799 265.879 158.908 265.752 158.99L265.606 159.07C265.298 159.251 264.983 159.42 264.662 159.578C264.628 160.658 264.626 161.74 264.634 162.82C264.666 166.717 264.896 170.609 265.324 174.482C265.54 176.482 265.807 178.47 266.124 180.446C266.659 183.811 267.356 187.148 268.214 190.446C269.548 195.636 271.362 200.692 273.632 205.546C274.243 206.849 274.899 208.131 275.598 209.39C278.432 214.635 282.023 219.433 286.256 223.63C286.69 224.054 287.14 224.462 287.588 224.872C286.48 226.039 285.407 227.239 284.368 228.472C279.146 234.786 274.667 241.679 271.02 249.016C267.765 255.485 264.953 262.167 262.602 269.016C258.661 267.429 254.977 265.266 251.67 262.598C248.185 259.76 245.077 256.488 242.424 252.86C239.698 249.127 237.327 245.146 235.344 240.97C233.319 236.721 231.587 232.338 230.16 227.852C228.721 223.353 227.506 218.786 226.52 214.166C226.18 212.586 225.87 211.002 225.576 209.414L225.43 208.63C224.966 206.073 224.554 203.506 224.194 200.93C224.152 200.622 224.114 200.312 224.074 200.004C223.585 196.355 223.194 192.693 222.902 189.02L222.862 188.484L223.262 188.43C226.735 188.005 230.174 187.337 233.554 186.43C233.737 186.371 233.89 186.243 233.981 186.073C234.072 185.904 234.094 185.706 234.042 185.52C233.991 185.335 233.869 185.177 233.704 185.079C233.538 184.981 233.341 184.95 233.154 184.994C229.871 185.882 226.529 186.538 223.154 186.958C223.016 186.976 222.878 186.998 222.742 187.014C222.65 185.73 222.57 184.445 222.502 183.158C222.43 181.804 222.366 180.45 222.318 179.094C222.251 177.195 222.215 175.296 222.208 173.396C222.208 172.942 222.196 172.488 222.196 172.036C222.196 171.128 222.228 170.22 222.236 169.312L221.924 169.328L221.502 169.35C221.354 169.364 221.205 169.326 221.082 169.243C220.958 169.16 220.867 169.036 220.824 168.894C220.808 168.864 220.795 168.834 220.784 168.802L220.754 168.714C220.728 169.44 220.72 170.164 220.712 170.888C220.692 172.996 220.712 175.102 220.772 177.208C220.824 179.224 220.916 181.238 221.024 183.25C221.086 184.382 221.146 185.516 221.224 186.65C221.491 190.569 221.869 194.477 222.358 198.376C222.79 201.843 223.313 205.295 223.926 208.734C224.098 209.694 224.277 210.653 224.464 211.612C225.37 216.262 226.494 220.867 227.832 225.412C229.187 230.019 230.831 234.535 232.756 238.934C234.628 243.239 236.876 247.37 239.474 251.28C242.005 255.099 244.981 258.603 248.34 261.718C251.707 264.825 255.523 267.407 259.66 269.376C260.46 269.756 261.284 270.102 262.11 270.434C260.923 273.942 259.832 277.479 258.836 281.046C258.456 282.411 258.088 283.78 257.732 285.152C256.623 284.896 255.512 284.644 254.4 284.396C249.548 283.309 244.685 282.273 239.812 281.288C235.06 280.32 230.301 279.387 225.534 278.488C221.211 277.672 216.884 276.879 212.552 276.108C208.967 275.471 205.377 274.847 201.784 274.238C199.243 273.807 196.699 273.385 194.152 272.97C192.952 272.77 191.77 272.57 190.576 272.398L190.424 272.374C190.61 272.434 190.766 272.561 190.863 272.731C190.959 272.9 190.988 273.1 190.944 273.29L190.93 273.37L190.832 273.938L192.474 274.2C194.705 274.557 196.933 274.924 199.16 275.3C202.227 275.812 205.287 276.337 208.34 276.874C208.301 276.936 208.27 277.004 208.248 277.074C207.285 280.373 206.661 283.762 206.384 287.188C206.306 288.142 207.796 288.138 207.874 287.188C208.146 283.896 208.752 280.639 209.684 277.47C209.72 277.354 209.727 277.231 209.702 277.112C213.702 277.816 217.698 278.538 221.69 279.278C226.374 280.15 231.053 281.051 235.726 281.98C240.594 282.949 245.453 283.961 250.304 285.014C255.096 286.058 259.875 287.159 264.642 288.318C269.014 289.39 273.372 290.518 277.698 291.772C281.39 292.838 285.068 293.982 288.674 295.314L289.42 295.594L289.56 295.646C291.934 296.502 294.234 297.55 296.438 298.778C296.9 299.044 297.356 299.324 297.796 299.624C298.596 300.166 299.338 298.874 298.548 298.338C296.466 296.996 294.25 295.876 291.936 294.994L300 292.4C300.91 292.108 300.522 290.668 299.6 290.962L291.302 293.632C292.34 291.758 293.416 289.904 294.502 288.058C297.914 282.249 301.495 276.543 305.246 270.942C309.921 263.893 314.973 257.101 320.38 250.596C325.487 244.244 331.327 238.52 337.78 233.542C342.708 229.914 348.666 226.542 354.906 226.716C355.544 226.732 356.18 226.79 356.81 226.888C357.748 227.038 358.152 225.602 357.21 225.45C350.88 224.434 344.676 227.146 339.486 230.548C332.872 235.124 326.903 240.568 321.74 246.734C316.064 253.273 310.782 260.143 305.92 267.308C301.833 273.248 297.95 279.32 294.27 285.524C292.61 288.312 290.908 291.11 289.406 293.99C286.698 292.986 283.958 292.068 281.192 291.238C277.002 289.975 272.783 288.809 268.538 287.742C265.436 286.951 262.324 286.196 259.204 285.478C262.03 274.287 265.902 263.386 270.77 252.92C274.325 245.255 278.742 238.02 283.936 231.356C287.513 226.783 291.631 222.66 296.2 219.078C296.252 220.832 296.67 222.555 297.426 224.138C298.396 226.046 299.806 227.694 301.54 228.948C305.239 231.508 309.581 232.982 314.074 233.204C316.489 233.405 318.92 233.287 321.304 232.852C322.244 232.676 321.846 231.24 320.904 231.414C316.869 232.125 312.724 231.903 308.788 230.766C304.848 229.873 301.395 227.513 299.132 224.166C298.064 222.282 297.564 220.128 297.692 217.966C300.182 216.158 302.851 214.61 305.656 213.346L306.088 213.158H306.102L306.138 213.144L306.36 213.052C306.51 212.99 306.662 212.932 306.814 212.874C307.011 214.72 307.651 216.49 308.678 218.036C309.683 219.413 311.085 220.451 312.696 221.01C311.658 222.222 310.835 223.604 310.264 225.094C310.213 225.285 310.238 225.488 310.336 225.66C310.434 225.831 310.596 225.957 310.786 226.01C310.976 226.057 311.177 226.03 311.348 225.933C311.518 225.836 311.645 225.678 311.702 225.49L311.798 225.242L311.836 225.15L311.852 225.114C311.924 224.952 311.998 224.79 312.076 224.632C312.236 224.303 312.41 223.981 312.598 223.666C312.786 223.351 312.981 223.055 313.182 222.778L313.34 222.562L313.382 222.508L313.426 222.45C313.544 222.302 313.664 222.158 313.788 222.014C313.933 221.844 314.005 221.623 313.988 221.4C315.247 221.679 316.528 221.85 317.816 221.912C319.93 222.047 322.051 222.035 324.164 221.878C324.075 223.524 324.241 225.174 324.656 226.77C324.682 226.864 324.727 226.952 324.787 227.03C324.848 227.107 324.923 227.171 325.008 227.219C325.093 227.267 325.187 227.298 325.284 227.31C325.381 227.322 325.48 227.314 325.574 227.288C325.668 227.262 325.757 227.217 325.834 227.157C325.911 227.096 325.975 227.022 326.023 226.936C326.071 226.851 326.102 226.757 326.114 226.66C326.126 226.563 326.118 226.464 326.092 226.37C325.704 224.86 325.56 223.298 325.666 221.742C330.063 221.282 334.387 220.284 338.54 218.768C341.62 217.67 344.609 216.332 347.48 214.768C347.48 214.792 347.48 214.816 347.496 214.84L348.846 218.358C348.872 218.452 348.917 218.541 348.977 218.618C349.038 218.695 349.113 218.76 349.198 218.808C349.283 218.856 349.377 218.887 349.475 218.899C349.572 218.911 349.671 218.903 349.765 218.877C349.859 218.851 349.948 218.806 350.025 218.746C350.102 218.685 350.167 218.61 350.215 218.525C350.263 218.44 350.294 218.346 350.306 218.248C350.318 218.151 350.31 218.052 350.284 217.958L348.934 214.44C348.881 214.3 348.794 214.175 348.682 214.076C348.882 213.956 349.082 213.842 349.282 213.72C352.869 211.649 355.896 208.734 358.102 205.228C359.193 205.559 360.256 205.978 361.28 206.48C364.85 208.318 368.141 210.655 371.052 213.42C376.569 218.573 381.519 224.3 385.82 230.504C386.768 231.836 387.706 233.18 388.582 234.562C389.106 235.4 390.4 234.644 389.88 233.832ZM179.428 234.2L157.8 260.824C160.828 261.624 163.826 262.55 166.8 263.532L186.708 238.772L179.428 234.2Z" fill="#000"/>
<path d="M384.256 174.988C383.044 172.758 381.538 170.688 380.474 168.378C379.299 165.449 379.065 162.226 379.804 159.158C380.468 155.476 381.44 151.87 381.982 148.158C382.529 144.467 382.817 140.741 382.842 137.01C382.856 133.451 382.602 129.896 382.082 126.376C381.089 119.543 378.918 112.934 375.666 106.844C373.08 101.874 369.536 97.4649 365.238 93.8718C361.003 90.3561 355.795 88.2174 350.312 87.7418C348.24 87.624 346.162 87.728 344.112 88.0518L344.182 87.9138C345.508 85.4377 347.048 83.0815 348.782 80.8718C349.996 79.3329 351.327 77.8893 352.762 76.5538C353.466 75.9018 352.412 74.8498 351.708 75.4998C347.837 79.1824 344.654 83.5257 342.308 88.3258L341.326 88.4878C341.967 83.4334 342.194 78.3352 342.006 73.2438C341.972 72.2878 340.482 72.2818 340.516 73.2438C340.714 78.4202 340.473 83.6041 339.796 88.7398C338.108 89.0421 336.4 89.2133 334.686 89.2518C332.851 89.2217 331.024 89.0113 329.23 88.6238C322.678 87.3598 316.34 85.0418 309.62 84.8498C309.4 84.8498 309.182 84.8318 308.96 84.8298C303.227 84.7781 297.561 86.057 292.406 88.5658C289.664 89.9135 287.118 91.6294 284.84 93.6658C282.928 95.3714 281.223 97.2959 279.76 99.3998C277.919 102.142 276.401 105.088 275.234 108.178C273.913 111.526 272.917 114.994 272.26 118.534C270.95 125.717 270.9 133.073 272.112 140.274C273.492 146.952 275.671 153.441 278.6 159.6C279.266 161.158 279.926 162.718 280.558 164.292C281.325 165.904 281.799 167.641 281.958 169.42C282.05 172.858 279.476 174.984 277.938 177.762C277.584 178.386 277.325 179.061 277.17 179.762C277.005 180.498 276.995 181.26 277.14 182C277.367 183.022 277.832 183.976 278.496 184.786C280.021 186.516 281.959 187.832 284.13 188.612C289.575 190.623 295.384 191.46 301.176 191.068C302.263 191.033 303.349 190.982 304.434 190.914L304.356 190.172L304.284 189.464C304.072 187.414 303.884 185.492 303.734 183.792C306.956 185.831 310.476 187.356 314.168 188.312C314.526 188.404 314.886 188.488 315.246 188.57L315.538 188.64C316.323 188.812 317.112 188.959 317.904 189.082C319.155 189.279 320.415 189.412 321.68 189.482C325.271 189.71 328.875 189.358 332.354 188.44C333.476 188.139 334.579 187.773 335.658 187.344C335.948 187.23 336.238 187.116 336.524 186.992C337.014 186.78 337.496 186.55 337.972 186.312C342.512 183.987 346.494 180.708 349.646 176.698C351.125 174.857 352.45 172.898 353.608 170.84C353.754 171.264 353.851 171.705 353.896 172.152L355.208 185.796L355.286 186.596L355.362 187.396C355.632 187.48 355.902 187.57 356.162 187.67C357.806 188.288 359.362 189.116 361.014 189.718C362.655 190.321 364.343 190.789 366.06 191.118C371.392 192.118 377.682 191.624 382.154 188.25C383.203 187.503 384.088 186.55 384.757 185.45C385.426 184.349 385.864 183.125 386.044 181.85C386.166 179.433 385.541 177.038 384.256 174.988ZM350.656 172.812C347.879 177.086 344.233 180.728 339.956 183.5C337.491 185.053 334.81 186.233 332 187C328.762 187.881 325.404 188.237 322.054 188.054C321.884 188.044 321.714 188.028 321.546 188.018C319.028 187.85 316.534 187.43 314.1 186.764C310.44 185.769 306.964 184.192 303.806 182.092C302.774 181.404 301.782 180.657 300.836 179.856C295.087 174.856 291.058 168.174 289.32 160.756C287.579 153.412 287.617 145.76 289.43 138.434C291.104 131.086 294.732 124.327 299.93 118.87C302.827 115.854 306.377 113.542 310.306 112.11C310.47 112.052 310.64 112.004 310.806 111.948C314.877 110.637 319.155 110.084 323.426 110.318C328.193 110.504 332.884 111.566 337.266 113.452C341.18 114.994 344.589 117.591 347.116 120.954C349.716 124.72 350.496 129.252 351.466 133.636C352.554 138.789 353.924 143.879 355.57 148.882C355.81 149.588 356.058 150.282 356.348 150.97C356.468 151.256 356.588 151.542 356.698 151.832C356.748 151.964 356.79 152.098 356.84 152.232L356.87 152.316C356.864 152.489 356.914 152.659 357.014 152.801C357.115 152.942 357.259 153.046 357.424 153.098C357.479 153.115 357.536 153.124 357.594 153.126C357.697 153.135 357.801 153.12 357.898 153.082C357.994 153.044 358.08 152.985 358.15 152.908C360.898 150.096 364.892 147.358 369.048 148.128C370.448 148.356 371.728 149.055 372.676 150.11C373.624 151.165 374.184 152.512 374.262 153.928C374.263 155.715 373.812 157.474 372.951 159.041C372.091 160.607 370.849 161.931 369.34 162.89C366.805 164.369 363.845 164.949 360.94 164.534C359.235 164.371 357.562 163.967 355.97 163.334C355.78 163.283 355.577 163.309 355.405 163.406C355.234 163.503 355.108 163.664 355.054 163.854C354.692 165.133 354.216 166.377 353.634 167.572C353.364 168.148 353.076 168.714 352.778 169.276C352.126 170.485 351.421 171.665 350.664 172.812H350.656ZM356.876 152.382V152.338V152.382Z" fill="black"/>
<path d="M330.894 148.956C330.891 148.826 330.855 148.699 330.789 148.587C330.723 148.475 330.629 148.382 330.516 148.317C330.403 148.253 330.275 148.218 330.145 148.218C330.015 148.217 329.887 148.25 329.774 148.314C324.664 151.58 318.662 153.167 312.606 152.852C310.746 152.717 308.91 152.35 307.142 151.758L306.53 151.538L306.256 151.432L306.124 151.376C306.016 151.33 305.906 151.284 305.8 151.23C305.34 150.998 304.626 151.27 304.68 151.874C304.862 153.738 305.188 155.584 305.654 157.398C306.4 160.888 307.867 164.184 309.962 167.074C310.891 168.284 312.045 169.303 313.362 170.074C313.763 170.307 314.18 170.513 314.61 170.69C316.166 171.28 317.845 171.471 319.494 171.248L319.594 171.226C319.626 171.228 319.659 171.228 319.692 171.226C322.395 170.85 324.856 169.465 326.58 167.348C328.194 165.253 329.336 162.833 329.928 160.254C330.852 156.564 331.179 152.749 330.894 148.956ZM325.532 166.298C324.001 168.201 321.801 169.446 319.382 169.778C318.138 169.935 316.874 169.837 315.67 169.488C315.694 169.376 315.712 169.262 315.74 169.15C316.233 167.036 317.334 165.113 318.907 163.617C320.48 162.121 322.456 161.119 324.592 160.732H324.62C324.91 160.68 325.202 160.636 325.494 160.606C325.612 160.592 325.73 160.584 325.848 160.576L326.248 160.554C326.925 160.53 327.604 160.565 328.276 160.658C327.745 162.702 326.812 164.619 325.532 166.298ZM328.646 159.204C327.984 159.1 327.315 159.045 326.646 159.038C326.13 159.045 325.616 159.084 325.106 159.154C324.892 159.182 324.676 159.208 324.466 159.246L324.314 159.274C322.437 159.609 320.662 160.372 319.128 161.504C317.379 162.803 315.986 164.523 315.08 166.504L315.066 166.534C314.92 166.857 314.787 167.186 314.666 167.522L314.63 167.63C314.515 167.959 314.414 168.293 314.328 168.63L314.306 168.728C314.29 168.79 314.275 168.853 314.262 168.916C313.922 168.733 313.594 168.528 313.282 168.302C311.225 166.627 309.646 164.438 308.706 161.958C307.589 159.264 306.809 156.443 306.384 153.558L306.312 153.078C307.467 153.489 308.657 153.8 309.866 154.006C310.792 154.172 311.727 154.288 312.666 154.352C315.725 154.562 318.798 154.263 321.76 153.466C324.46 152.727 327.053 151.641 329.474 150.234C329.592 153.246 329.314 156.261 328.646 159.2V159.204ZM207.84 58.7641C207.6 58.3565 207.254 58.0216 206.838 57.7948C206.423 57.568 205.954 57.4579 205.482 57.4761L205.39 57.5041C204.896 57.6254 204.461 57.9151 204.158 58.3233C203.855 58.7315 203.704 59.2326 203.732 59.7401C203.76 60.0278 203.834 60.3093 203.95 60.5741C204.154 61.1003 204.522 61.5469 205 61.8481C205.418 62.0699 205.898 62.1467 206.365 62.0663C206.831 61.986 207.258 61.7531 207.578 61.4041C207.882 61.0415 208.07 60.5955 208.116 60.1245C208.163 59.6535 208.067 59.1794 207.84 58.7641ZM190.448 272.374C188.241 271.451 186.022 270.557 183.792 269.692C178.792 267.736 173.766 265.874 168.684 264.162C168.054 263.95 167.423 263.74 166.79 263.532C163.818 262.537 160.817 261.634 157.79 260.824C156.027 260.355 154.25 259.94 152.462 259.578C150.358 259.114 148.215 258.846 146.062 258.778C144.592 258.646 143.116 258.957 141.824 259.67C141.199 260.138 140.699 260.752 140.366 261.458C139.872 262.434 139.581 263.501 139.513 264.593C139.444 265.685 139.598 266.78 139.966 267.81C140.599 269.719 141.579 271.495 142.858 273.048L139.38 274.092L128.82 277.268L116.036 281.112L104.928 284.45C103.142 284.988 101.328 285.464 99.5558 286.066L99.4798 286.09C99.2968 286.149 99.1438 286.277 99.0528 286.447C98.9618 286.616 98.9398 286.814 98.9915 287C99.0431 287.185 99.1643 287.343 99.3299 287.441C99.4954 287.54 99.6924 287.57 99.8798 287.526L104.28 286.204L114.84 283.03L127.624 279.186L138.732 275.846C140.462 275.326 142.224 274.86 143.932 274.284C144.02 274.378 144.106 274.484 144.194 274.568C143.266 276.284 142.558 278.108 142.084 280C141.751 281.248 141.508 282.518 141.356 283.8C139.632 283.273 137.872 282.872 136.09 282.6C132.387 281.794 128.533 282.045 124.966 283.324C123.002 284.18 121.403 285.701 120.452 287.62C119.501 289.54 119.258 291.733 119.766 293.814C120.302 295.69 121.475 297.321 123.083 298.426C124.691 299.532 126.634 300.043 128.578 299.872C129.739 299.663 130.827 299.16 131.737 298.41C132.648 297.661 133.35 296.689 133.778 295.59C133.94 295.132 134.004 294.644 133.965 294.159C133.926 293.675 133.784 293.204 133.55 292.778C133.316 292.351 132.994 291.98 132.606 291.687C132.218 291.394 131.772 291.186 131.298 291.078C131.107 291.025 130.903 291.05 130.731 291.147C130.558 291.245 130.432 291.406 130.379 291.597C130.326 291.788 130.351 291.992 130.448 292.164C130.545 292.336 130.707 292.463 130.898 292.516C131.202 292.579 131.488 292.712 131.732 292.905C131.976 293.098 132.172 293.345 132.304 293.627C132.436 293.909 132.5 294.217 132.492 294.528C132.483 294.839 132.403 295.144 132.256 295.418C131.866 296.208 131.294 296.894 130.586 297.419C129.878 297.943 129.055 298.291 128.186 298.434C126.555 298.501 124.952 297.994 123.657 297C122.362 296.007 121.456 294.591 121.098 292.998C120.789 291.21 121.123 289.371 122.042 287.807C122.962 286.243 124.406 285.056 126.118 284.456C129.225 283.526 132.513 283.382 135.69 284.036C137.56 284.322 139.406 284.752 141.21 285.322C141.018 288.287 141.335 291.264 142.148 294.122C143.054 297.205 144.474 300.112 146.348 302.722C147.447 304.268 148.664 305.727 149.988 307.086C150.391 307.572 150.862 307.997 151.388 308.348C154.213 309.867 157.13 311.211 160.122 312.37C166.071 314.743 172.213 316.602 178.48 317.928C178.74 317.984 179 318.044 179.26 318.098C180.244 318.299 181.23 318.489 182.22 318.666C182.286 318.675 182.353 318.675 182.42 318.666C182.502 318.682 182.588 318.681 182.67 318.662C182.752 318.644 182.829 318.609 182.897 318.559C182.965 318.509 183.022 318.446 183.065 318.373C183.107 318.3 183.134 318.22 183.144 318.136L183.256 317.488L183.92 313.678L185.788 302.974L188.046 290.018L190.002 278.818C190.286 277.188 190.584 275.56 190.856 273.926L190.954 273.358L190.968 273.278C191.008 273.09 190.978 272.893 190.882 272.726C190.786 272.559 190.631 272.434 190.448 272.374ZM152.71 307.374C152.456 307.259 152.211 307.125 151.978 306.974C151.792 306.816 151.618 306.644 151.458 306.46C150.78 305.782 150.124 305.08 149.498 304.352C147.298 301.844 145.543 298.978 144.31 295.878C142.571 291.352 142.189 286.418 143.21 281.678C143.713 279.321 144.549 277.046 145.692 274.924L145.752 274.822C145.833 274.679 145.865 274.514 145.845 274.352C145.824 274.189 145.75 274.037 145.636 273.92C144.226 272.574 143.051 271.001 142.16 269.268C141.507 268.189 141.126 266.967 141.051 265.708C140.976 264.449 141.209 263.191 141.73 262.042C141.933 261.685 142.178 261.353 142.46 261.054C142.497 261.017 142.536 260.982 142.578 260.95L142.624 260.918C142.734 260.85 142.846 260.788 142.958 260.718L143.086 260.66C143.126 260.643 143.166 260.627 143.208 260.614C143.503 260.515 143.805 260.437 144.112 260.38L144.35 260.342C144.404 260.342 144.46 260.328 144.516 260.324C144.902 260.287 145.29 260.265 145.678 260.26C147.653 260.278 149.621 260.496 151.552 260.91C156.876 262.011 162.122 263.462 167.256 265.252C172.31 266.93 177.314 268.766 182.278 270.692C184.002 271.359 185.72 272.039 187.432 272.734C188.082 272.996 188.738 273.32 189.404 273.574L188.746 277.348L186.878 288.052L184.62 301.008L182.664 312.208C182.394 313.764 182.11 315.318 181.848 316.876L181.814 317.076C181.475 317.015 181.138 316.949 180.802 316.876L180.222 316.766C174.299 315.582 168.481 313.927 162.822 311.818C159.359 310.556 155.981 309.072 152.71 307.374Z" fill="black"/>
<path d="M152.626 296.742C152.766 296.76 152.482 296.72 152.456 296.714L152.162 296.662C151.992 296.628 151.822 296.59 151.654 296.548C151.293 296.457 150.938 296.346 150.59 296.216C150.496 296.182 150.404 296.144 150.312 296.108L150.27 296.09L150.216 296.066C150.035 295.985 149.856 295.899 149.68 295.808C149.35 295.636 149.03 295.447 148.72 295.24C148.549 295.141 148.346 295.114 148.155 295.164C147.965 295.213 147.801 295.336 147.7 295.506C147.605 295.678 147.579 295.88 147.629 296.07C147.679 296.26 147.8 296.423 147.968 296.526C149.369 297.446 150.963 298.03 152.626 298.232C152.824 298.231 153.013 298.153 153.152 298.013C153.292 297.873 153.37 297.683 153.37 297.486C153.365 297.29 153.284 297.104 153.146 296.966C153.008 296.828 152.822 296.748 152.626 296.742ZM156.15 277.622C154.579 277.185 152.973 276.886 151.35 276.728C151.153 276.728 150.963 276.806 150.823 276.946C150.683 277.085 150.605 277.274 150.604 277.472C150.609 277.668 150.689 277.855 150.828 277.994C150.967 278.133 151.154 278.213 151.35 278.218C152.09 278.292 152.75 278.386 153.51 278.532C154.27 278.678 155.008 278.852 155.744 279.058C155.84 279.089 155.941 279.1 156.041 279.091C156.141 279.082 156.239 279.053 156.327 279.006C156.416 278.958 156.494 278.893 156.557 278.815C156.62 278.736 156.666 278.646 156.693 278.549C156.72 278.452 156.727 278.35 156.714 278.251C156.701 278.151 156.668 278.055 156.616 277.968C156.565 277.882 156.497 277.806 156.416 277.747C156.334 277.687 156.242 277.645 156.144 277.622H156.15ZM263.96 121.932C262.413 122.069 260.972 122.774 259.916 123.912C258.437 125.309 257.117 126.866 255.982 128.554C254.265 131.01 252.707 133.573 251.316 136.228C250.448 133.002 249.86 129.71 249.282 126.418C248.687 122.945 247.959 119.495 247.098 116.078C246.623 113.938 245.908 111.858 244.966 109.878C244.096 108.194 242.566 106.3 240.438 106.706C239.866 106.876 239.338 107.168 238.889 107.561C238.44 107.954 238.082 108.439 237.838 108.984C237.087 110.46 236.548 112.035 236.238 113.662C235.428 117.635 234.955 121.669 234.824 125.722C234.772 126.772 234.732 127.823 234.706 128.874C234.306 127.734 233.886 126.601 233.446 125.474C231.976 121.133 229.917 117.014 227.328 113.232C226.463 111.842 225.169 110.772 223.642 110.182C222.896 110.024 222.119 110.114 221.429 110.439C220.739 110.764 220.175 111.306 219.822 111.982C218.925 113.781 218.552 115.795 218.746 117.796C218.863 120.295 219.207 122.778 219.776 125.214C220.212 127.214 220.74 129.198 221.326 131.162L221.048 130.78C219.103 128.051 216.958 125.471 214.63 123.06C213.702 122.071 212.647 121.208 211.494 120.494C211.088 120.202 210.615 120.013 210.119 119.946C209.623 119.879 209.118 119.934 208.648 120.108C207.997 120.526 207.472 121.114 207.129 121.808C206.787 122.502 206.64 123.277 206.704 124.048C206.709 125.793 206.969 127.527 207.476 129.196C208.286 132.16 209.42 135.07 210.402 137.978L216.572 156.234C217.972 160.354 219.306 164.498 220.75 168.602L220.786 168.706L220.816 168.794C220.827 168.826 220.84 168.856 220.856 168.886C220.899 169.029 220.99 169.152 221.114 169.235C221.237 169.318 221.386 169.356 221.534 169.342L221.956 169.32L222.268 169.304C228.929 169.011 235.558 168.221 242.1 166.938C246.975 165.986 251.775 164.683 256.462 163.04C259.162 162.104 261.801 160.999 264.362 159.732L264.684 159.57C265.004 159.41 265.322 159.244 265.628 159.062L265.774 158.982C265.901 158.9 266.008 158.791 266.087 158.663C266.167 158.534 266.217 158.39 266.234 158.24C266.26 158.096 266.276 157.946 266.296 157.792C266.588 155.324 266.843 152.852 267.062 150.376C267.424 146.352 267.708 142.32 267.83 138.282C268.031 134.555 267.897 130.817 267.43 127.114C267.116 125.116 266.532 122 263.96 121.932ZM265.656 149.358C265.488 151.301 265.301 153.24 265.094 155.176C265.094 155.234 265.078 155.292 265.072 155.35C264.976 156.174 264.836 157.012 264.778 157.844C262.722 158.976 260.582 159.95 258.378 160.756C251.93 163.207 245.252 165.003 238.444 166.116C233.018 167.028 227.541 167.604 222.044 167.84L221.784 167.066L218.876 158.466L212.772 140.402C211.744 137.354 210.772 134.282 209.676 131.256C209.283 130.177 208.949 129.077 208.676 127.962C208.213 126.412 208.071 124.785 208.258 123.178C208.32 122.575 208.601 122.015 209.048 121.604C209.139 121.538 209.236 121.481 209.338 121.432L209.43 121.41L209.474 121.396H209.532C209.576 121.393 209.62 121.393 209.664 121.396H209.712C210.656 121.684 211.516 122.196 212.22 122.888C214.563 125.018 216.679 127.384 218.534 129.95C219.973 131.817 221.353 133.732 222.676 135.696L222.894 136.018C223.332 136.682 224.562 136.282 224.254 135.444C223.278 132.748 222.442 130.004 221.75 127.222C221.134 124.895 220.678 122.529 220.384 120.14C220.058 118.118 220.113 116.052 220.546 114.05C220.703 113.363 221.031 112.726 221.5 112.2C221.701 111.98 221.945 111.805 222.218 111.686L222.244 111.672L222.288 111.658L222.488 111.6C222.508 111.6 222.572 111.582 222.61 111.576H223.026C223.161 111.605 223.295 111.641 223.426 111.684C223.528 111.707 223.625 111.751 223.71 111.812C223.859 111.892 224.004 111.979 224.144 112.074C224.402 112.251 224.643 112.452 224.864 112.674C225.162 112.963 225.443 113.269 225.706 113.59C226.936 115.165 227.988 116.872 228.842 118.678C229.86 120.678 230.758 122.76 231.59 124.856C232.706 127.656 233.656 130.522 234.616 133.386C234.632 133.43 234.644 133.478 234.658 133.524C234.709 133.695 234.82 133.841 234.97 133.937C235.12 134.034 235.299 134.073 235.475 134.049C235.652 134.025 235.814 133.939 235.933 133.806C236.051 133.673 236.118 133.502 236.122 133.324C235.98 127.568 236.357 121.812 237.25 116.124C237.508 114.437 237.917 112.776 238.472 111.162C238.681 110.56 238.953 109.982 239.282 109.436C239.358 109.312 239.438 109.19 239.522 109.072C239.572 108.991 239.631 108.916 239.7 108.85C239.786 108.756 239.874 108.664 239.966 108.576C240.01 108.533 240.056 108.493 240.104 108.456L240.128 108.434L240.188 108.396C240.282 108.338 240.376 108.284 240.474 108.236L240.612 108.19C240.664 108.174 240.716 108.162 240.77 108.15H240.788C240.989 108.131 241.191 108.145 241.388 108.19C242.143 108.472 242.769 109.02 243.148 109.732C244.227 111.589 245.004 113.605 245.45 115.706C246.328 119.034 247.05 122.38 247.65 125.768C248.304 130.038 249.223 134.264 250.4 138.42C250.442 138.559 250.524 138.682 250.634 138.776C250.745 138.87 250.88 138.929 251.024 138.948C251.167 138.967 251.313 138.944 251.444 138.882C251.575 138.82 251.686 138.721 251.762 138.598C253.345 135.381 255.176 132.291 257.238 129.358C258.486 127.386 260.068 125.646 261.912 124.216C262.502 123.751 263.217 123.472 263.966 123.416C264.096 123.407 264.226 123.427 264.346 123.476C264.38 123.476 264.412 123.498 264.444 123.508C264.475 123.521 264.505 123.537 264.534 123.554C264.596 123.596 264.616 123.606 264.62 123.604L264.664 123.65C264.708 123.698 264.886 123.906 264.852 123.85C265.176 124.295 265.405 124.801 265.526 125.338C265.756 126.139 265.924 126.956 266.028 127.782C266.289 129.93 266.411 132.092 266.394 134.256C266.414 139.302 266.086 144.342 265.656 149.358ZM240.49 108.242C240.528 108.222 240.6 108.2 240.49 108.242V108.242ZM113.704 269.85L124.81 266.51C126.598 265.974 128.41 265.498 130.184 264.896L130.26 264.872C130.443 264.813 130.596 264.685 130.687 264.515C130.778 264.346 130.8 264.148 130.748 263.962C130.697 263.777 130.575 263.619 130.41 263.521C130.244 263.423 130.047 263.392 129.86 263.436L125.46 264.758L114.9 267.932L102.116 271.776L91.0081 275.116C89.2221 275.652 87.4081 276.128 85.6341 276.73L85.5581 276.754C85.3751 276.813 85.2221 276.941 85.1311 277.111C85.0401 277.28 85.0181 277.478 85.0698 277.664C85.1214 277.849 85.2426 278.007 85.4081 278.105C85.5737 278.203 85.7707 278.234 85.9581 278.19L90.3581 276.868L100.918 273.694L113.704 269.85ZM71.1481 201.306L71.0081 201.408C71.0621 201.372 71.1041 201.338 71.1481 201.306Z" fill="black"/>
<path d="M85.0741 219.216C84.7124 217.044 83.7199 215.027 82.2201 213.416C80.8212 212.192 79.0583 211.462 77.2034 211.338C75.3486 211.215 73.5046 211.706 71.9561 212.734C72.0981 209.196 72.2741 205.652 72.3041 202.114V201.914C72.3136 201.749 72.2608 201.586 72.1561 201.458L72.1261 201.428C71.9808 201.288 71.7891 201.207 71.5877 201.2C71.3863 201.192 71.1892 201.259 71.034 201.388C70.8824 201.487 70.7291 201.583 70.5741 201.676L70.5161 201.712C70.2052 201.896 69.8847 202.063 69.5561 202.212C69.1885 202.384 68.8142 202.542 68.4341 202.684C67.8341 202.912 67.2341 203.11 66.6161 203.296C64.4516 203.931 62.2379 204.383 59.9981 204.648C59.3281 204.732 58.6581 204.81 57.9981 204.874C57.4761 204.926 56.9521 204.964 56.4281 205.004C55.2281 205.096 54.0281 205.163 52.8281 205.204C52.1387 205.229 51.4481 205.247 50.7561 205.258C50.1021 205.258 49.4461 205.27 48.7921 205.258C47.3361 205.258 45.8801 205.206 44.4281 205.138C43.7241 205.105 43.0207 205.065 42.3181 205.018C40.9235 204.928 39.5307 204.814 38.1401 204.676C35.9147 204.467 33.7036 204.128 31.5181 203.66C30.3871 203.414 29.269 203.113 28.1681 202.756C27.8681 202.658 27.5681 202.556 27.2761 202.444L26.9181 202.306L26.7181 202.22L26.6861 202.208C26.353 202.065 26.026 201.908 25.7061 201.738L25.6081 201.678C25.4513 201.588 25.2966 201.495 25.1441 201.398L25.1081 201.376C25.0144 201.293 24.9018 201.234 24.7801 201.204C24.699 201.184 24.6151 201.178 24.5321 201.186C24.4514 201.187 24.3713 201.199 24.2941 201.222C24.1179 201.294 23.9751 201.429 23.894 201.602C23.8129 201.774 23.7993 201.97 23.8561 202.152L24.2141 206.88L25.1161 218.832L26.2101 233.292L27.1541 245.79C27.3081 247.81 27.4241 249.838 27.6141 251.854V251.946C27.6224 252.107 27.6793 252.262 27.777 252.39C27.8748 252.518 28.009 252.613 28.1621 252.664C38.6505 257.136 50.2824 258.186 61.4021 255.664C64.1494 255.041 66.829 254.149 69.4021 253.002C69.9241 252.764 70.5581 252.59 70.6401 251.938C70.6741 251.67 70.6581 251.386 70.6681 251.116L71.1021 238.284C74.602 238.196 77.9793 236.976 80.7281 234.808C82.9373 232.868 84.4644 230.27 85.0841 227.396C85.6828 224.702 85.6794 221.909 85.0741 219.216ZM42.9001 255.162C38.1422 254.536 33.4875 253.286 29.0561 251.444C28.9414 249.959 28.8287 248.471 28.7181 246.982L27.8141 235.03L26.7221 220.57L25.7761 208.07C25.6561 206.484 25.5501 204.892 25.4221 203.304C25.9021 203.53 26.4021 203.718 26.8721 203.904C28.4386 204.479 30.0483 204.929 31.6861 205.25C33.5041 205.62 35.3481 205.874 37.1721 206.084C37.5441 206.126 37.9181 206.162 38.2901 206.2C39.6234 206.34 40.9661 206.456 42.3181 206.548C43.1367 206.603 43.9561 206.647 44.7761 206.68C46.1094 206.739 47.4427 206.77 48.7761 206.774C49.3901 206.774 50.0041 206.774 50.6181 206.762C51.4474 206.75 52.2767 206.727 53.1061 206.694C54.1469 206.654 55.187 206.598 56.2261 206.526H56.2861C57.4861 206.44 58.6861 206.326 59.8721 206.182C62.1017 205.929 64.3084 205.503 66.4721 204.908C67.0161 204.754 67.5581 204.588 68.0941 204.406C69.0119 204.112 69.9064 203.75 70.7701 203.322L70.6501 206.9L70.2501 218.836L69.7621 233.282L69.34 245.784L69.2001 249.938C69.1821 250.448 69.112 250.996 69.118 251.52L68.9981 251.58C68.7981 251.676 68.5981 251.766 68.3981 251.856C68.0261 252.022 68.0161 252.026 67.6561 252.172C65.8515 252.899 64.0008 253.506 62.1161 253.988C55.8423 255.589 49.3221 255.987 42.9001 255.162ZM80.4001 233.092C77.8672 235.417 74.5736 236.739 71.1361 236.81L71.1521 236.342L71.8801 214.816V214.528C71.951 214.494 72.0181 214.452 72.0801 214.404C71.7661 214.648 72.0801 214.404 72.1541 214.36C72.3541 214.22 72.5661 214.09 72.7801 213.96C73.4012 213.599 74.0615 213.31 74.7481 213.098C75.7542 212.76 76.8279 212.676 77.8745 212.852C78.921 213.028 79.9079 213.46 80.7481 214.108C82.1854 215.412 83.1527 217.153 83.5001 219.062C84.207 221.472 84.2935 224.022 83.7516 226.475C83.2096 228.928 82.0568 231.204 80.4001 233.092ZM118.298 181.442L115.012 182C114.822 182.053 114.661 182.179 114.563 182.351C114.465 182.522 114.439 182.725 114.49 182.916C114.548 183.103 114.675 183.262 114.846 183.359C115.016 183.455 115.218 183.483 115.408 183.436L118.694 182.874C118.884 182.821 119.046 182.694 119.143 182.522C119.241 182.35 119.266 182.147 119.214 181.956C119.155 181.77 119.028 181.613 118.858 181.518C118.688 181.422 118.487 181.395 118.298 181.442ZM120 172.8C119.997 172.603 119.918 172.416 119.779 172.277C119.64 172.137 119.453 172.058 119.256 172.054H116.218C116.027 172.064 115.847 172.147 115.716 172.285C115.584 172.424 115.511 172.608 115.511 172.799C115.511 172.99 115.584 173.174 115.716 173.313C115.847 173.451 116.027 173.534 116.218 173.544H119.262C119.458 173.54 119.644 173.461 119.782 173.322C119.92 173.183 119.998 172.996 120 172.8ZM116 161.058C116.056 161.246 116.183 161.405 116.353 161.502C116.524 161.599 116.726 161.626 116.916 161.578L119.73 160.922C119.92 160.867 120.08 160.741 120.177 160.569C120.275 160.397 120.301 160.195 120.25 160.004C120.194 159.816 120.067 159.657 119.896 159.56C119.726 159.463 119.524 159.436 119.334 159.484L116.52 160.142C116.33 160.196 116.17 160.322 116.072 160.493C115.975 160.665 115.949 160.868 116 161.058ZM117.894 145.33L117.81 145.368L117.654 145.43C117.533 145.475 117.409 145.519 117.282 145.562C117.048 145.638 116.812 145.702 116.574 145.762C116.454 145.79 116.334 145.814 116.214 145.834L116.014 145.868H115.992C115.73 145.899 115.467 145.917 115.204 145.924C115.103 145.919 115.002 145.934 114.907 145.969C114.812 146.004 114.725 146.058 114.652 146.128C114.578 146.198 114.52 146.282 114.48 146.375C114.44 146.468 114.419 146.568 114.419 146.669C114.419 146.77 114.44 146.87 114.48 146.963C114.52 147.056 114.578 147.14 114.652 147.21C114.725 147.28 114.812 147.334 114.907 147.369C115.002 147.404 115.103 147.419 115.204 147.414C116.393 147.378 117.563 147.106 118.646 146.614C118.816 146.514 118.94 146.35 118.99 146.159C119.041 145.968 119.013 145.765 118.914 145.594C118.81 145.428 118.646 145.309 118.456 145.259C118.267 145.21 118.066 145.236 117.894 145.33ZM117.52 133.414L117.35 133.48C116.972 133.625 116.583 133.738 116.186 133.818C116.058 133.848 115.93 133.874 115.8 133.896L115.59 133.93C115.56 133.93 115.36 133.976 115.546 133.93C115.282 133.973 115.014 133.994 114.746 133.994H114.706C114.515 134.004 114.335 134.087 114.204 134.225C114.072 134.364 113.999 134.548 113.999 134.739C113.999 134.93 114.072 135.114 114.204 135.253C114.335 135.391 114.515 135.474 114.706 135.484C115.974 135.44 117.223 135.156 118.386 134.648C118.554 134.55 118.677 134.39 118.728 134.202C118.768 134.059 118.764 133.908 118.717 133.767C118.67 133.627 118.582 133.504 118.464 133.413C118.347 133.323 118.205 133.27 118.057 133.261C117.909 133.252 117.762 133.287 117.634 133.362C117.8 133.3 117.552 133.4 117.52 133.414ZM116.872 116.4C116.772 116.464 116.672 116.524 116.562 116.578L116.44 116.636L116.372 116.662C116.181 116.729 115.984 116.779 115.784 116.812C115.606 116.831 115.427 116.835 115.248 116.826C115.176 116.826 115.102 116.826 115.03 116.812C114.958 116.798 114.942 116.798 114.9 116.788C114.806 116.762 114.707 116.754 114.61 116.766C114.513 116.778 114.419 116.809 114.334 116.857C114.249 116.905 114.174 116.969 114.113 117.046C114.053 117.123 114.008 117.212 113.982 117.306C113.956 117.4 113.948 117.499 113.96 117.596C113.972 117.693 114.003 117.787 114.051 117.872C114.099 117.957 114.163 118.032 114.241 118.093C114.318 118.153 114.406 118.198 114.5 118.224C115.571 118.449 116.687 118.257 117.62 117.686C117.704 117.637 117.778 117.571 117.837 117.493C117.897 117.415 117.94 117.326 117.965 117.232C117.989 117.137 117.995 117.039 117.982 116.942C117.969 116.845 117.936 116.751 117.887 116.667C117.838 116.583 117.772 116.509 117.694 116.45C117.616 116.39 117.527 116.347 117.433 116.322C117.338 116.298 117.24 116.292 117.143 116.305C117.046 116.318 116.952 116.351 116.868 116.4H116.872ZM114.444 106.346H116.472C116.663 106.336 116.843 106.253 116.974 106.115C117.106 105.976 117.179 105.792 117.179 105.601C117.179 105.41 117.106 105.226 116.974 105.087C116.843 104.949 116.663 104.866 116.472 104.856H114.444C114.343 104.851 114.242 104.866 114.147 104.901C114.052 104.936 113.965 104.99 113.892 105.06C113.818 105.13 113.76 105.214 113.72 105.307C113.68 105.4 113.659 105.5 113.659 105.601C113.659 105.702 113.68 105.802 113.72 105.895C113.76 105.988 113.818 106.072 113.892 106.142C113.965 106.212 114.052 106.266 114.147 106.301C114.242 106.336 114.343 106.351 114.444 106.346ZM115.842 90.982C115.892 90.8975 115.924 90.804 115.937 90.7069C115.951 90.6098 115.945 90.5111 115.92 90.4163C115.895 90.3215 115.852 90.2326 115.792 90.1546C115.733 90.0766 115.659 90.0112 115.574 89.962L115.398 89.888C115.267 89.8516 115.129 89.8516 114.998 89.888L112.978 90.194C112.791 90.2453 112.631 90.3682 112.534 90.536C112.434 90.7065 112.406 90.9098 112.456 91.101C112.506 91.2922 112.63 91.4559 112.8 91.556L112.978 91.63C113.109 91.6667 113.247 91.6667 113.378 91.63L115.4 91.324C115.586 91.2715 115.745 91.1489 115.842 90.982ZM110.892 80.224H116.726C116.923 80.224 117.113 80.1456 117.252 80.0061C117.392 79.8665 117.47 79.6773 117.47 79.48C117.47 79.2826 117.392 79.0934 117.252 78.9539C117.113 78.8143 116.923 78.736 116.726 78.736H110.892C110.695 78.736 110.505 78.8143 110.366 78.9539C110.226 79.0934 110.148 79.2826 110.148 79.48C110.148 79.6773 110.226 79.8665 110.366 80.0061C110.505 80.1456 110.695 80.224 110.892 80.224Z" fill="black"/>
<path d="M195.564 132.552C195.102 131.215 194.365 129.989 193.4 128.953C192.436 127.918 191.265 127.096 189.964 126.54C188.806 126.203 187.582 126.169 186.407 126.442C185.233 126.715 184.148 127.285 183.258 128.098C182.401 128.874 181.871 129.946 181.774 131.098C181.755 132.41 182.239 133.679 183.128 134.644C184.06 135.776 185.292 136.628 186.186 137.79C186.923 138.771 187.383 139.931 187.518 141.15C187.663 142.419 187.521 143.704 187.103 144.911C186.684 146.117 186.001 147.215 185.102 148.122C184.108 149.026 182.909 149.676 181.609 150.016C180.309 150.356 178.945 150.375 177.636 150.072C176.242 149.803 174.925 149.228 173.78 148.387C172.636 147.547 171.693 146.462 171.02 145.212C170.341 143.848 169.94 142.362 169.842 140.841C169.744 139.32 169.95 137.794 170.448 136.354C171.788 133.325 173.839 130.664 176.428 128.598C178.972 126.488 180.746 123.595 181.472 120.37C181.688 118.96 181.449 117.517 180.79 116.252C180.132 114.987 179.087 113.964 177.808 113.332C176.826 112.923 175.739 112.842 174.707 113.1C173.676 113.359 172.755 113.943 172.082 114.766C170.895 116.392 170.019 118.222 169.496 120.166C169.005 122.089 168.158 123.904 167 125.516C166.391 126.262 165.556 126.79 164.62 127.018C163.928 127.132 163.22 127.095 162.543 126.91C161.867 126.724 161.239 126.395 160.702 125.944C157.994 123.832 157.782 119.986 158.024 116.836C158.277 113.644 159.075 110.52 160.384 107.598C161.684 104.67 163.459 101.977 165.638 99.628C166.743 98.4563 167.939 97.3729 169.214 96.388C170.403 95.5282 171.514 94.5666 172.536 93.514C173.567 92.4493 174.245 91.0922 174.476 89.628C174.633 88.1779 174.266 86.7193 173.442 85.516C172.445 84.1648 171.08 83.1284 169.511 82.5303C167.942 81.9321 166.234 81.7974 164.59 82.142C161.645 82.7349 158.863 83.9589 156.435 85.7297C154.008 87.5006 151.994 89.7762 150.53 92.4C147.425 97.6849 146.015 103.795 146.49 109.906C147.195 117.133 149.362 124.142 152.86 130.506C156.048 136.726 160.246 142.536 162.384 149.248C163.457 152.405 163.818 155.761 163.442 159.074C163.015 162.145 161.902 165.08 160.186 167.662C158.424 170.314 156.052 172.503 153.267 174.047C150.483 175.59 147.368 176.442 144.186 176.53C141.002 176.643 137.836 175.999 134.95 174.65C134.088 174.25 133.332 175.524 134.198 175.936C137.169 177.327 140.413 178.038 143.693 178.018C146.973 177.998 150.208 177.247 153.162 175.82C155.974 174.396 158.443 172.378 160.399 169.906C162.355 167.433 163.751 164.566 164.49 161.502C166.136 154.744 164.014 148.078 160.948 142.064C159.348 138.944 157.548 135.95 155.83 132.896C153.985 129.651 152.374 126.277 151.01 122.802C148.265 116.346 147.351 109.259 148.368 102.318C149.339 96.5511 152.276 91.298 156.68 87.45C159.095 85.3632 162.06 84.0143 165.22 83.564C168.378 83.22 172.01 84.522 172.888 87.892C173.712 91.048 170.762 93.314 168.588 95.01C166.067 96.9263 163.843 99.2042 161.988 101.77C160.102 104.437 158.657 107.39 157.71 110.516C156.709 113.629 156.302 116.903 156.51 120.166C156.522 121.766 156.96 123.334 157.78 124.708C158.599 126.082 159.77 127.213 161.172 127.984C162.293 128.539 163.566 128.711 164.794 128.473C166.022 128.236 167.139 127.601 167.972 126.668C169.241 125.042 170.177 123.181 170.726 121.192C171.21 119.277 172.028 117.461 173.142 115.83C173.447 115.435 173.832 115.11 174.273 114.876C174.713 114.642 175.199 114.504 175.696 114.473C176.194 114.441 176.693 114.516 177.159 114.693C177.626 114.869 178.05 115.143 178.402 115.496C180.78 117.76 180.246 121.11 178.672 123.664C176.848 126.624 173.932 128.654 171.716 131.288C169.654 133.657 168.465 136.661 168.348 139.8C168.216 142.893 169.292 145.917 171.348 148.232C173.306 150.281 175.959 151.523 178.786 151.716C180.165 151.84 181.555 151.661 182.857 151.192C184.16 150.723 185.345 149.975 186.328 149C187.238 148.034 187.948 146.898 188.417 145.656C188.886 144.415 189.105 143.092 189.06 141.766C189.017 140.436 188.675 139.133 188.06 137.954C187.349 136.784 186.452 135.737 185.406 134.854C184.292 134.04 183.525 132.837 183.258 131.484C183.256 130.973 183.379 130.468 183.616 130.015C183.853 129.562 184.197 129.174 184.618 128.884C185.536 128.168 186.663 127.773 187.827 127.757C188.992 127.742 190.129 128.107 191.066 128.798C193.269 130.802 194.759 133.471 195.31 136.398C196.134 139.205 196.642 142.096 196.824 145.016C197.07 147.801 196.601 150.603 195.462 153.156C193.966 155.853 191.479 157.861 188.528 158.756C185.483 159.603 182.594 160.935 179.972 162.7C178.749 163.545 177.813 164.744 177.29 166.136C176.767 167.528 176.682 169.046 177.046 170.488C177.477 171.87 178.355 173.068 179.543 173.894C180.731 174.72 182.161 175.127 183.606 175.05C184.994 174.908 186.303 174.334 187.348 173.41C188.393 172.485 189.122 171.256 189.432 169.896C189.62 168.96 188.184 168.56 187.996 169.496C187.875 170.194 187.605 170.857 187.205 171.441C186.804 172.025 186.282 172.515 185.675 172.879C185.067 173.242 184.388 173.471 183.685 173.548C182.981 173.625 182.269 173.549 181.597 173.326C180.925 173.103 180.309 172.737 179.791 172.254C179.274 171.771 178.866 171.182 178.597 170.527C178.328 169.872 178.203 169.167 178.232 168.46C178.26 167.752 178.441 167.059 178.762 166.428C180.384 163.865 182.926 162.019 185.866 161.27C189.011 160.469 191.949 159.008 194.486 156.984C198.73 152.91 198.762 146.45 197.874 141.046C197.446 138.133 196.67 135.281 195.564 132.552Z" fill="#000"/>
<path d="M141.968 159.524C143.777 159.114 145.479 158.326 146.961 157.21C148.443 156.095 149.673 154.679 150.568 153.054C152.319 149.995 152.969 146.428 152.409 142.948C151.849 139.468 150.113 136.285 147.49 133.93C144.872 131.47 141.557 129.879 138 129.376C135.95 129.042 133.847 129.419 132.04 130.444C130.526 131.425 129.215 132.69 128.18 134.168C127.628 134.896 127.118 135.654 126.612 136.416C126.08 137.216 127.37 137.964 127.898 137.168C129.56 134.666 131.498 131.768 134.586 130.968C137.893 130.432 141.278 131.203 144.026 133.12C146.575 134.638 148.594 136.904 149.811 139.61C151.027 142.315 151.382 145.33 150.826 148.244C150.239 151.167 148.69 153.809 146.426 155.748C145.206 156.837 143.729 157.599 142.133 157.961C140.538 158.324 138.877 158.275 137.306 157.82C135.962 157.312 134.763 156.48 133.816 155.399C132.87 154.318 132.204 153.02 131.878 151.62C131.564 150.23 131.657 148.779 132.146 147.44C132.635 146.101 133.5 144.932 134.636 144.072C135.245 143.622 135.941 143.303 136.68 143.136C137.419 142.969 138.184 142.957 138.928 143.102C139.671 143.246 140.377 143.543 140.999 143.975C141.622 144.406 142.148 144.962 142.544 145.608C142.779 145.972 142.938 146.38 143.013 146.807C143.088 147.233 143.077 147.671 142.98 148.093C142.884 148.515 142.704 148.914 142.451 149.266C142.198 149.618 141.877 149.916 141.508 150.142C141.149 150.325 140.755 150.431 140.353 150.454C139.951 150.477 139.548 150.416 139.17 150.275C138.792 150.134 138.448 149.917 138.159 149.636C137.87 149.355 137.642 149.017 137.49 148.644C137.09 147.772 135.812 148.528 136.204 149.396C136.563 150.203 137.159 150.882 137.913 151.342C138.667 151.802 139.544 152.021 140.426 151.971C141.307 151.921 142.153 151.604 142.85 151.061C143.547 150.519 144.063 149.777 144.328 148.934C145.48 145.42 142.302 142.12 139.014 141.588C137.315 141.387 135.598 141.758 134.134 142.643C132.67 143.528 131.543 144.876 130.932 146.474C130.292 148.058 130.094 149.786 130.359 151.474C130.624 153.162 131.341 154.746 132.436 156.058C133.545 157.466 135.024 158.536 136.708 159.148C138.392 159.761 140.214 159.891 141.968 159.524ZM261.276 82.0261L188.494 85.5781V99.7681L262.714 96.2761L261.276 82.0261Z" fill="#000"/>
<path d="M216.706 192.816C216.233 191.718 215.44 190.789 214.43 190.149C213.42 189.51 212.241 189.19 211.046 189.232C210.941 189.233 210.837 189.257 210.742 189.302C210.716 189.302 210.692 189.302 210.666 189.312C209.657 189.57 208.749 190.127 208.063 190.911C207.377 191.694 206.944 192.668 206.822 193.702C206.744 194.839 206.983 195.976 207.513 196.986C208.042 197.995 208.842 198.838 209.822 199.42C210.74 199.88 211.775 200.05 212.792 199.907C213.808 199.764 214.757 199.315 215.512 198.62C216.258 197.876 216.769 196.929 216.981 195.897C217.193 194.866 217.098 193.794 216.706 192.816ZM214.874 197.104C214.424 197.685 213.805 198.111 213.102 198.326C212.4 198.541 211.648 198.533 210.95 198.304C210.19 197.956 209.54 197.406 209.07 196.715C208.6 196.024 208.328 195.217 208.284 194.382C208.261 193.55 208.525 192.736 209.03 192.075C209.536 191.414 210.253 190.947 211.062 190.752C211.086 190.746 211.109 190.738 211.132 190.728C211.901 190.707 212.662 190.884 213.343 191.24C214.025 191.597 214.603 192.122 215.024 192.766C215.421 193.426 215.618 194.187 215.591 194.957C215.565 195.727 215.316 196.473 214.874 197.104Z" fill="black"/>
<path d="M186.846 233.69C186.414 233.044 185.746 232.593 184.986 232.434C184.196 232.309 183.388 232.486 182.724 232.93C182.028 233.41 181.415 233.999 180.908 234.674C180.773 234.817 180.698 235.005 180.698 235.201C180.698 235.397 180.773 235.586 180.908 235.728C181.048 235.866 181.238 235.944 181.435 235.944C181.632 235.944 181.821 235.866 181.962 235.728C182.205 235.421 182.463 235.126 182.736 234.844C182.971 234.586 183.24 234.361 183.536 234.174C183.602 234.134 183.668 234.096 183.736 234.06L183.862 233.998L183.904 233.984C183.974 233.96 184.046 233.936 184.118 233.916C184.185 233.909 184.252 233.897 184.318 233.878H184.696L184.908 233.938L184.948 233.952C184.988 233.972 185.026 233.99 185.062 234.012C185.137 234.052 185.21 234.098 185.278 234.15L185.388 234.248C185.45 234.308 185.51 234.372 185.566 234.438C185.594 234.474 185.618 234.512 185.644 234.55C185.698 234.634 185.742 234.722 185.79 234.81L185.814 234.854L185.828 234.908C185.858 235.002 185.888 235.096 185.91 235.194C185.91 235.194 185.94 235.408 185.932 235.32C185.975 235.676 185.932 236.038 185.808 236.374C185.677 236.744 185.486 237.09 185.244 237.398C185.145 237.569 185.118 237.772 185.168 237.963C185.218 238.154 185.342 238.318 185.512 238.418C185.683 238.513 185.885 238.537 186.074 238.487C186.264 238.438 186.427 238.317 186.53 238.15C187.04 237.532 187.344 236.77 187.401 235.971C187.458 235.171 187.263 234.374 186.846 233.69ZM171.652 244.524C171.509 244.39 171.321 244.316 171.126 244.316C170.93 244.316 170.742 244.39 170.6 244.524C170.461 244.664 170.383 244.854 170.383 245.051C170.383 245.248 170.461 245.438 170.6 245.578L177.026 250.646C177.168 250.78 177.357 250.855 177.553 250.855C177.748 250.855 177.937 250.78 178.08 250.646C178.218 250.506 178.296 250.316 178.296 250.119C178.296 249.922 178.218 249.732 178.08 249.592L171.652 244.524Z" fill="#1D1E1B"/>
<path d="M337.504 148.956C338.764 148.956 339.786 147.48 339.786 145.66C339.786 143.84 338.764 142.364 337.504 142.364C336.244 142.364 335.222 143.84 335.222 145.66C335.222 147.48 336.244 148.956 337.504 148.956Z" fill="#1D1E1B"/>
<path d="M300.478 143.758C301.738 143.758 302.76 142.282 302.76 140.462C302.76 138.642 301.738 137.166 300.478 137.166C299.218 137.166 298.196 138.642 298.196 140.462C298.196 142.282 299.218 143.758 300.478 143.758Z" fill="#1D1E1B"/>
<path d="M308.284 123.132C306.913 122.88 305.504 122.943 304.162 123.317C302.819 123.691 301.58 124.366 300.538 125.29C299.34 126.321 298.331 127.552 297.554 128.928C297.467 129.098 297.448 129.295 297.501 129.478C297.555 129.661 297.676 129.816 297.841 129.913C298.005 130.009 298.201 130.039 298.387 129.995C298.572 129.952 298.734 129.839 298.84 129.68C299.92 127.659 301.623 126.04 303.696 125.062C304.833 124.566 306.078 124.366 307.314 124.48C307.384 124.48 307.662 124.524 307.55 124.506L307.692 124.528C307.758 124.54 307.824 124.552 307.892 124.57C308.079 124.612 308.275 124.58 308.44 124.481C308.604 124.382 308.724 124.224 308.775 124.039C308.825 123.853 308.802 123.656 308.711 123.487C308.619 123.318 308.466 123.191 308.284 123.132ZM337.788 126.718C336.638 125.761 335.272 125.101 333.808 124.794C333.483 124.725 333.153 124.683 332.822 124.668C332.631 124.678 332.451 124.761 332.319 124.9C332.188 125.038 332.114 125.222 332.114 125.413C332.114 125.604 332.188 125.788 332.319 125.927C332.451 126.066 332.631 126.148 332.822 126.158L332.978 126.168L333.134 126.184L333.242 126.2C333.754 126.289 334.255 126.428 334.74 126.616C334.792 126.634 334.842 126.656 334.892 126.676L335.04 126.74C335.21 126.818 335.378 126.902 335.542 126.99C335.906 127.188 336.256 127.412 336.59 127.658C336.64 127.693 336.688 127.731 336.734 127.772C337.001 127.991 337.256 128.224 337.498 128.47C337.837 128.816 338.146 129.19 338.422 129.588C339.225 130.791 339.813 132.124 340.16 133.528C340.213 133.719 340.339 133.881 340.512 133.978C340.684 134.075 340.888 134.1 341.079 134.047C341.269 133.994 341.431 133.868 341.528 133.695C341.626 133.523 341.651 133.319 341.598 133.128C341.033 130.644 339.7 128.401 337.788 126.718ZM366.8 153.018C366.697 152.851 366.533 152.73 366.343 152.68C366.153 152.631 365.951 152.657 365.78 152.752L358.46 156.08L357.412 156.556C357.242 156.657 357.119 156.82 357.069 157.01C357.019 157.201 357.046 157.403 357.144 157.574C357.247 157.741 357.41 157.863 357.6 157.912C357.79 157.962 357.992 157.937 358.164 157.842L365.484 154.514L366.532 154.038C366.701 153.937 366.824 153.774 366.874 153.583C366.925 153.392 366.898 153.189 366.8 153.018ZM249.354 145.462C248.379 149.081 247.901 152.816 247.934 156.564C247.944 156.755 248.026 156.935 248.165 157.067C248.304 157.198 248.487 157.272 248.679 157.272C248.87 157.272 249.054 157.198 249.192 157.067C249.331 156.935 249.414 156.755 249.424 156.564C249.39 152.95 249.85 149.348 250.792 145.858C250.839 145.669 250.81 145.47 250.712 145.302C250.613 145.134 250.453 145.011 250.266 144.959C250.078 144.907 249.878 144.931 249.707 145.025C249.537 145.119 249.41 145.276 249.354 145.462Z" fill="#1D1E1B"/>
<path d="M77.7182 282.686C76.9704 281.564 75.9319 280.665 74.7136 280.086C73.4953 279.508 72.1427 279.271 70.8002 279.4C67.8789 279.622 65.1124 280.802 62.93 282.756C60.7476 284.711 59.2713 287.331 58.7302 290.21C58.5133 291.645 58.5969 293.109 58.9756 294.51C59.3543 295.911 60.0199 297.218 60.9302 298.348C61.8927 299.626 63.1549 300.648 64.6054 301.324C66.0559 301.999 67.6503 302.308 69.2482 302.222C70.1942 302.138 70.2042 300.646 69.2482 300.732C68.0133 300.763 66.7855 300.537 65.6422 300.069C64.4989 299.602 63.4649 298.902 62.6052 298.015C61.7456 297.128 61.0791 296.073 60.6476 294.915C60.2161 293.758 60.029 292.524 60.0982 291.29C60.3739 288.775 61.4536 286.415 63.1769 284.562C64.9002 282.708 67.1752 281.46 69.6642 281.002C70.9051 280.687 72.2119 280.75 73.4167 281.183C74.6215 281.616 75.6695 282.399 76.4262 283.432C76.5263 283.601 76.689 283.724 76.879 283.774C77.069 283.823 77.2709 283.796 77.441 283.698C77.6111 283.6 77.7355 283.438 77.7874 283.249C77.8393 283.06 77.8144 282.857 77.7182 282.686ZM93.8002 293.762C93.0448 292.864 92.0924 292.152 91.0172 291.681C89.9419 291.21 88.7727 290.994 87.6002 291.048C85.1369 291.179 82.8186 292.254 81.1262 294.048C79.2585 295.917 78.028 298.327 77.6102 300.936C77.455 302.131 77.5635 303.346 77.928 304.495C78.2925 305.644 78.9043 306.699 79.7202 307.586C80.5832 308.58 81.6638 309.361 82.8779 309.869C84.0919 310.376 85.4068 310.597 86.7202 310.514C87.6682 310.428 87.6762 308.938 86.7202 309.024C85.7508 309.085 84.779 308.952 83.8623 308.631C82.9455 308.31 82.1026 307.808 81.3833 307.155C80.664 306.502 80.083 305.712 79.6746 304.831C79.2663 303.949 79.039 302.995 79.0062 302.024C79.1435 299.661 80.0825 297.414 81.6682 295.656C82.9657 294.058 84.7938 292.977 86.8202 292.612C87.9142 292.434 89.0357 292.545 90.0738 292.933C91.1118 293.322 92.0303 293.975 92.7382 294.828C93.3342 295.568 94.3822 294.508 93.8002 293.762ZM111.644 303.336C110.896 302.215 109.858 301.318 108.64 300.74C107.422 300.162 106.07 299.926 104.728 300.056C101.807 300.278 99.0404 301.458 96.858 303.412C94.6756 305.367 93.1993 307.987 92.6582 310.866C92.4415 312.301 92.5251 313.765 92.9038 315.166C93.2825 316.567 93.948 317.874 94.8582 319.004C95.8199 320.283 97.0817 321.305 98.532 321.98C99.9824 322.655 101.577 322.963 103.174 322.876C104.122 322.792 104.13 321.302 103.174 321.388C101.939 321.418 100.712 321.192 99.5688 320.725C98.4258 320.257 97.392 319.557 96.5326 318.67C95.6732 317.783 95.0068 316.728 94.5754 315.571C94.144 314.413 93.957 313.179 94.0262 311.946C94.3019 309.43 95.3815 307.07 97.1047 305.217C98.828 303.363 101.103 302.114 103.592 301.656C104.833 301.342 106.14 301.405 107.345 301.839C108.55 302.272 109.598 303.055 110.354 304.088C110.454 304.259 110.617 304.384 110.809 304.434C111 304.485 111.204 304.457 111.375 304.357C111.546 304.257 111.671 304.094 111.721 303.902C111.772 303.711 111.744 303.507 111.644 303.336ZM127.72 314.412C126.965 313.514 126.012 312.802 124.937 312.331C123.862 311.86 122.693 311.644 121.52 311.698C119.056 311.829 116.737 312.903 115.044 314.698C113.177 316.567 111.947 318.977 111.53 321.586C111.375 322.781 111.483 323.995 111.848 325.144C112.212 326.292 112.823 327.347 113.638 328.234C114.501 329.228 115.582 330.009 116.796 330.517C118.01 331.026 119.325 331.247 120.638 331.164C121.584 331.078 121.594 329.588 120.638 329.674C119.669 329.735 118.697 329.602 117.78 329.281C116.864 328.959 116.021 328.458 115.301 327.805C114.582 327.152 114.001 326.362 113.593 325.481C113.184 324.599 112.957 323.645 112.924 322.674C113.061 320.311 114 318.065 115.586 316.308C116.884 314.709 118.712 313.629 120.738 313.264C121.832 313.086 122.953 313.197 123.991 313.585C125.029 313.974 125.947 314.627 126.654 315.48C127.26 316.218 128.308 315.156 127.72 314.412Z" fill="black"/>
</svg>
