<svg width="416" height="416" viewBox="0 0 416 416" fill="none" xmlns="http://www.w3.org/2000/svg">
<path d="M109.824 183.109C109.666 183.132 109.505 183.114 109.357 183.058C109.208 183.001 109.077 182.907 108.975 182.784C108.873 182.661 108.805 182.515 108.777 182.358C108.748 182.201 108.761 182.04 108.813 181.89C109.408 178.37 127.296 98.9767 127.857 96.4766H95.3782C95.2201 96.6846 99.8835 91.6218 15.5977 182.649C15.4625 183.909 13.2245 205.204 12.2344 214.598C12.9125 214.525 13.6509 214.546 14.2665 214.494C16.2654 214.317 82.0267 208.518 84.4541 208.308C84.5888 208.31 84.7212 208.343 84.8414 208.404C84.9615 208.465 85.0662 208.552 85.1474 208.66C85.2286 208.767 85.2843 208.892 85.3101 209.024C85.3359 209.156 85.3313 209.292 85.2964 209.423C85.232 209.587 83.3163 217.597 63.9598 293.055C64.875 292.941 72.2382 291.982 74.9984 291.628C74.9672 290.742 74.9464 289.869 74.9048 288.983C74.8632 287.847 76.6125 287.857 76.6645 288.983C76.6957 289.786 76.7165 290.597 76.7477 291.4C79.3622 291.054 81.9851 290.722 84.6101 290.378L84.6413 288.379C84.6413 288.146 84.7339 287.922 84.899 287.757C85.064 287.592 85.2878 287.5 85.5211 287.5C85.7544 287.5 85.9782 287.592 86.1432 287.757C86.3082 287.922 86.4009 288.146 86.4009 288.379C86.3905 288.972 86.3905 289.557 86.3801 290.15L93.5977 289.211C93.6123 289.003 104.056 207.041 104.083 206.829C104.084 206.637 104.148 206.451 104.265 206.299C104.382 206.147 104.545 206.037 104.73 205.986C105.926 205.789 124.723 202.727 132.928 201.383C133.074 200.743 136.238 185.991 137.771 178.641C137.563 178.672 110.032 183.109 109.824 183.109ZM79.3705 187.616C74.78 188.313 40.1542 193.602 38.8105 193.81V181.723C40.7678 179.724 97.6579 121.761 97.6579 121.761C97.5892 121.971 79.8157 185.792 79.3705 187.616ZM368.079 183.109C367.921 183.132 367.76 183.114 367.612 183.058C367.463 183.001 367.331 182.907 367.23 182.784C367.128 182.661 367.06 182.515 367.031 182.358C367.003 182.201 367.016 182.04 367.068 181.89C367.663 178.37 385.553 98.9767 386.114 96.4766H353.635C353.479 96.6846 358.14 91.6218 273.857 182.649C273.722 183.909 271.481 205.204 270.493 214.598C271.169 214.525 271.908 214.546 272.523 214.494C274.522 214.317 340.286 208.518 342.711 208.308C342.846 208.309 342.979 208.342 343.099 208.403C343.219 208.464 343.324 208.551 343.405 208.659C343.487 208.766 343.542 208.891 343.568 209.024C343.594 209.156 343.589 209.292 343.553 209.423C343.491 209.591 341.311 218.616 322.217 293.055C323.134 292.941 330.495 291.982 333.255 291.628C333.224 290.742 333.203 289.869 333.162 288.983C333.12 287.847 334.869 287.857 334.921 288.983C334.953 289.786 334.973 290.597 335.005 291.4C337.619 291.054 340.244 290.722 342.867 290.378C342.867 289.711 342.89 289.045 342.898 288.379C342.909 288.153 343.007 287.94 343.171 287.784C343.335 287.627 343.553 287.54 343.779 287.54C344.006 287.54 344.223 287.627 344.387 287.784C344.551 287.94 344.649 288.153 344.66 288.379C344.647 288.972 344.647 289.557 344.637 290.15L351.855 289.211C351.869 289.003 362.313 207.039 362.34 206.829C362.341 206.637 362.405 206.451 362.522 206.299C362.639 206.147 362.802 206.037 362.987 205.986C364.185 205.789 382.982 202.727 391.185 201.383C391.329 200.759 394.48 186.066 396.03 178.641C395.824 178.672 368.289 183.109 368.079 183.109ZM337.63 187.616C333.037 188.313 298.411 193.602 297.057 193.81V181.723L355.904 121.761C355.846 121.973 338.079 185.769 337.63 187.616Z" fill="#AC47F5"/>
<path d="M253.136 128.165C249.856 118.034 245.211 107.942 237.182 100.955C233.349 97.655 228.89 95.1622 224.071 93.6254C219.252 92.0886 214.173 91.5395 209.138 92.0109C175.521 95.2765 157.732 140.29 152.019 173.339C146.353 206.07 143.459 250.266 175.294 271.29C185.654 278.131 199.276 280.548 210.814 275.966C220.426 272.155 227.695 264.085 233.673 255.638C246.438 237.288 254.829 216.258 258.203 194.161C261.576 172.064 259.843 149.488 253.136 128.165ZM216.257 236.436C212.466 242.341 207.958 247.921 202.346 250.328C195.597 253.211 188.028 250.952 182.507 245.569C165.566 229.075 169.376 197.084 174.187 173.518C178.216 153.758 188.922 121.98 206.887 117.2C210.387 116.323 214.069 116.522 217.454 117.771C220.839 119.019 223.769 121.259 225.861 124.199C238.355 140.271 242.203 196.04 216.257 236.436Z" fill="#FFD35C"/>
<path d="M138.709 176.715C129.404 178.191 120.101 179.68 110.799 181.18L129.836 95.8005C129.87 95.6704 129.874 95.5342 129.848 95.4021C129.822 95.2701 129.767 95.1456 129.686 95.0382C129.604 94.9309 129.5 94.8433 129.38 94.7822C129.26 94.7212 129.128 94.6881 128.993 94.6857H95.4095C94.2551 94.7148 94.2884 95.0684 92.4101 97.1026C9.01254 187.246 14.0191 181.42 13.8901 182.524C13.5989 185.211 10.454 215.089 10.3999 215.619C10.3996 215.734 10.4221 215.848 10.466 215.954C10.5099 216.061 10.5744 216.157 10.6558 216.239C10.7371 216.32 10.8338 216.385 10.9402 216.429C11.0465 216.472 11.1605 216.495 11.2756 216.495C25.0993 215.307 76.3421 210.689 83.306 210.226C71.4146 256.383 62.0525 293.633 61.9693 293.842C61.8445 294.332 62.2293 295.029 62.8117 294.956L75.0692 293.361C75.4596 307.159 74.8786 320.968 73.3303 334.684C69.2459 334.439 65.1541 335.024 61.3017 336.402C60.2617 336.777 60.6985 338.482 61.7717 338.1C65.72 336.678 69.9292 336.127 74.1103 336.486C74.3417 336.483 74.5629 336.39 74.7265 336.226C74.8902 336.063 74.9833 335.841 74.986 335.61C76.6192 321.514 77.2282 307.318 76.8081 293.134C79.4018 292.801 81.9935 292.456 84.5873 292.123C84.3882 305.951 84.9826 319.779 86.3677 333.538C86.7567 336.203 88.6557 336.604 95.189 339.839C96.1978 340.338 97.0943 338.817 96.073 338.318C88.585 334.624 88.3125 334.838 88.0754 333.174C86.7209 319.448 86.1438 305.655 86.3469 291.863C87.7322 291.687 93.1153 290.988 94.4173 290.811C94.6466 290.803 94.8643 290.708 95.0267 290.546C95.1891 290.384 95.2842 290.167 95.293 289.937C95.318 289.729 105.764 207.742 105.778 207.534C113.953 206.201 132.677 203.139 133.875 202.941C134.686 202.821 134.108 203.832 139.759 177.73C139.938 177.089 139.374 176.609 138.709 176.715ZM132.929 201.383C124.723 202.727 105.926 205.789 104.73 205.986C104.545 206.037 104.382 206.147 104.265 206.299C104.148 206.451 104.084 206.637 104.083 206.829C104.056 207.037 93.6124 289.001 93.5978 289.211L86.3802 290.149C86.3802 289.557 86.3802 288.972 86.401 288.379C86.401 288.146 86.3083 287.922 86.1433 287.757C85.9783 287.592 85.7545 287.5 85.5212 287.5C85.2878 287.5 85.064 287.592 84.899 287.757C84.734 287.922 84.6413 288.146 84.6413 288.379L84.6101 290.378C81.9852 290.721 79.3623 291.054 76.7477 291.4C76.7165 290.597 76.6957 289.786 76.6646 288.983C76.6125 287.857 74.8633 287.847 74.9049 288.983C74.9465 289.869 74.9673 290.742 74.9985 291.628C72.2383 291.982 64.8772 292.941 63.9599 293.055C83.3164 217.597 85.2321 209.587 85.2965 209.423C85.3313 209.292 85.336 209.156 85.3102 209.024C85.2844 208.892 85.2287 208.767 85.1475 208.66C85.0663 208.552 84.9616 208.465 84.8415 208.404C84.7213 208.343 84.5889 208.31 84.4541 208.308C82.0268 208.516 16.2655 214.317 14.2666 214.494C13.6426 214.546 12.9125 214.525 12.2345 214.598C13.2245 205.204 15.4626 183.909 15.5978 182.649C99.8836 91.6218 95.2223 96.6845 95.3783 96.4765H127.857C127.296 98.9725 109.406 178.37 108.811 181.89C108.759 182.04 108.746 182.201 108.775 182.358C108.803 182.515 108.871 182.661 108.973 182.784C109.075 182.906 109.206 183.001 109.355 183.058C109.504 183.114 109.664 183.132 109.822 183.109H109.853C118.402 181.744 137.012 178.766 137.771 178.641C136.179 186.226 134.565 193.807 132.929 201.383Z" fill="white"/>
<path d="M98.7833 118.086C98.0595 118.82 40.7056 177.276 38.9147 179.088C38.2387 179.776 37.0614 180.577 37.0427 181.619C36.9928 184.739 37.0427 195.039 37.0427 194.823C37.046 194.957 37.0796 195.089 37.1409 195.209C37.2022 195.328 37.2897 195.433 37.3968 195.514C37.5039 195.595 37.6279 195.651 37.7596 195.678C37.8913 195.704 38.0274 195.701 38.1576 195.668C42.9166 194.938 78.5928 189.492 80.3213 189.232C80.4922 189.217 80.6517 189.14 80.7692 189.015C80.8866 188.89 80.9538 188.726 80.9577 188.554C81.5817 186.254 100.254 118.959 100.264 118.918C100.306 118.731 100.287 118.537 100.21 118.362C100.132 118.188 100.001 118.043 99.8341 117.949C99.6677 117.856 99.4754 117.819 99.2861 117.843C99.0968 117.868 98.9204 117.953 98.7833 118.086ZM79.3707 187.616C74.7801 188.313 40.1544 193.602 38.8107 193.81V181.723C40.768 179.724 97.6581 121.761 97.6581 121.761C97.5894 121.971 79.8158 185.792 79.3707 187.616ZM396.958 176.715C388.402 178.054 369.797 181.056 369.048 181.18C369.589 178.745 388.072 95.8525 388.082 95.8005C388.117 95.6704 388.122 95.534 388.096 95.4018C388.07 95.2696 388.014 95.145 387.933 95.0375C387.852 94.93 387.747 94.8424 387.627 94.7815C387.507 94.7205 387.375 94.6877 387.24 94.6857H353.656C352.502 94.7148 352.541 95.0601 350.657 97.1026C267.095 187.356 272.259 181.463 272.139 182.524C271.846 185.211 268.701 215.089 268.651 215.619C268.65 215.734 268.673 215.848 268.717 215.954C268.76 216.06 268.825 216.157 268.906 216.238C268.987 216.319 269.083 216.384 269.189 216.428C269.296 216.472 269.409 216.495 269.524 216.495C283.406 215.303 334.562 210.691 341.555 210.226C329.378 257.487 320.305 293.633 320.218 293.842C320.093 294.332 320.478 295.029 321.062 294.956L333.335 293.361C333.725 307.159 333.144 320.968 331.596 334.684C327.511 334.439 323.419 335.024 319.567 336.402C318.527 336.777 318.964 338.482 320.037 338.1C323.985 336.678 328.195 336.127 332.376 336.486C332.607 336.483 332.828 336.39 332.992 336.226C333.155 336.063 333.249 335.841 333.251 335.61C334.886 321.514 335.495 307.318 335.073 293.134C337.667 292.801 340.259 292.456 342.853 292.123C342.653 305.951 343.248 319.779 344.635 333.538C345.022 336.205 346.913 336.604 353.454 339.839C354.463 340.338 355.36 338.817 354.338 338.318C346.85 334.624 346.58 334.838 346.341 333.174C344.987 319.448 344.41 305.655 344.612 291.863C345.998 291.687 351.381 290.988 352.683 290.811C352.912 290.803 353.13 290.709 353.293 290.547C353.455 290.384 353.55 290.167 353.558 289.937C353.585 289.729 364.029 207.752 364.044 207.534C372.22 206.201 390.942 203.139 392.14 202.941C392.949 202.821 392.388 203.773 398.025 177.73C398.195 177.089 397.631 176.609 396.958 176.715ZM391.186 201.383C382.982 202.727 364.185 205.789 362.987 205.986C362.802 206.037 362.639 206.147 362.522 206.299C362.405 206.451 362.341 206.637 362.34 206.829C362.313 207.037 351.869 289.003 351.855 289.211L344.637 290.149C344.637 289.557 344.637 288.972 344.66 288.379C344.649 288.153 344.551 287.94 344.388 287.784C344.224 287.627 344.006 287.54 343.779 287.54C343.553 287.54 343.335 287.627 343.171 287.784C343.007 287.94 342.909 288.153 342.898 288.379L342.867 290.378C340.244 290.721 337.619 291.054 335.005 291.4C334.974 290.597 334.953 289.786 334.922 288.983C334.87 287.857 333.12 287.847 333.162 288.983C333.203 289.869 333.224 290.742 333.255 291.628C330.495 291.982 323.134 292.941 322.217 293.055C341.311 218.616 343.491 209.591 343.554 209.423C343.588 209.292 343.593 209.156 343.567 209.024C343.541 208.892 343.486 208.767 343.405 208.66C343.323 208.552 343.219 208.465 343.098 208.404C342.978 208.343 342.846 208.31 342.711 208.308C340.286 208.516 274.523 214.317 272.524 214.494C271.9 214.546 271.17 214.525 270.494 214.598C271.482 205.204 273.722 183.909 273.857 182.649C358.141 91.6218 353.479 96.6845 353.635 96.4765H386.115C385.553 98.9725 367.663 178.37 367.068 181.89C367.016 182.04 367.003 182.201 367.032 182.358C367.06 182.515 367.128 182.661 367.23 182.784C367.332 182.906 367.463 183.001 367.612 183.058C367.76 183.114 367.921 183.132 368.079 183.109H368.11C376.659 181.744 395.269 178.766 396.03 178.641C394.478 186.066 391.329 200.751 391.186 201.383Z" fill="white"/>
<path d="M357.04 118.086C356.316 118.82 298.963 177.276 297.172 179.088C296.496 179.776 295.318 180.577 295.3 181.619C295.25 184.739 295.3 195.039 295.3 194.823C295.303 194.957 295.337 195.089 295.398 195.209C295.459 195.328 295.547 195.433 295.654 195.514C295.761 195.595 295.885 195.651 296.017 195.678C296.148 195.704 296.284 195.701 296.415 195.668C301.174 194.938 336.85 189.492 338.58 189.232C338.751 189.217 338.91 189.14 339.027 189.015C339.145 188.889 339.211 188.725 339.215 188.554C339.849 186.254 358.511 118.959 358.521 118.918C358.563 118.731 358.544 118.537 358.467 118.362C358.389 118.188 358.258 118.043 358.091 117.949C357.925 117.856 357.732 117.819 357.543 117.843C357.354 117.868 357.177 117.953 357.04 118.086ZM337.63 187.616C333.037 188.313 298.411 193.602 297.057 193.81V181.723L355.905 121.761C355.846 121.973 338.079 185.769 337.63 187.616ZM107.384 103.131C104.42 101.608 101.506 105.71 104.51 109.483C104.926 110.066 105.55 110.467 106.253 110.605C106.956 110.742 107.685 110.606 108.291 110.223C108.729 109.711 109.054 109.113 109.247 108.468C109.439 107.823 109.495 107.144 109.409 106.476C109.324 105.808 109.1 105.165 108.751 104.589C108.402 104.013 107.937 103.516 107.384 103.131ZM369.308 108.672C369.246 108.897 369.276 109.137 369.391 109.34C369.507 109.543 369.698 109.692 369.923 109.754C370.148 109.816 370.388 109.786 370.591 109.671C370.794 109.556 370.943 109.365 371.005 109.14C371.389 107.899 371.37 106.569 370.951 105.34C370.533 104.111 369.735 103.046 368.674 102.299C364.751 99.4219 359.21 103.214 359.676 107.723C359.687 107.948 359.784 108.16 359.946 108.315C360.109 108.47 360.325 108.556 360.55 108.556C360.775 108.556 360.991 108.47 361.154 108.315C361.317 108.16 361.414 107.948 361.425 107.723C361.373 107.078 361.468 106.429 361.702 105.825C361.937 105.221 362.304 104.678 362.778 104.237C363.252 103.795 363.819 103.466 364.438 103.275C365.056 103.083 365.71 103.034 366.35 103.131C366.915 103.289 367.442 103.56 367.9 103.928C368.357 104.296 368.735 104.752 369.012 105.27C369.288 105.788 369.457 106.356 369.508 106.94C369.559 107.525 369.491 108.114 369.308 108.672ZM199.066 269.749C199.033 268.624 197.276 268.613 197.307 269.749C197.964 290.961 197.429 312.193 195.703 333.345C191.483 333.041 187.261 333.891 183.487 335.803C182.476 336.303 183.362 337.823 184.371 337.324C188.119 335.439 192.336 334.689 196.504 335.167C197.003 335.231 197.348 334.72 197.38 334.291C199.172 312.827 199.735 291.278 199.066 269.749ZM222.83 335.209C220.676 333.827 216.116 335.021 213.352 334.543C212.674 334.41 212.05 334.084 211.553 333.605C211.166 333.182 210.868 332.686 210.676 332.145C210.485 331.605 210.404 331.032 210.438 330.46C209.002 309.982 208.453 289.451 208.792 268.925C208.792 268.692 208.7 268.468 208.535 268.303C208.37 268.138 208.146 268.045 207.913 268.045C207.679 268.045 207.456 268.138 207.291 268.303C207.126 268.468 207.033 268.692 207.033 268.925C206.75 286.397 207.093 303.857 208.096 321.191C208.72 331.937 208.786 332.407 209.281 333.463C209.781 334.394 210.531 335.166 211.447 335.691C214.049 337.324 219.997 335.483 221.944 336.731C222.901 337.334 223.781 335.818 222.83 335.209ZM238.534 120.939C240.084 122.177 240.585 124.136 241.711 125.699C242.196 126.504 242.897 127.158 243.734 127.586C244.571 128.015 245.512 128.201 246.449 128.124C250.989 127.246 248.489 121.358 256.144 99.9648C256.424 99.1848 256.736 98.0075 257.745 98.7271C258.577 99.3096 258.746 100.539 259.122 101.402C259.579 102.336 260.268 103.138 261.123 103.731C261.977 104.325 262.969 104.689 264.005 104.79C265.04 104.892 266.084 104.727 267.037 104.31C267.991 103.894 268.822 103.241 269.452 102.413C270.107 101.485 268.578 100.612 267.931 101.527C267.515 102.015 266.999 102.407 266.417 102.676C265.836 102.946 265.203 103.086 264.562 103.088C263.921 103.09 263.287 102.953 262.704 102.688C262.121 102.422 261.602 102.033 261.184 101.548C260.089 100.11 260.214 98.0907 258.455 97.1131C258.102 96.8975 257.702 96.7716 257.29 96.7462C256.878 96.7208 256.466 96.7968 256.09 96.9675C255.298 97.4938 254.742 98.3077 254.54 99.2367C247 119.993 249.026 126.772 245.615 126.437C242.74 126.127 242.12 121.572 239.791 119.71C238.898 119.001 237.648 120.224 238.534 120.939ZM179.801 121.075C179.308 122.215 178.617 123.259 177.759 124.157C177.114 124.823 175.937 126.063 174.895 125.979C174.15 125.925 174.046 125.127 173.376 122.689C172.979 121.283 168.867 106.86 167.211 101.057C167.17 100.909 167.09 100.775 166.981 100.667C166.871 100.56 166.736 100.483 166.587 100.444C166.439 100.405 166.283 100.405 166.135 100.445C165.986 100.485 165.851 100.564 165.743 100.672C164.509 101.994 162.82 102.797 161.016 102.921C159.213 103.045 157.429 102.479 156.027 101.338C154.937 100.235 154.105 98.9056 153.589 97.4438C153.132 96.4038 151.622 97.3086 152.069 98.3278C152.673 100.014 153.671 101.532 154.981 102.754C156.536 103.967 158.446 104.638 160.418 104.664C162.391 104.691 164.318 104.071 165.905 102.9C172.659 126.541 172.299 126.547 173.622 127.373C174.074 127.608 174.578 127.725 175.087 127.712C175.597 127.699 176.095 127.557 176.534 127.298C178.683 126.105 180.364 124.218 181.303 121.946C181.78 120.937 180.261 120.043 179.801 121.075ZM208.262 81.1886C209.004 80.8853 209.82 80.8147 210.603 80.9859C211.385 81.1571 212.097 81.5622 212.645 82.1475C213.953 83.5837 214.915 85.3007 215.457 87.1665C215.852 88.219 217.549 87.7593 217.154 86.6985C215.946 83.4808 214.242 79.6785 210.386 79.1481C208.993 79.0603 207.615 79.4757 206.502 80.3186C205.39 81.1616 204.617 82.376 204.325 83.7408C203.842 85.2776 203.559 86.87 203.482 88.479C203.407 89.6043 205.159 89.6043 205.242 88.479C205.398 86.0724 205.816 82.4324 208.262 81.1886ZM57.3893 318.579C57.6215 318.579 57.8443 318.487 58.0085 318.322C58.1727 318.158 58.265 317.936 58.265 317.703C58.265 317.471 58.1727 317.248 58.0085 317.084C57.8443 316.92 57.6215 316.828 57.3893 316.828H54.4003C54.1681 316.828 53.9454 316.92 53.7811 317.084C53.6169 317.248 53.5247 317.471 53.5247 317.703C53.5247 317.936 53.6169 318.158 53.7811 318.322C53.9454 318.487 54.1681 318.579 54.4003 318.579H57.3893ZM255.341 325.077C245.392 325.761 235.421 326.023 225.443 325.753C225.217 325.764 225.003 325.861 224.847 326.025C224.691 326.189 224.604 326.407 224.604 326.634C224.604 326.86 224.691 327.078 224.847 327.242C225.003 327.406 225.217 327.504 225.443 327.515C235.414 327.793 245.393 327.567 255.341 326.837C256.464 326.753 256.476 325 255.341 325.077ZM269.701 332.846L251.175 333.678C250.051 333.73 250.041 335.489 251.175 335.437C257.349 335.167 263.525 334.89 269.701 334.605C270.826 334.553 270.826 332.8 269.701 332.846ZM387.063 329.982H362.544C362.311 329.982 362.087 330.074 361.922 330.239C361.757 330.404 361.664 330.628 361.664 330.861C361.664 331.095 361.757 331.319 361.922 331.484C362.087 331.649 362.311 331.741 362.544 331.741H387.067C387.301 331.741 387.524 331.647 387.689 331.482C387.853 331.317 387.945 331.093 387.945 330.859C387.944 330.626 387.851 330.402 387.686 330.238C387.52 330.073 387.296 329.981 387.063 329.982ZM78.9547 71.2753C79.1858 71.2726 79.4066 71.1798 79.5702 71.0166C79.7338 70.8534 79.8272 70.6328 79.8304 70.4017C79.8711 69.2099 80.3491 68.0748 81.1731 67.2128C81.9971 66.3509 83.1095 65.8223 84.2983 65.728C84.5228 65.717 84.7346 65.6201 84.8897 65.4572C85.0448 65.2944 85.1313 65.0782 85.1313 64.8533C85.1313 64.6285 85.0448 64.4122 84.8897 64.2494C84.7346 64.0866 84.5228 63.9896 84.2983 63.9787C78.6843 64.168 76.752 71.3731 78.9547 71.2753ZM130.722 63.4129C131.938 63.5993 133.078 64.1224 134.013 64.923C134.948 65.7236 135.64 66.7697 136.011 67.9432C136.042 68.0546 136.094 68.1589 136.165 68.2501C136.236 68.3413 136.325 68.4176 136.425 68.4747C136.526 68.5318 136.637 68.5685 136.751 68.5827C136.866 68.597 136.982 68.5885 137.094 68.5578C137.205 68.5271 137.31 68.4747 137.401 68.4036C137.492 68.3326 137.568 68.2443 137.625 68.1438C137.682 68.0432 137.719 67.9324 137.733 67.8177C137.748 67.703 137.739 67.5866 137.708 67.4752C137.256 66.0097 136.41 64.6967 135.262 63.6792C134.114 62.6618 132.709 61.979 131.2 61.7052C131.088 61.6738 130.971 61.6648 130.855 61.6787C130.74 61.6926 130.628 61.7291 130.526 61.7862C130.425 61.8433 130.336 61.9198 130.264 62.0113C130.192 62.1029 130.139 62.2077 130.107 62.3199C130.076 62.432 130.067 62.5492 130.081 62.6648C130.094 62.7804 130.131 62.8922 130.188 62.9937C130.245 63.0952 130.322 63.1845 130.413 63.2564C130.505 63.3283 130.61 63.3815 130.722 63.4129ZM343.294 76.8996L344.958 75.8596C344.522 77.0713 344.416 78.3767 344.649 79.6429C344.881 80.9092 345.445 82.0912 346.283 83.0687C347.121 84.0463 348.203 84.7845 349.419 85.2083C350.634 85.6322 351.941 85.7265 353.205 85.4817C354.923 85.1526 356.467 84.2179 357.554 82.8476C358.642 81.4773 359.203 79.7621 359.133 78.0138C359.064 76.2656 358.37 74.6001 357.177 73.3201C355.984 72.0401 354.372 71.2304 352.633 71.0382C353.382 70.3934 352.56 69.0497 351.643 69.6217L342.418 75.3708C341.451 75.9824 342.326 77.5028 343.294 76.8996ZM357.373 78.2953C357.372 79.4391 357.019 80.5548 356.362 81.4907C355.704 82.4266 354.774 83.1373 353.699 83.526C352.623 83.9147 351.454 83.9626 350.35 83.6632C349.246 83.3638 348.261 82.7316 347.529 81.8527C346.798 80.9737 346.354 79.8906 346.26 78.7508C346.166 77.6109 346.425 76.4696 347.002 75.4822C347.579 74.4948 348.446 73.7092 349.486 73.2322C350.525 72.7553 351.687 72.6102 352.812 72.8166C354.093 73.0525 355.25 73.7297 356.084 74.7307C356.917 75.7316 357.373 76.9929 357.373 78.2953ZM93.184 87.8342C94.3371 87.614 95.4202 87.1196 96.342 86.3927C97.2638 85.6659 97.9972 84.7279 98.4803 83.658C98.9634 82.5881 99.182 81.4177 99.1177 80.2456C99.0533 79.0734 98.7079 77.934 98.1106 76.9234C97.5133 75.9128 96.6816 75.0608 95.6858 74.4392C94.69 73.8176 93.5592 73.4448 92.389 73.3521C91.2187 73.2594 90.0434 73.4496 88.9621 73.9067C87.8809 74.3638 86.9254 75.0742 86.1765 75.9782C85.2576 77.149 84.7136 78.5699 84.6157 80.055C84.5178 81.5401 84.8706 83.0201 85.6279 84.3014C86.3852 85.5826 87.5116 86.6054 88.8599 87.2357C90.2081 87.8661 91.7153 88.0747 93.184 87.8342ZM92.7992 75.1608C94.0744 75.4077 95.2251 76.0878 96.0563 77.0859C96.8876 78.0839 97.3484 79.3386 97.3607 80.6374C97.3602 81.7812 97.0075 82.8972 96.3503 83.8334C95.6931 84.7696 94.7634 85.4806 93.6878 85.8696C92.6122 86.2587 91.4428 86.3069 90.3388 86.0077C89.2347 85.7086 88.2497 85.0765 87.5177 84.1976C86.7856 83.3187 86.3421 82.2356 86.2476 81.0957C86.153 79.9558 86.4119 78.8144 86.989 77.8268C87.5662 76.8393 88.4336 76.0536 89.4732 75.5765C90.5128 75.0995 91.6742 74.9543 92.7992 75.1608ZM131.824 87.8238C132.977 87.6036 134.06 87.1092 134.982 86.3823C135.904 85.6555 136.637 84.7175 137.12 83.6476C137.604 82.5777 137.822 81.4073 137.758 80.2352C137.693 79.063 137.348 77.9236 136.751 76.913C136.153 75.9024 135.322 75.0504 134.326 74.4288C133.33 73.8072 132.199 73.4344 131.029 73.3417C129.859 73.249 128.684 73.4392 127.602 73.8963C126.521 74.3533 125.566 75.0638 124.817 75.9678C123.899 77.1388 123.356 78.5596 123.259 80.0442C123.161 81.5288 123.514 83.0083 124.271 84.2891C125.028 85.5699 126.154 86.5925 127.502 87.2232C128.849 87.8538 130.356 88.0631 131.824 87.8238ZM131.45 75.1608C132.725 75.4077 133.876 76.0878 134.707 77.0859C135.538 78.0839 135.999 79.3386 136.011 80.6374C136.011 81.7815 135.657 82.8975 135 83.8337C134.342 84.7699 133.412 85.4806 132.336 85.8693C131.26 86.258 130.09 86.3056 128.986 86.0058C127.882 85.7059 126.897 85.0732 126.166 84.1936C125.434 83.314 124.991 82.2304 124.898 81.0902C124.804 79.9499 125.064 78.8085 125.642 77.8213C126.22 76.8341 127.089 76.0491 128.129 75.573C129.169 75.0969 130.331 74.953 131.456 75.1608H131.45Z" fill="white"/>
<path d="M92.379 83.8676C93.8345 83.8676 95.0144 82.6878 95.0144 81.2323C95.0144 79.7768 93.8345 78.5969 92.379 78.5969C90.9235 78.5969 89.7437 79.7768 89.7437 81.2323C89.7437 82.6878 90.9235 83.8676 92.379 83.8676Z" fill="white"/>
<path d="M130.449 83.8676C131.905 83.8676 133.084 82.6878 133.084 81.2323C133.084 79.7768 131.905 78.5969 130.449 78.5969C128.994 78.5969 127.814 79.7768 127.814 81.2323C127.814 82.6878 128.994 83.8676 130.449 83.8676Z" fill="white"/>
<path d="M349.178 78.8881C349.178 79.4094 349.332 79.9191 349.622 80.3525C349.912 80.7859 350.323 81.1237 350.805 81.3231C351.287 81.5225 351.817 81.5746 352.328 81.4727C352.839 81.3709 353.309 81.1197 353.677 80.7509C354.046 80.3821 354.297 79.9123 354.398 79.401C354.5 78.8896 354.447 78.3597 354.247 77.8782C354.047 77.3967 353.709 76.9852 353.276 76.6959C352.842 76.4066 352.332 76.2524 351.811 76.2528C351.465 76.2525 351.122 76.3205 350.803 76.4529C350.483 76.5852 350.192 76.7794 349.948 77.0242C349.703 77.269 349.509 77.5596 349.377 77.8795C349.245 78.1993 349.177 78.5421 349.178 78.8881ZM385.99 88.4166C387.142 88.1924 388.224 87.6932 389.142 86.9616C390.061 86.2299 390.789 85.2874 391.266 84.214C391.742 83.1407 391.952 81.9682 391.879 80.7962C391.805 79.6242 391.449 78.4873 390.842 77.4821C391.423 77.7296 392.252 78.2537 392.714 77.4821C392.772 77.3828 392.81 77.273 392.826 77.1591C392.842 77.0451 392.835 76.9292 392.805 76.818C392.776 76.7067 392.725 76.6023 392.656 76.5107C392.586 76.419 392.499 76.342 392.4 76.284C388.87 74.7974 385.462 73.0357 382.208 71.0153C381.239 70.4225 380.365 71.943 381.322 72.5358C382.135 73.035 382.947 73.5259 383.77 73.9918C382.559 74.1349 381.402 74.578 380.405 75.2809C379.408 75.9838 378.602 76.9243 378.06 78.0172C377.518 79.1102 377.257 80.321 377.301 81.5402C377.345 82.7593 377.693 83.9482 378.312 84.9992C379.097 86.278 380.25 87.2891 381.621 87.8992C382.991 88.5093 384.514 88.6897 385.99 88.4166ZM385.605 75.7432C386.88 75.9905 388.03 76.6707 388.861 77.6687C389.693 78.6666 390.154 79.9211 390.166 81.2198C390.166 82.3637 389.813 83.4796 389.156 84.4158C388.499 85.352 387.569 86.063 386.493 86.452C385.418 86.8411 384.248 86.8893 383.144 86.5902C382.04 86.291 381.055 85.659 380.323 84.78C379.591 83.9011 379.148 82.818 379.053 81.6781C378.959 80.5382 379.217 79.3968 379.795 78.4093C380.372 77.4217 381.239 76.636 382.279 76.1589C383.318 75.6819 384.48 75.5367 385.605 75.7432Z" fill="white"/>
<path d="M384.604 84.45C386.06 84.45 387.24 83.2701 387.24 81.8147C387.24 80.3592 386.06 79.1793 384.604 79.1793C383.149 79.1793 381.969 80.3592 381.969 81.8147C381.969 83.2701 383.149 84.45 384.604 84.45Z" fill="white"/>
<path d="M190.391 91.3432C191.544 91.123 192.627 90.6286 193.549 89.9017C194.47 89.1749 195.204 88.2369 195.687 87.167C196.17 86.0971 196.389 84.9267 196.324 83.7546C196.26 82.5825 195.915 81.443 195.317 80.4324C194.72 79.4219 193.888 78.5698 192.892 77.9482C191.897 77.3267 190.766 76.9538 189.596 76.8611C188.425 76.7684 187.25 76.9586 186.169 77.4157C185.087 77.8728 184.132 78.5833 183.383 79.4872C182.465 80.6583 181.922 82.079 181.825 83.5636C181.728 85.0483 182.081 86.5277 182.838 87.8085C183.595 89.0894 184.721 90.1119 186.068 90.7426C187.416 91.3732 188.922 91.5826 190.391 91.3432ZM184.238 81.2927C184.87 80.2387 185.834 79.424 186.978 78.9756C188.123 78.5272 189.383 78.4705 190.563 78.8143C191.743 79.1582 192.776 79.8832 193.501 80.876C194.225 81.8689 194.6 83.0738 194.567 84.3024C194.533 83.4361 194.18 82.613 193.574 81.9923C192.969 81.3716 192.155 80.9974 191.29 80.9418C190.424 80.8863 189.569 81.1535 188.89 81.6917C188.21 82.2299 187.754 83.0009 187.609 83.8559C187.465 84.7108 187.643 85.5889 188.108 86.3204C188.573 87.052 189.293 87.5851 190.129 87.8168C190.964 88.0485 191.856 87.9622 192.631 87.5748C193.407 87.1873 194.012 86.5261 194.328 85.7189C194.107 86.4775 193.726 87.1801 193.212 87.7799C192.697 88.3798 192.061 88.8629 191.345 89.1972C190.629 89.5315 189.85 89.7092 189.06 89.7184C188.27 89.7277 187.486 89.5682 186.763 89.2508C186.039 88.9334 185.392 88.4652 184.863 87.8776C184.335 87.29 183.938 86.5964 183.699 85.8432C183.46 85.09 183.385 84.2945 183.478 83.5098C183.57 82.7251 183.83 81.9692 184.238 81.2927ZM232.556 91.3432C233.709 91.1226 234.792 90.6279 235.714 89.9009C236.635 89.1738 237.368 88.2358 237.851 87.1659C238.334 86.096 238.552 84.9257 238.488 83.7537C238.423 82.5817 238.077 81.4425 237.48 80.4321C236.883 79.4217 236.051 78.5698 235.055 77.9484C234.059 77.327 232.929 76.9542 231.759 76.8616C230.589 76.7689 229.413 76.9591 228.332 77.4161C227.251 77.8731 226.296 78.5834 225.547 79.4872C224.628 80.6581 224.084 82.0793 223.986 83.5646C223.888 85.05 224.241 86.5302 224.998 87.8116C225.756 89.093 226.883 90.1157 228.231 90.7459C229.58 91.376 231.087 91.5842 232.556 91.3432ZM232.182 78.6698C233.457 78.9175 234.607 79.5979 235.437 80.5958C236.268 81.5938 236.729 82.848 236.741 84.1464C236.739 85.2962 236.382 86.4172 235.717 87.3555C235.053 88.2938 234.114 89.0033 233.03 89.3867C231.946 89.7701 230.77 89.8085 229.663 89.4966C228.556 89.1847 227.573 88.5379 226.849 87.645C226.306 86.981 225.931 86.1963 225.755 85.357C225.984 86.2119 226.526 86.9494 227.274 87.423C228.021 87.8966 228.92 88.0717 229.791 87.9135C230.661 87.7553 231.441 87.2754 231.974 86.569C232.507 85.8627 232.755 84.9816 232.669 84.1008C232.583 83.22 232.168 82.4038 231.508 81.8145C230.848 81.2251 229.99 80.9056 229.105 80.9195C228.22 80.9334 227.373 81.2796 226.731 81.8893C226.09 82.4991 225.701 83.3278 225.642 84.2109C225.631 83.3915 225.8 82.5796 226.139 81.8336C226.478 81.0876 226.979 80.4259 227.604 79.8962C228.229 79.3664 228.964 78.9817 229.755 78.7696C230.547 78.5576 231.376 78.5235 232.182 78.6698ZM164.409 345.634H148.456C148.222 345.634 147.999 345.726 147.834 345.891C147.669 346.056 147.576 346.28 147.576 346.513C147.576 346.747 147.669 346.971 147.834 347.136C147.999 347.301 148.222 347.393 148.456 347.393H164.409C164.643 347.393 164.867 347.301 165.032 347.136C165.197 346.971 165.289 346.747 165.289 346.513C165.289 346.28 165.197 346.056 165.032 345.891C164.867 345.726 164.643 345.634 164.409 345.634ZM81.6316 345.634H22.6906C22.4573 345.634 22.2335 345.726 22.0685 345.891C21.9035 346.056 21.8108 346.28 21.8108 346.513C21.8108 346.747 21.9035 346.971 22.0685 347.136C22.2335 347.301 22.4573 347.393 22.6906 347.393H81.6316C81.8649 347.393 82.0887 347.301 82.2537 347.136C82.4187 346.971 82.5114 346.747 82.5114 346.513C82.5114 346.28 82.4187 346.056 82.2537 345.891C82.0887 345.726 81.8649 345.634 81.6316 345.634ZM89.3796 348.519C89.2633 348.516 89.1478 348.538 89.0404 348.583C88.933 348.628 88.836 348.694 88.7556 348.779C88.325 349.209 87.8549 349.59 88.1316 350.193C88.1918 350.372 88.3184 350.521 88.4852 350.609C88.691 350.725 88.9336 350.759 89.1633 350.703C89.4524 350.619 89.5356 350.495 89.9953 350.024C90.1173 349.901 90.2004 349.745 90.2342 349.575C90.268 349.405 90.251 349.228 90.1854 349.068C90.1198 348.907 90.0084 348.77 89.8651 348.672C89.7218 348.574 89.553 348.521 89.3796 348.519ZM97.1796 349.232C97.0559 349.111 96.8993 349.028 96.7291 348.996C96.559 348.963 96.383 348.981 96.223 349.047C96.063 349.114 95.9262 349.226 95.8296 349.37C95.7331 349.514 95.681 349.683 95.6799 349.856C95.6471 350.122 95.6719 350.393 95.7527 350.648C95.832 350.833 95.9727 350.984 96.1508 351.076C96.329 351.168 96.5335 351.196 96.7297 351.154C96.9259 351.112 97.1016 351.004 97.2268 350.847C97.3521 350.691 97.4192 350.495 97.4167 350.295C97.4188 349.868 97.4458 349.44 97.1796 349.232ZM79.5183 352.1C79.402 352.099 79.2867 352.121 79.1793 352.165C79.072 352.21 78.975 352.277 78.8943 352.36C78.4575 352.799 77.9958 353.172 78.2703 353.777C78.3316 353.955 78.4579 354.104 78.6239 354.193C78.8288 354.312 79.0721 354.346 79.302 354.288C79.5911 354.205 79.6618 354.08 80.134 353.61C80.2555 353.487 80.338 353.33 80.3715 353.16C80.405 352.99 80.388 352.814 80.3225 352.653C80.2571 352.492 80.146 352.354 80.0031 352.256C79.8602 352.158 79.6917 352.104 79.5183 352.1ZM277.335 326.535H270.608C270.375 326.535 270.151 326.628 269.986 326.793C269.821 326.958 269.728 327.182 269.728 327.415C269.728 327.648 269.821 327.872 269.986 328.037C270.151 328.202 270.375 328.295 270.608 328.295H277.335C277.568 328.295 277.792 328.202 277.957 328.037C278.122 327.872 278.215 327.648 278.215 327.415C278.215 327.182 278.122 326.958 277.957 326.793C277.792 326.628 277.568 326.535 277.335 326.535ZM280.022 335.063H276.877C276.759 335.057 276.64 335.076 276.529 335.117C276.418 335.158 276.316 335.222 276.23 335.304C276.145 335.385 276.076 335.484 276.03 335.593C275.983 335.702 275.959 335.819 275.959 335.938C275.959 336.056 275.983 336.174 276.03 336.283C276.076 336.392 276.145 336.49 276.23 336.572C276.316 336.654 276.418 336.717 276.529 336.758C276.64 336.8 276.759 336.818 276.877 336.812H280.022C280.247 336.801 280.458 336.704 280.613 336.542C280.769 336.379 280.855 336.163 280.855 335.938C280.855 335.713 280.769 335.497 280.613 335.334C280.458 335.171 280.247 335.074 280.022 335.063ZM151.736 339.063H156.672C156.79 339.069 156.909 339.05 157.02 339.009C157.131 338.968 157.232 338.904 157.318 338.822C157.404 338.741 157.473 338.642 157.519 338.533C157.566 338.424 157.59 338.307 157.59 338.188C157.59 338.07 157.566 337.952 157.519 337.843C157.473 337.734 157.404 337.636 157.318 337.554C157.232 337.472 157.131 337.409 157.02 337.368C156.909 337.326 156.79 337.308 156.672 337.314H151.736C151.511 337.325 151.3 337.422 151.144 337.584C150.989 337.747 150.903 337.963 150.903 338.188C150.903 338.413 150.989 338.629 151.144 338.792C151.3 338.955 151.511 339.052 151.736 339.063ZM163.398 337.26C163.517 337.265 163.635 337.247 163.746 337.206C163.858 337.164 163.959 337.101 164.045 337.019C164.131 336.937 164.199 336.839 164.246 336.73C164.293 336.621 164.317 336.503 164.317 336.385C164.317 336.266 164.293 336.149 164.246 336.04C164.199 335.931 164.131 335.833 164.045 335.751C163.959 335.669 163.858 335.605 163.746 335.564C163.635 335.523 163.517 335.504 163.398 335.51H160.254C160.029 335.521 159.817 335.618 159.662 335.781C159.507 335.944 159.421 336.16 159.421 336.385C159.421 336.61 159.507 336.826 159.662 336.989C159.817 337.152 160.029 337.249 160.254 337.26H163.398ZM396.643 337.478C394.104 337.528 391.572 337.574 389.031 337.626C388.797 337.626 388.574 337.718 388.409 337.883C388.244 338.048 388.151 338.272 388.151 338.505C388.151 338.739 388.244 338.963 388.409 339.128C388.574 339.293 388.797 339.385 389.031 339.385C391.572 339.333 394.104 339.292 396.643 339.24C396.87 339.229 397.083 339.131 397.239 338.967C397.395 338.803 397.483 338.585 397.483 338.359C397.483 338.132 397.395 337.915 397.239 337.751C397.083 337.587 396.87 337.489 396.643 337.478ZM404.724 336.854H402.037C401.812 336.865 401.601 336.962 401.445 337.125C401.29 337.287 401.204 337.504 401.204 337.729C401.204 337.953 401.29 338.17 401.445 338.332C401.601 338.495 401.812 338.592 402.037 338.603H404.724C404.843 338.609 404.961 338.591 405.072 338.549C405.183 338.508 405.285 338.444 405.371 338.363C405.457 338.281 405.525 338.183 405.572 338.074C405.619 337.965 405.643 337.847 405.643 337.729C405.643 337.61 405.619 337.493 405.572 337.384C405.525 337.275 405.457 337.176 405.371 337.094C405.285 337.013 405.183 336.949 405.072 336.908C404.961 336.866 404.843 336.848 404.724 336.854Z" fill="white"/>
<path d="M389.584 107.182C388.659 102.622 387.046 98.2297 384.8 94.1553C384.267 93.1549 382.757 94.041 383.279 95.0394C383.383 95.237 383.477 95.4554 383.581 95.6446C383.506 95.6798 383.436 95.7253 383.373 95.7798C377.439 101.687 376.332 110.269 378.697 114.681C381.988 120.821 391.423 117.449 389.584 107.182ZM386.595 114.44C382.951 118.456 377.859 114.637 379.627 106.213C380.337 102.845 381.983 99.7446 384.375 97.2691C385.539 99.7403 386.497 102.303 387.24 104.932C388.095 107.952 388.933 111.864 386.595 114.44Z" fill="#FFD35C"/>
</svg>
