<svg width="393" height="85" viewBox="0 0 393 85" fill="none" xmlns="http://www.w3.org/2000/svg">
<path d="M230.33 28.4062L238.697 49.2891L247.064 28.4062H251.441V54H248.066V44.0332L248.383 33.2754L239.98 54H237.396L229.012 33.3281L229.346 44.0332V54H225.971V28.4062H230.33ZM264.783 54.3516C262.205 54.3516 260.107 53.5078 258.49 51.8203C256.873 50.1211 256.064 47.8535 256.064 45.0176V44.4199C256.064 42.5332 256.422 40.8516 257.137 39.375C257.863 37.8867 258.871 36.7266 260.16 35.8945C261.461 35.0508 262.867 34.6289 264.379 34.6289C266.852 34.6289 268.773 35.4434 270.145 37.0723C271.516 38.7012 272.201 41.0332 272.201 44.0684V45.4219H259.316C259.363 47.2969 259.908 48.8145 260.951 49.9746C262.006 51.123 263.342 51.6973 264.959 51.6973C266.107 51.6973 267.08 51.4629 267.877 50.9941C268.674 50.5254 269.371 49.9043 269.969 49.1309L271.955 50.6777C270.361 53.127 267.971 54.3516 264.783 54.3516ZM264.379 37.3008C263.066 37.3008 261.965 37.7812 261.074 38.7422C260.184 39.6914 259.633 41.0273 259.422 42.75H268.949V42.5039C268.855 40.8516 268.41 39.5742 267.613 38.6719C266.816 37.7578 265.738 37.3008 264.379 37.3008ZM280.393 30.375V34.9805H283.943V37.4941H280.393V49.2891C280.393 50.0508 280.551 50.625 280.867 51.0117C281.184 51.3867 281.723 51.5742 282.484 51.5742C282.859 51.5742 283.375 51.5039 284.031 51.3633V54C283.176 54.2344 282.344 54.3516 281.535 54.3516C280.082 54.3516 278.986 53.9121 278.248 53.0332C277.51 52.1543 277.141 50.9062 277.141 49.2891V37.4941H273.678V34.9805H277.141V30.375H280.393ZM296.951 37.8984C296.459 37.8164 295.926 37.7754 295.352 37.7754C293.219 37.7754 291.771 38.6836 291.01 40.5V54H287.758V34.9805H290.922L290.975 37.1777C292.041 35.4785 293.553 34.6289 295.51 34.6289C296.143 34.6289 296.623 34.7109 296.951 34.875V37.8984ZM303.49 54H300.238V34.9805H303.49V54ZM299.975 29.9355C299.975 29.4082 300.133 28.9629 300.449 28.5996C300.777 28.2363 301.258 28.0547 301.891 28.0547C302.523 28.0547 303.004 28.2363 303.332 28.5996C303.66 28.9629 303.824 29.4082 303.824 29.9355C303.824 30.4629 303.66 30.9023 303.332 31.2539C303.004 31.6055 302.523 31.7812 301.891 31.7812C301.258 31.7812 300.777 31.6055 300.449 31.2539C300.133 30.9023 299.975 30.4629 299.975 29.9355ZM316.34 51.6973C317.5 51.6973 318.514 51.3457 319.381 50.6426C320.248 49.9395 320.729 49.0605 320.822 48.0059H323.898C323.84 49.0957 323.465 50.1328 322.773 51.1172C322.082 52.1016 321.156 52.8867 319.996 53.4727C318.848 54.0586 317.629 54.3516 316.34 54.3516C313.75 54.3516 311.688 53.4902 310.152 51.7676C308.629 50.0332 307.867 47.666 307.867 44.666V44.1211C307.867 42.2695 308.207 40.623 308.887 39.1816C309.566 37.7402 310.539 36.6211 311.805 35.8242C313.082 35.0273 314.588 34.6289 316.322 34.6289C318.455 34.6289 320.225 35.2676 321.631 36.5449C323.049 37.8223 323.805 39.4805 323.898 41.5195H320.822C320.729 40.2891 320.26 39.2812 319.416 38.4961C318.584 37.6992 317.553 37.3008 316.322 37.3008C314.67 37.3008 313.387 37.8984 312.473 39.0938C311.57 40.2773 311.119 41.9941 311.119 44.2441V44.8594C311.119 47.0508 311.57 48.7383 312.473 49.9219C313.375 51.1055 314.664 51.6973 316.34 51.6973ZM339.297 54C339.109 53.625 338.957 52.957 338.84 51.9961C337.328 53.5664 335.523 54.3516 333.426 54.3516C331.551 54.3516 330.01 53.8242 328.803 52.7695C327.607 51.7031 327.01 50.3555 327.01 48.7266C327.01 46.7461 327.76 45.2109 329.26 44.1211C330.771 43.0195 332.893 42.4688 335.623 42.4688H338.787V40.9746C338.787 39.8379 338.447 38.9355 337.768 38.2676C337.088 37.5879 336.086 37.248 334.762 37.248C333.602 37.248 332.629 37.541 331.844 38.127C331.059 38.7129 330.666 39.4219 330.666 40.2539H327.396C327.396 39.3047 327.73 38.3906 328.398 37.5117C329.078 36.6211 329.992 35.918 331.141 35.4023C332.301 34.8867 333.572 34.6289 334.955 34.6289C337.146 34.6289 338.863 35.1797 340.105 36.2812C341.348 37.3711 341.992 38.877 342.039 40.7988V49.5527C342.039 51.2988 342.262 52.6875 342.707 53.7188V54H339.297ZM333.9 51.5215C334.92 51.5215 335.887 51.2578 336.801 50.7305C337.715 50.2031 338.377 49.5176 338.787 48.6738V44.7715H336.238C332.254 44.7715 330.262 45.9375 330.262 48.2695C330.262 49.2891 330.602 50.0859 331.281 50.6602C331.961 51.2344 332.834 51.5215 333.9 51.5215Z" fill="white"/>
<path d="M366.767 82H195V3H366.767L389.537 42.5L366.767 82Z" stroke="#FFDF0E" stroke-width="6"/>
<path d="M74.7855 28.3873C70.8967 28.3873 66.8423 31.2277 66.8423 31.2277V29.4015C66.8423 29.0015 66.6822 28.841 66.2825 28.841H61.319C60.919 28.841 60.6787 29.0818 60.6787 29.4015V68.3344C60.6787 68.7357 60.8392 68.9766 61.2395 68.9766H66.2829C66.602 68.9766 66.8427 68.7357 66.8427 68.3344V35.0089C66.8427 35.0089 69.1834 33.5246 72.0261 33.5246C74.7328 33.5246 76.8699 34.8687 76.8699 37.6265C76.8699 39.5472 76.8699 68.3344 76.8699 68.3344C76.8699 68.7357 77.1099 68.9766 77.5103 68.9766H82.4721C82.8725 68.9766 83.0322 68.6558 83.0322 68.3344V35.8813C83.0325 30.9937 80.0294 28.3873 74.7855 28.3873Z" fill="white"/>
<path d="M113.394 8.8584H108.43C108.03 8.8584 107.79 9.09884 107.79 9.41924V29.0603C105.885 28.3284 104.15 27.942 102.748 27.942C94.687 27.942 89.1528 35.6537 89.1528 50.4827C89.1528 63.1868 94.5364 70 101.562 70C104.523 70 106.967 68.302 108.757 66.7089L109.84 68.5469C110.023 68.865 110.173 68.9738 110.54 68.9738L113.394 68.9771C113.713 68.9771 113.954 68.7363 113.954 68.3349V9.41984C113.955 9.01884 113.794 8.85894 113.394 8.85894V8.8584ZM95.7171 49.1715C95.7171 41.0006 98.1068 32.9092 102.987 32.9092C104.64 32.9092 106.227 33.4535 107.79 34.696V63.4831C106.568 64.1484 105.03 64.7627 103.368 64.7627C98.0619 64.7623 95.7171 58.4638 95.7171 49.1715Z" fill="white"/>
<path d="M132.407 28.0226C124.141 28.0226 120.061 38.8435 120.061 50.6198C120.061 62.9454 125.88 69.8541 133.361 69.8541C136.65 69.8541 139.923 68.5586 142.069 67.3654C142.398 67.1824 142.458 66.9239 142.378 66.6059L141.751 64.0018C141.672 63.6835 141.513 63.5247 141.115 63.5247C140.94 63.5247 138.229 64.3185 135.59 64.3185C129.468 64.3185 126.66 58.872 126.66 51.6382C126.66 50.6841 126.66 49.88 126.66 49.88C126.66 49.88 129.703 50.3015 131.531 50.3015H143.082V46.9607C143.082 34.627 138.766 28.0226 132.407 28.0226ZM132.009 45.2886C130.181 45.2886 126.853 45.7406 126.853 45.7406C126.853 45.7406 126.898 44.4135 127.057 43.14C127.773 36.3769 129.385 32.9562 132.167 32.9562C134.587 32.9562 136.244 36.4565 136.642 42.5836C136.721 43.857 136.721 45.289 136.721 45.289H132.009V45.2886H132.009Z" fill="white"/>
<path d="M51.2518 33.0796C49.4165 29.461 46.1473 27.8791 42.4026 27.8791C39.9966 27.8791 36.2424 28.7998 33.7348 29.9273C33.2443 30.1481 32.934 30.3423 32.934 30.7287C32.934 30.9583 33.0481 31.2222 33.1743 31.4501L34.8635 35.0697C35.0382 35.4786 35.3166 35.5718 35.547 35.5718C35.7968 35.5718 36 35.4533 36.2243 35.3095C38.6701 33.7453 40.4619 32.8854 41.8802 32.8854C43.7566 32.8854 45.0308 34.1313 45.8166 36.0044C46.5483 37.75 46.8321 40.1618 46.8321 42.9485C46.8321 43.3039 46.8335 43.7675 46.8335 43.7675C45.2922 42.8023 42.6221 42.2703 41.2895 42.2703C34.1182 42.2703 30.2507 49.0888 30.2507 56.3805C30.2507 64.2368 34.7707 69.9996 40.2022 69.9996C43.2274 69.9996 45.9658 68.2228 47.7998 65.9824C47.7998 65.9824 48.7762 68.3119 48.9036 68.5915C49.0321 68.8704 49.1677 68.9735 49.5348 68.9735L52.4373 68.9767C52.7568 68.9767 52.9974 68.7359 52.9974 68.3346V45.7504C52.9965 40.2011 52.7164 35.9675 51.2518 33.0802V33.0796ZM46.8332 62.6678C45.4115 64.0419 43.708 64.7623 42.1755 64.7623C40.6434 64.7623 39.4593 64.0539 38.5097 62.7423C37.3537 61.1461 36.8147 58.688 36.8147 55.9646C36.8147 51.6572 38.4036 47.2375 41.7721 47.2375C43.4389 47.2375 45.2701 47.7804 46.8335 49.0242V62.6678H46.8332Z" fill="white"/>
<path d="M169.294 28.8358C168.615 28.8358 165.364 28.8358 164.87 28.8358C164.376 28.8358 164.124 29.095 163.996 29.4307C163.716 30.1668 161.846 35.0949 161.08 37.1364C160.533 38.5948 159.061 42.7712 159.061 42.7712L158.89 42.7699C158.885 42.7552 157.806 39.7319 157.223 38.218C156.75 36.9908 154.286 30.4939 153.974 29.6926C153.808 29.2623 153.621 28.8358 152.988 28.8358C152.132 28.8358 148.677 28.8358 148.144 28.8358C147.612 28.8358 147.311 29.4202 147.483 29.7827C147.655 30.1463 155.372 47.7368 155.372 47.7368C155.372 47.7368 147.085 67.434 146.842 67.8762C146.6 68.3187 146.905 68.9734 147.495 68.9734C148.083 68.9734 151.018 68.9734 151.739 68.9734C152.462 68.9734 152.746 68.5945 152.963 67.9843C153.573 66.2741 154.482 63.8956 155.768 60.2198C156.62 57.7838 157.968 53.5085 157.968 53.5085H158.116C158.116 53.5085 159.592 57.8658 160.141 59.2906C161.528 62.8933 163.302 67.5993 163.49 68.0963C163.686 68.616 163.96 68.9738 164.457 68.9738C164.954 68.9738 168.792 68.9738 169.27 68.9738C169.746 68.9738 169.967 68.4295 169.743 67.9561C169.207 66.8269 164.636 55.7111 161.462 48.4038C161.462 48.4038 169.7 30.2113 169.861 29.7613C170.021 29.3113 169.973 28.8358 169.294 28.8358H169.294Z" fill="white"/>
<path d="M35.2634 3.00002H29.6837C29.1895 3.00002 28.8809 3.24284 28.8095 3.59488C28.7388 3.94828 20.4418 29.2655 19.8389 31.3743C19.4113 32.8695 18.0172 38.1401 17.6827 39.4057L14.7972 31.5215C14.0961 29.3515 7.37573 10.5628 7.17859 9.81209C7.06992 9.3995 6.88053 8.88662 6.15795 8.88662H0.710496C0.177921 8.88662 -0.123574 9.47131 0.0484227 9.83388C0.185353 10.1243 10.0254 36.3218 14.0006 46.3297V68.334C14.0006 68.7354 14.161 68.9762 14.561 68.9762H19.7203C20.0401 68.9762 20.28 68.7354 20.28 68.334V47.475V46.5032C23.5938 37.2415 35.6981 4.29419 35.8296 3.92549C35.9904 3.47483 35.9431 3.00002 35.2634 3.00002Z" fill="#E52620"/>
</svg>
