<svg width="24" height="24" viewBox="0 0 24 24" fill="none" xmlns="http://www.w3.org/2000/svg">
<path d="M11 5.882V19.24C10.9997 19.6545 10.8532 20.0555 10.5862 20.3725C10.3192 20.6896 9.94886 20.9022 9.54048 20.9729C9.13209 21.0437 8.71184 20.968 8.35376 20.7593C7.99567 20.5506 7.72274 20.2222 7.58303 19.832L5.43603 13.682M5.43603 13.682C4.58725 13.3211 3.88921 12.6791 3.46006 11.8627C3.0309 11.0463 2.89698 10.1067 3.08096 9.2029C3.26494 8.29912 3.75552 7.48665 4.46968 6.903C5.18384 6.31935 6.07771 6.00035 7.00003 6H8.83203C12.932 6 16.457 4.766 18 3V17C16.457 15.234 12.933 14 8.83203 14H7.00003C6.46266 14.0008 5.93068 13.892 5.43603 13.682ZM18 13C18.7957 13 19.5587 12.6839 20.1213 12.1213C20.684 11.5587 21 10.7956 21 10C21 9.20435 20.684 8.44129 20.1213 7.87868C19.5587 7.31607 18.7957 7 18 7V13Z" stroke="white" stroke-width="2" stroke-linecap="round" stroke-linejoin="round"/>
</svg>
