<svg width="24" height="24" viewBox="0 0 24 24" fill="none" xmlns="http://www.w3.org/2000/svg">
<path d="M6.34315 19.5208L7.05026 18.8137L7.05026 18.8137L6.34315 19.5208ZM6.34315 8.20705L7.05025 8.91416L7.05026 8.91416L6.34315 8.20705ZM12 2.5502L12.7071 1.84309C12.3166 1.45257 11.6834 1.45257 11.2929 1.84309L12 2.5502ZM17.6569 8.20705L18.364 7.49995L18.364 7.49994L17.6569 8.20705ZM17.6569 19.5208L18.364 20.2279L18.364 20.2279L17.6569 19.5208ZM8.34315 12.5C8.34315 11.9477 7.89543 11.5 7.34315 11.5C6.79087 11.5 6.34315 11.9477 6.34315 12.5H8.34315ZM12.6569 19.5C13.2092 19.5 13.6569 19.0523 13.6569 18.5C13.6569 17.9477 13.2092 17.5 12.6569 17.5V19.5ZM7.05026 18.8137C4.31658 16.08 4.31659 11.6478 7.05025 8.91416L5.63605 7.49994C2.12131 11.0146 2.12132 16.7132 5.63604 20.2279L7.05026 18.8137ZM7.05026 8.91416L12.7071 3.25731L11.2929 1.84309L5.63604 7.49994L7.05026 8.91416ZM11.2929 3.25731L16.9498 8.91416L18.364 7.49994L12.7071 1.84309L11.2929 3.25731ZM16.9498 8.91415C19.6834 11.6478 19.6834 16.08 16.9498 18.8137L18.364 20.2279C21.8786 16.7132 21.8786 11.0146 18.364 7.49995L16.9498 8.91415ZM16.9498 18.8137C14.2161 21.5474 9.78392 21.5474 7.05026 18.8137L5.63604 20.2279C9.15076 23.7426 14.8493 23.7426 18.364 20.2279L16.9498 18.8137ZM12.6569 17.5C11.5362 17.5 10.7554 17.2309 10.1988 16.8665C9.63756 16.4991 9.24212 15.9938 8.96157 15.4297C8.38522 14.2708 8.34315 12.9657 8.34315 12.5H6.34315C6.34315 13.0343 6.3795 14.7292 7.17081 16.3203C7.57408 17.1312 8.18477 17.9384 9.10334 18.5398C10.0265 19.1441 11.1991 19.5 12.6569 19.5V17.5Z" fill="white"/>
</svg>
