<svg width="24" height="24" viewBox="0 0 24 24" fill="none" xmlns="http://www.w3.org/2000/svg">
<g clip-path="url(#clip0)">
<path d="M12 0.500031C5.37 0.500031 0 5.78003 0 12.292C0 17.503 3.438 21.922 8.205 23.48C8.805 23.591 9.025 23.226 9.025 22.913C9.025 22.633 9.015 21.891 9.01 20.908C5.672 21.619 4.968 19.326 4.968 19.326C4.422 17.965 3.633 17.601 3.633 17.601C2.546 16.87 3.717 16.885 3.717 16.885C4.922 16.967 5.555 18.1 5.555 18.1C6.625 19.903 8.364 19.382 9.05 19.081C9.158 18.318 9.467 17.799 9.81 17.504C7.145 17.209 4.344 16.195 4.344 11.677C4.344 10.39 4.809 9.33803 5.579 8.51303C5.444 8.21503 5.039 7.01603 5.684 5.39203C5.684 5.39203 6.689 5.07603 8.984 6.60103C9.944 6.33903 10.964 6.20903 11.984 6.20303C13.004 6.20903 14.024 6.33903 14.984 6.60103C17.264 5.07603 18.269 5.39203 18.269 5.39203C18.914 7.01603 18.509 8.21503 18.389 8.51303C19.154 9.33803 19.619 10.39 19.619 11.677C19.619 16.207 16.814 17.204 14.144 17.494C14.564 17.848 14.954 18.571 14.954 19.676C14.954 21.254 14.939 22.522 14.939 22.905C14.939 23.214 15.149 23.583 15.764 23.465C20.565 21.917 24 17.495 24 12.292C24 5.78003 18.627 0.500031 12 0.500031Z" fill="white"/>
</g>
<defs>
<clipPath id="clip0">
<rect width="24" height="24" fill="white"/>
</clipPath>
</defs>
</svg>
