<svg width="24" height="24" viewBox="0 0 24 24" fill="none" xmlns="http://www.w3.org/2000/svg">
<path d="M3 12L5 10M5 10L12 3L19 10M5 10V20C5 20.2652 5.10536 20.5196 5.29289 20.7071C5.48043 20.8946 5.73478 21 6 21H8C8.26522 21 8.51957 20.8946 8.70711 20.7071C8.89464 20.5196 9 20.2652 9 20V16C9 15.7348 9.10536 15.4804 9.29289 15.2929C9.48043 15.1054 9.73478 15 10 15H14C14.2652 15 14.5196 15.1054 14.7071 15.2929C14.8946 15.4804 15 15.7348 15 16V20C15 20.2652 15.1054 20.5196 15.2929 20.7071C15.4804 20.8946 15.7348 21 16 21H18C18.2652 21 18.5196 20.8946 18.7071 20.7071C18.8946 20.5196 19 20.2652 19 20V10M19 10L21 12" stroke="#6F96B6" stroke-width="2" stroke-linecap="round" stroke-linejoin="round"/>
</svg>
