<svg width="24" height="24" viewBox="0 0 24 24" fill="none" xmlns="http://www.w3.org/2000/svg">
<path d="M11.049 2.92699C11.349 2.00599 12.652 2.00599 12.951 2.92699L14.47 7.60099C14.5353 7.80148 14.6624 7.97617 14.833 8.10009C15.0037 8.22402 15.2091 8.29083 15.42 8.29099H20.335C21.304 8.29099 21.706 9.53099 20.923 10.101L16.947 12.989C16.7762 13.1131 16.6491 13.2882 16.5839 13.489C16.5187 13.6899 16.5187 13.9062 16.584 14.107L18.102 18.781C18.402 19.703 17.347 20.469 16.564 19.899L12.588 17.011C12.4171 16.8868 12.2112 16.8198 12 16.8198C11.7887 16.8198 11.5829 16.8868 11.412 17.011L7.43597 19.899C6.65297 20.469 5.59797 19.702 5.89797 18.781L7.41597 14.107C7.48125 13.9062 7.48129 13.6899 7.41608 13.489C7.35087 13.2882 7.22377 13.1131 7.05297 12.989L3.07697 10.101C2.29297 9.53099 2.69697 8.29099 3.66497 8.29099H8.57897C8.79002 8.29104 8.99568 8.22432 9.1665 8.10038C9.33732 7.97644 9.46455 7.80164 9.52997 7.60099L11.049 2.92699Z" fill="white" stroke="white" stroke-width="2" stroke-linecap="round" stroke-linejoin="round"/>
</svg>
