<svg width="56" height="56" viewBox="0 0 56 56" fill="none" xmlns="http://www.w3.org/2000/svg">
<rect width="56" height="56" rx="8" fill="#F0E5FA"/>
<g clip-path="url(#clip0)">
<path d="M18.0789 24.3799C20.1586 24.3776 21.8438 22.6924 21.8458 20.6131V19.3484C21.836 17.2749 20.1525 15.5995 18.0789 15.5995C16.0054 15.5995 14.3219 17.2749 14.3117 19.3484V20.6131C14.3141 22.6924 15.9993 24.3776 18.0789 24.3799ZM15.5239 19.3488C15.5321 17.9437 16.6736 16.809 18.0786 16.809C19.4837 16.809 20.6248 17.9437 20.6329 19.3488V20.6131C20.6316 22.0232 19.4887 23.1661 18.0786 23.1677C16.6685 23.1661 15.5256 22.0232 15.5239 20.6131V19.3488Z" fill="#BB93D5"/>
<path d="M21.8905 25.4183H21.092C20.821 25.4183 20.5829 25.5982 20.5091 25.8591L19.6433 28.9101L19.1744 28.0724L19.7286 26.3026C19.7861 26.1186 19.753 25.918 19.6386 25.7627C19.5243 25.607 19.3429 25.5154 19.1501 25.5154H17.132C16.9391 25.5154 16.7578 25.607 16.6435 25.7627C16.5291 25.918 16.4959 26.1186 16.5535 26.3026L17.111 28.0825L16.7395 28.7998L15.9759 25.8716C15.9066 25.6047 15.6654 25.4183 15.3896 25.4183H14.4897C13.3952 25.4183 12.3512 25.8791 11.614 26.688C10.8768 27.4969 10.5144 28.5792 10.6156 29.6689V35.891C10.6156 36.226 10.8873 36.4973 11.2219 36.4973L25.1576 36.4956C25.4922 36.4956 25.7639 36.2243 25.7639 35.8893V29.6686C25.8651 28.5789 25.5031 27.4969 24.7659 26.688C24.0287 25.8791 22.985 25.4179 21.8905 25.4179V25.4183ZM18.3249 26.7279L18.1409 27.3146L17.9572 26.7279H18.3249ZM24.5541 29.5783C24.5521 29.5986 24.551 29.6192 24.551 29.6395V35.2831L11.8278 35.2847V29.6392C11.8278 29.6189 11.8268 29.5986 11.8247 29.5779C11.7486 28.8248 11.9949 28.0744 12.5027 27.5128C13.0106 26.9512 13.7322 26.6308 14.4894 26.6308H14.9207L15.9644 30.6335C16.0257 30.869 16.2216 31.0446 16.4621 31.0804C16.7027 31.1159 16.9412 31.0046 17.068 30.7972C17.0755 30.7847 17.0829 30.7722 17.0897 30.7594L18.1327 28.746H18.1618L19.2989 30.7769C19.4187 30.9908 19.6552 31.1115 19.8988 31.0828C20.142 31.054 20.3444 30.8818 20.4113 30.646L21.5505 26.6308H21.8905C22.6476 26.6308 23.3693 26.9515 23.8768 27.5132C24.3842 28.0748 24.6305 28.8252 24.5541 29.5783Z" fill="#BB93D5"/>
<path d="M28.1974 21.511H33.9868C34.3214 21.511 34.593 21.2396 34.593 20.9047C34.593 20.5701 34.3214 20.2984 33.9868 20.2984H28.1974C27.8628 20.2984 27.5912 20.5701 27.5912 20.9047C27.5912 21.2396 27.8628 21.511 28.1974 21.511Z" fill="#BB93D5"/>
<path d="M39.1831 25.6054H28.1974C27.8628 25.6054 27.5912 25.8767 27.5912 26.2116C27.5912 26.5466 27.8628 26.8179 28.1974 26.8179H39.1834C39.518 26.8179 39.7897 26.5466 39.7897 26.2116C39.7897 25.8767 39.518 25.6054 39.1834 25.6054H39.1831Z" fill="#BB93D5"/>
<path d="M39.1831 30.9119H28.1974C27.8628 30.9119 27.5912 31.1836 27.5912 31.5182C27.5912 31.8531 27.8628 32.1245 28.1974 32.1245H39.1834C39.518 32.1245 39.7897 31.8531 39.7897 31.5182C39.7897 31.1836 39.518 30.9119 39.1834 30.9119H39.1831Z" fill="#BB93D5"/>
<path d="M44.7955 16.9677H43.1272V15.3478C43.1255 13.5791 41.6917 12.1452 39.9226 12.1432H11.2046C9.4355 12.1452 8.00203 13.5791 8 15.3478V35.8646C8.00203 37.6337 9.4355 39.0675 11.2046 39.0692H12.8241V40.7375C12.8262 42.5062 14.2596 43.94 16.0287 43.9421H44.7955C46.5646 43.94 47.998 42.5062 48.0001 40.7375V20.1723C47.998 18.4032 46.5642 16.9697 44.7955 16.9677ZM9.21254 35.8646V15.3478C9.2139 14.2483 10.105 13.3571 11.2046 13.3558H39.923C41.0225 13.3571 41.9137 14.2483 41.915 15.3478V35.8646C41.9137 36.9645 41.0225 37.8557 39.923 37.8567H11.2046C10.105 37.8557 9.2139 36.9645 9.21254 35.8646ZM46.7875 40.7375C46.7862 41.837 45.895 42.7282 44.7955 42.7295H16.0287C14.9292 42.7282 14.038 41.837 14.0367 40.7375V39.0692H39.9226C41.6917 39.0675 43.1255 37.6337 43.1272 35.8646V18.1802H44.7955C45.895 18.1812 46.7862 19.0724 46.7875 20.1723V40.7375Z" fill="#BB93D5"/>
</g>
<defs>
<clipPath id="clip0">
<rect width="40" height="40" fill="white" transform="translate(8 8)"/>
</clipPath>
</defs>
</svg>
