<svg width="56" height="56" viewBox="0 0 56 56" fill="none" xmlns="http://www.w3.org/2000/svg">
<g clip-path="url(#clip0)">
<path d="M26.641 26.2147H26.7178C30.8262 26.1731 34.1231 22.8089 34.0815 18.7L34.0186 12.497C33.982 9.34483 31.4017 6.8163 28.2495 6.84398L21.1536 6.9163C20.0099 6.92924 19.0925 7.86583 19.1028 9.00957L19.2028 18.8509C19.2487 22.9277 22.5639 26.2098 26.641 26.2147ZM23.1116 11.8149C22.2094 12.1979 21.4027 12.7747 20.7483 13.5037L20.7045 9.2109C21.4157 10.1591 22.2224 11.0314 23.1116 11.8149ZM30.8133 22.8625C29.7316 23.9723 28.2508 24.6031 26.7013 24.6147H26.641C23.4406 24.6102 20.8385 22.0344 20.8018 18.8344L20.7768 16.3773C20.9742 15.8983 22.0813 13.5082 24.6821 13.0046C26.3616 14.0916 28.1031 14.6416 29.8544 14.6416C30.7303 14.6385 31.6003 14.5032 32.436 14.2407L32.4816 18.7161C32.5021 20.2656 31.9012 21.7585 30.8133 22.8625ZM28.2656 8.4435H28.308C30.5611 8.44663 32.3932 10.26 32.4186 12.5131V12.5586C29.8227 13.5358 27.2325 13.035 24.7129 11.0649C23.7705 10.3149 22.921 9.45554 22.1817 8.50511L28.2656 8.4435Z" fill="#A982E1"/>
<path d="M53.0225 25.9423C53.022 15.4497 46.7016 5.98998 37.0075 1.97487C27.3135 -2.04069 16.1552 0.178916 8.73565 7.59844C-0.192336 16.5336 -1.3883 30.5994 5.90266 40.914C13.1932 51.2285 26.8523 54.7941 38.2544 49.3589L38.0249 54.812C38.0245 54.8231 38.024 54.8343 38.024 54.8455C38.0231 55.295 38.283 55.7044 38.6905 55.8945C39.0968 56.082 39.5754 56.0128 39.9115 55.7173L44.9083 51.4125L49.9064 55.7195C50.1131 55.8995 50.3779 55.9986 50.652 55.9999C50.8158 55.9995 50.9774 55.9637 51.1256 55.895C51.5332 55.7048 51.793 55.2954 51.7921 54.8459C51.7921 54.8347 51.7917 54.8236 51.7912 54.8124L51.3171 43.5568C55.4104 40.1109 56.0358 34.0404 52.7314 29.832C52.9247 28.5445 53.022 27.2446 53.0225 25.9423ZM2.73753 25.9423C2.73753 12.5198 13.6575 1.59987 27.08 1.59987C40.5021 1.59987 51.4225 12.5198 51.4225 25.9423C51.4225 26.7477 51.3819 27.5548 51.3033 28.3553C47.6007 25.2339 42.1851 25.2415 38.4914 28.3736C37.3406 27.7468 36.0482 27.4254 34.7375 27.4414L33.0612 27.4584C32.7031 27.462 32.3915 27.7026 32.2973 28.0477L30.2438 35.5752L28.5715 32.6592L29.7572 28.7347C29.8309 28.491 29.784 28.2267 29.6313 28.0231C29.4782 27.8195 29.2376 27.7008 28.9831 27.7035L24.7439 27.7463C24.4894 27.749 24.251 27.8727 24.1024 28.0794C23.9537 28.2861 23.9127 28.5512 23.9912 28.7932L25.2604 32.7052L23.8564 35.4837L21.8605 28.0182C21.7596 27.6414 21.4024 27.3923 21.014 27.428L19.1569 27.5995C16.9931 27.6307 14.9427 28.5709 13.507 30.19C12.0713 31.8092 11.3834 33.9578 11.6119 36.1096L11.7003 44.7961C6.0281 40.1801 2.73664 33.2552 2.73753 25.9423ZM27.1108 31.9619L26.7028 31.9659L25.8492 29.3351L27.9108 29.3142L27.1108 31.9619ZM27.08 50.2848C22.1627 50.2902 17.3605 48.7978 13.3124 46.0063L13.2115 36.0542C13.211 36.027 13.2097 36.0002 13.2066 35.9734C13.0155 34.2596 13.5588 32.5449 14.7021 31.2539C15.8458 29.9633 17.4819 29.2164 19.2065 29.199C19.2283 29.199 19.2502 29.1976 19.2717 29.1959L20.4886 29.0838L22.8515 37.9221C22.9336 38.2305 23.1921 38.4604 23.5082 38.5069C23.8243 38.5529 24.1376 38.4069 24.3055 38.1346C24.3171 38.1154 24.3283 38.0957 24.3385 38.0752L26.6171 33.5672L27.2434 33.561L29.8139 38.043C29.9746 38.3238 30.2884 38.4796 30.6094 38.4386C30.93 38.3975 31.1942 38.1676 31.2795 37.856L33.6813 29.0521L34.7531 29.0405C35.6299 29.0302 36.4986 29.2101 37.2995 29.5677C33.767 33.7614 34.304 40.0247 38.4986 43.5559L38.3316 47.5304C34.8567 49.3393 30.9974 50.2839 27.08 50.2848ZM50.148 53.816L45.6797 49.9661C45.2471 49.5554 44.569 49.5554 44.1369 49.9661L39.6682 53.8165L40.0548 44.6376C43.0695 46.3282 46.7467 46.3282 49.7614 44.6376L50.148 53.816ZM44.9083 44.3046C41.5182 44.3068 38.4647 42.2564 37.1839 39.118C35.9026 35.9797 36.6495 32.3784 39.0722 30.0079C39.1258 29.9682 39.1745 29.9222 39.2164 29.8708C41.9494 27.3169 46.048 26.895 49.244 28.8378C52.4399 30.7811 53.9515 34.6145 52.9417 38.2158C51.9319 41.8175 48.648 44.3063 44.9079 44.3046H44.9083Z" fill="#A982E1"/>
<path d="M49.0629 32.0718L43.5809 37.5543L40.755 34.7012C40.5546 34.495 40.2591 34.4124 39.9809 34.4847C39.7028 34.557 39.4845 34.7731 39.4095 35.0503C39.3345 35.328 39.4144 35.6244 39.6184 35.8271L43.0095 39.2511C43.1595 39.4025 43.3635 39.4877 43.576 39.4882H43.5782C43.7903 39.4882 43.9938 39.4038 44.1438 39.2538L50.1946 33.203C50.5071 32.8905 50.5071 32.3843 50.1946 32.0718C49.8821 31.7593 49.3759 31.7593 49.0634 32.0718H49.0629Z" fill="#A982E1"/>
</g>
<defs>
<clipPath id="clip0">
<rect width="56" height="56" fill="white"/>
</clipPath>
</defs>
</svg>
