<svg width="432" height="400" viewBox="0 0 432 400" fill="none" xmlns="http://www.w3.org/2000/svg">
<circle cx="232" cy="200" r="198.8" stroke="#DCE2F9" stroke-width="2.4"/>
<circle cx="232" cy="200" r="134.8" stroke="#DCE2F9" stroke-width="2.4"/>
<circle cx="232" cy="200" r="70.8" stroke="#DCE2F9" stroke-width="2.4"/>
<rect y="160" width="64" height="64" rx="32" fill="#F1F5F9"/>
<g clip-path="url(#clip0)">
<path d="M23.7674 192.356L23.1423 194.232L22.5173 194.857C21.8269 195.547 21.8269 196.666 22.5173 197.357C23.2077 198.047 24.327 198.047 25.0174 197.357L25.6425 196.732L27.5176 196.107L42.4739 181.15C43.5095 180.115 43.5095 178.436 42.4739 177.4C41.4382 176.365 39.7593 176.365 38.7237 177.4L23.7674 192.356Z" fill="#DCE2F9"/>
<path d="M33.2501 190.374L27.5173 196.107L25.6422 196.732L25.0172 197.357C24.3271 198.047 23.2071 198.047 22.517 197.357C21.827 196.666 21.827 195.547 22.517 194.857L23.1421 194.232L23.7671 192.357L25.7497 190.374H33.2501Z" fill="#FFF7BF"/>
<path d="M42.474 177.4C41.4384 176.365 39.7593 176.365 38.7238 177.4L35.1252 180.999L38.8754 184.749L42.474 181.15C43.5096 180.115 43.5096 178.436 42.474 177.4Z" fill="#F8E3EE"/>
<path d="M31.3728 181L33.2476 179.126L40.7468 186.625L38.872 188.5L31.3728 181Z" fill="#FF9C9B"/>
<path d="M25.7498 204.875C25.6179 208.191 20.8806 208.19 20.7495 204.875C20.7495 203.494 23.2496 199.875 23.2496 199.875C23.2496 199.875 25.7498 203.494 25.7498 204.875Z" fill="#FFF7BF"/>
<path d="M43.8757 179.275C43.8757 178.4 43.5349 177.577 42.916 176.958C41.6384 175.681 39.5595 175.681 38.2818 176.958L35.1253 180.115L33.6921 178.682C33.448 178.438 33.0524 178.438 32.8082 178.682L30.9331 180.557C30.689 180.801 30.689 181.197 30.9331 181.441L32.3662 182.874L23.3255 191.915C23.2569 191.983 23.2052 192.067 23.1745 192.159L22.5962 193.894L22.0754 194.415C21.1425 195.348 21.1425 196.866 22.0754 197.799C23.0084 198.732 24.5265 198.732 25.4595 197.799L25.9802 197.278L27.7153 196.7C27.8074 196.669 27.891 196.617 27.9596 196.549L37.0004 187.508L38.4335 188.941C38.6776 189.185 39.0733 189.185 39.3175 188.941L41.1926 187.066C41.4366 186.822 41.4366 186.426 41.1926 186.182L39.7594 184.749L42.916 181.592C43.5349 180.973 43.8757 180.151 43.8757 179.275ZM27.18 195.56L25.4449 196.139C25.3529 196.169 25.2692 196.221 25.2006 196.29L24.5756 196.915C23.4587 197.943 21.9321 196.414 22.9594 195.299L23.5845 194.674C23.6531 194.605 23.7048 194.521 23.7355 194.429L24.3138 192.694L33.2502 183.758L36.1164 186.624L27.18 195.56ZM38.8755 187.615L32.259 180.999L33.2501 180.008L39.8665 186.624L38.8755 187.615ZM42.032 180.708L38.8755 183.865L36.0092 180.999L39.1657 177.842C39.956 177.052 41.2418 177.052 42.0319 177.842C42.8183 178.597 42.8182 179.954 42.032 180.708Z" fill="#DC72A9"/>
<path d="M23.2497 199.25C23.0443 199.25 22.8521 199.35 22.7354 199.519C22.2994 200.151 20.1245 203.375 20.1245 204.875C20.1245 206.598 21.5265 208 23.2497 208C24.9729 208 26.3748 206.598 26.3748 204.875C26.3748 203.375 24.2 200.151 23.7639 199.519C23.6472 199.35 23.455 199.25 23.2497 199.25ZM23.2497 206.75C22.2157 206.75 21.3746 205.909 21.3746 204.875C21.3746 204.192 22.3501 202.411 23.2497 201.005C24.1493 202.411 25.1248 204.192 25.1248 204.875C25.1248 205.909 24.2836 206.75 23.2497 206.75Z" fill="#DC72A9"/>
</g>
<rect x="360" y="48" width="64" height="64" rx="32" fill="#F1F5F9"/>
<g clip-path="url(#clip1)">
<path d="M379.125 71.25H403.25V87.125H379.125V71.25Z" fill="#F5FADE"/>
<path d="M376.625 68.75H381.625V73.75H376.625V68.75Z" fill="#DCE2F9"/>
<path d="M400.75 68.75H405.75V73.75H400.75V68.75Z" fill="#DCE2F9"/>
<path d="M376.625 84.625H381.625V89.625H376.625V84.625Z" fill="#DCE2F9"/>
<path d="M407.375 88.75L403.625 85L407.375 83.75L396.125 80L399.875 91.25L401.125 87.5L404.875 91.25L407.375 88.75Z" fill="#CCF5FC"/>
<path d="M407.817 88.3081L404.782 85.2731L407.573 84.3429C408.139 84.1538 408.138 83.3461 407.573 83.1571L403.875 81.9246V74.375H405.75C406.095 74.375 406.375 74.0952 406.375 73.75V68.75C406.375 68.4048 406.095 68.125 405.75 68.125H400.75C400.405 68.125 400.125 68.4048 400.125 68.75V70.625H382.25V68.75C382.25 68.4048 381.97 68.125 381.625 68.125H376.625C376.28 68.125 376 68.4048 376 68.75V73.75C376 74.0952 376.28 74.375 376.625 74.375H378.5V84H376.625C376.28 84 376 84.2798 376 84.625V89.625C376 89.9702 376.28 90.25 376.625 90.25H381.625C381.97 90.25 382.25 89.9702 382.25 89.625V87.75H398.049L399.282 91.4476C399.471 92.0138 400.279 92.0135 400.468 91.4476L401.398 88.657L404.433 91.6919C404.677 91.9359 405.073 91.9359 405.317 91.6919L407.817 89.1919C408.061 88.9479 408.061 88.5521 407.817 88.3081ZM401.375 69.375H405.125V73.125H401.375V69.375ZM377.25 69.375H381V73.125H377.25V69.375ZM381 89H377.25V85.25H381V89ZM382.25 86.5V84.625C382.25 84.2798 381.97 84 381.625 84H379.75V74.375H381.625C381.97 74.375 382.25 74.0952 382.25 73.75V71.875H400.125V73.75C400.125 74.0952 400.405 74.375 400.75 74.375H402.625V81.5079L396.323 79.4071C396.098 79.3322 395.85 79.3906 395.683 79.5581C395.516 79.7255 395.457 79.9731 395.532 80.1976L397.633 86.5H382.25ZM404.875 90.3661L401.567 87.0581C401.414 86.9043 401.19 86.8421 400.981 86.8918C400.771 86.9415 400.601 87.0969 400.532 87.3024L399.875 89.2736L397.113 80.9883L405.399 83.75L403.427 84.4071C402.994 84.5406 402.855 85.1288 403.183 85.4419L406.491 88.75L404.875 90.3661Z" fill="#5CD0B3"/>
</g>
<rect x="120" y="56" width="64" height="64" rx="32" fill="#F1F5F9"/>
<path d="M139.125 79.25H164.875V96.75H139.125V79.25Z" fill="#FFF7BF"/>
<path d="M136.625 76.75H141.625V81.75H136.625V76.75Z" fill="#DCE2F9"/>
<path d="M162.375 76.75H167.375V81.75H162.375V76.75Z" fill="#DCE2F9"/>
<path d="M136.625 94.25H141.625V99.25H136.625V94.25Z" fill="#DCE2F9"/>
<path d="M162.375 94.25H167.375V99.25H162.375V94.25Z" fill="#DCE2F9"/>
<path d="M150.125 83.625H147.625L151.375 92.375H153.875L150.125 83.625Z" fill="#CCF5FC"/>
<path d="M167.375 82.375C167.72 82.375 168 82.0952 168 81.75V76.75C168 76.4048 167.72 76.125 167.375 76.125H162.375C162.03 76.125 161.75 76.4048 161.75 76.75V78.625H142.25V76.75C142.25 76.4048 141.97 76.125 141.625 76.125H136.625C136.28 76.125 136 76.4048 136 76.75V81.75C136 82.0952 136.28 82.375 136.625 82.375H138.5V93.625H136.625C136.28 93.625 136 93.9048 136 94.25V99.25C136 99.5952 136.28 99.875 136.625 99.875H141.625C141.97 99.875 142.25 99.5952 142.25 99.25V97.375H161.75V99.25C161.75 99.5952 162.03 99.875 162.375 99.875H167.375C167.72 99.875 168 99.5952 168 99.25V94.25C168 93.9048 167.72 93.625 167.375 93.625H165.5V82.375H167.375ZM163 77.375H166.75V81.125H163V77.375ZM137.25 77.375H141V81.125H137.25V77.375ZM141 98.625H137.25V94.875H141V98.625ZM166.75 98.625H163V94.875H166.75V98.625ZM164.25 93.625H162.375C162.03 93.625 161.75 93.9048 161.75 94.25V96.125H142.25V94.25C142.25 93.9048 141.97 93.625 141.625 93.625H139.75V82.375H141.625C141.97 82.375 142.25 82.0952 142.25 81.75V79.875H161.75V81.75C161.75 82.0952 162.03 82.375 162.375 82.375H164.25V93.625Z" fill="#9EA6BF"/>
<path d="M154.5 91.75H154.287L150.7 83.3788C150.601 83.149 150.375 83 150.125 83H147.625C147.375 83 147.149 83.149 147.051 83.3788L143.463 91.75H142.625C141.796 91.7831 141.796 92.9672 142.625 93H145.125C145.954 92.9669 145.954 91.7828 145.125 91.75H144.823L145.626 89.875H149.624L150.427 91.75H150.125C149.296 91.7831 149.296 92.9672 150.125 93H154.5C155.329 92.9669 155.329 91.7828 154.5 91.75ZM146.162 88.625L147.625 85.2116L149.088 88.625H146.162ZM148.573 84.25H149.713L152.927 91.75H151.787L148.573 84.25Z" fill="#9EA6BF"/>
<path d="M159.465 86.4977C159.365 86.2717 159.142 86.1257 158.895 86.125H158.893C158.647 86.125 158.423 86.2697 158.323 86.4947L155.805 92.1197C155.664 92.4347 155.805 92.8045 156.12 92.9455C156.435 93.0866 156.805 92.9454 156.946 92.6304L157.619 91.125H160.14L160.803 92.6273C160.943 92.9463 161.319 93.085 161.627 92.9468C161.943 92.8075 162.086 92.4385 161.947 92.1227L159.465 86.4977ZM158.179 89.875L158.889 88.2889L159.589 89.875H158.179Z" fill="#9EA6BF"/>
<rect x="232" y="104" width="64" height="64" rx="32" fill="#F1F5F9"/>
<g clip-path="url(#clip2)">
<path d="M248.625 124.75H271.126V147.25H248.625V124.75Z" fill="#E6E6F9"/>
<path d="M248.625 129.75H271.126V147.25H248.625V129.75Z" fill="#F8E3EE"/>
<path d="M250.5 131.625H269.251V134.75H250.5V131.625Z" fill="#E0C9ED"/>
<path d="M248.625 124.75H271.126V129.75H248.625V124.75Z" fill="#CECDF3"/>
<path d="M251.75 127.25C251.75 127.595 251.47 127.875 251.125 127.875C250.296 127.842 250.296 126.657 251.125 126.625C251.47 126.625 251.75 126.904 251.75 127.25Z" fill="#FF9C9B"/>
<path d="M254.25 127.25C254.25 127.595 253.97 127.875 253.625 127.875C252.796 127.842 252.796 126.657 253.625 126.625C253.97 126.625 254.25 126.904 254.25 127.25Z" fill="#FFF7BF"/>
<path d="M256.75 127.25C256.75 127.595 256.471 127.875 256.125 127.875C255.296 127.842 255.297 126.657 256.125 126.625C256.471 126.625 256.75 126.904 256.75 127.25Z" fill="#F5FADE"/>
<path d="M251.125 137.25H257.375V143.5H251.125V137.25Z" fill="#DCE2F9"/>
<path d="M270.313 141.313L268.751 142.875H265L268.438 139.438" fill="#DCE2F9"/>
<path d="M276.358 130.893L268.126 139.125L270.626 141.625L278.858 133.393C279.549 132.702 279.549 131.583 278.858 130.893C278.168 130.202 277.049 130.202 276.358 130.893Z" fill="#FFF7BF"/>
<path d="M257.375 136.625H251.125C250.78 136.625 250.5 136.905 250.5 137.25V143.5C250.5 143.845 250.78 144.125 251.125 144.125H257.375C257.72 144.125 258 143.845 258 143.5V137.25C258 136.905 257.72 136.625 257.375 136.625ZM256.75 141.991L252.634 137.875H256.75V141.991ZM251.75 138.759L255.866 142.875H251.75V138.759Z" fill="#B578D3"/>
<path d="M259.875 138.5H266.126C266.955 138.467 266.954 137.283 266.126 137.25H259.875C259.046 137.283 259.047 138.467 259.875 138.5Z" fill="#B578D3"/>
<path d="M264.876 140.375C264.876 140.03 264.596 139.75 264.251 139.75H259.875C259.046 139.783 259.047 140.967 259.875 141H264.251C264.596 141 264.876 140.72 264.876 140.375Z" fill="#B578D3"/>
<path d="M263 142.25H259.875C259.046 142.283 259.047 143.467 259.875 143.5H263C263.83 143.467 263.829 142.283 263 142.25Z" fill="#B578D3"/>
<path d="M279.3 130.451C278.367 129.518 276.849 129.518 275.916 130.451L271.751 134.616V124.75C271.751 124.404 271.471 124.125 271.126 124.125H248.625C248.28 124.125 248 124.404 248 124.75V147.25C248 147.596 248.28 147.875 248.625 147.875H271.126C271.471 147.875 271.751 147.596 271.751 147.25V141.384L279.3 133.835C280.233 132.902 280.233 131.384 279.3 130.451ZM270.501 125.375V129.125H249.25V125.375H270.501ZM249.25 146.625V130.375H270.501V135.866L267.684 138.683C267.485 138.882 267.448 139.182 267.574 139.418L264.559 142.433C264.38 142.612 264.326 142.881 264.423 143.114C264.52 143.348 264.748 143.5 265.001 143.5H268.751C268.916 143.5 269.075 143.434 269.193 143.317L270.333 142.177C270.386 142.206 270.443 142.226 270.501 142.238V146.625H249.25V146.625ZM268.438 140.322L269.429 141.313L268.492 142.25H266.51L268.438 140.322ZM278.416 132.951L270.626 140.741L269.01 139.125L276.8 131.335C277.226 130.891 277.991 130.891 278.416 131.335C278.86 131.76 278.86 132.525 278.416 132.951Z" fill="#B578D3"/>
</g>
<defs>
<clipPath id="clip0">
<rect width="32" height="32" fill="white" transform="translate(16 176)"/>
</clipPath>
<clipPath id="clip1">
<rect width="32" height="32" fill="white" transform="translate(376 64)"/>
</clipPath>
<clipPath id="clip2">
<rect width="32" height="32" fill="white" transform="translate(248 120)"/>
</clipPath>
</defs>
</svg>
