<svg width="56" height="56" viewBox="0 0 56 56" fill="none" xmlns="http://www.w3.org/2000/svg">
<g clip-path="url(#clip0)">
<path d="M27.8646 13.5674C30.4531 13.5642 32.5507 11.4666 32.5538 8.87816V7.32654C32.5407 4.74579 30.4454 2.6604 27.8646 2.6604C25.2839 2.6604 23.1881 4.74579 23.1754 7.32654V8.87816C23.1782 11.4666 25.2758 13.5642 27.8646 13.5674ZM24.7953 7.32654C24.8057 5.63843 26.1765 4.27574 27.8646 4.27574C29.5523 4.27574 30.9236 5.63843 30.934 7.32654V8.87816C30.9317 10.5726 29.5591 11.9452 27.8646 11.9475C26.1702 11.9457 24.7971 10.5726 24.7953 8.87816V7.32654Z" fill="#A982E1"/>
<path d="M9.24644 40.164C11.8349 40.1608 13.9325 38.0632 13.9356 35.4748V33.9236C13.9356 31.3338 11.8362 29.2344 9.24644 29.2344C6.65665 29.2344 4.55725 31.3338 4.55725 33.9236V35.4752C4.56041 38.0636 6.65801 40.1613 9.24644 40.164ZM6.17711 33.9236C6.17711 32.2282 7.5511 30.8542 9.24644 30.8542C10.9413 30.8542 12.3158 32.2282 12.3158 33.9236V35.4752C12.3158 37.1701 10.9413 38.5445 9.24644 38.5445C7.5511 38.5445 6.17711 37.1701 6.17711 35.4752V33.9236Z" fill="#A982E1"/>
<path d="M46.482 40.164C49.0709 40.1608 51.1685 38.0632 51.1712 35.4748V33.9236C51.1712 31.3338 49.0718 29.2344 46.482 29.2344C43.8926 29.2344 41.7932 31.3338 41.7932 33.9236V35.4752C41.796 38.0636 43.894 40.1608 46.482 40.164ZM43.4131 33.9236C43.4131 32.2282 44.7871 30.8542 46.482 30.8542C48.1773 30.8542 49.5513 32.2282 49.5513 33.9236V35.4752C49.5513 37.1701 48.1773 38.5445 46.482 38.5445C44.7871 38.5445 43.4131 37.1701 43.4131 35.4752V33.9236Z" fill="#A982E1"/>
<path d="M51.16 40.2433H50.1806C49.8425 40.2433 49.5401 40.4531 49.4217 40.7699L48.4821 43.2833L47.7268 41.9351C47.5835 41.6793 47.3137 41.5211 47.0204 41.5206H46.0961C45.7937 41.5206 45.5162 41.6896 45.377 41.9581L44.7587 43.1513L43.9474 40.7907C43.8349 40.4635 43.5276 40.2438 43.1813 40.2438H42.0772C39.957 40.242 38.0831 41.6223 37.4562 43.648L31.8608 39.5405C32.297 38.4034 32.2093 37.1315 31.6213 36.0653C31.0328 34.9987 30.0041 34.2461 28.81 34.0084V26.8406L36.5518 26.8397C36.9988 26.8397 37.3618 26.4772 37.3618 26.0298V18.932C37.487 17.5766 37.0359 16.2311 36.1189 15.2254C35.2018 14.2193 33.9033 13.6462 32.5424 13.6462H31.563C31.2249 13.6462 30.9226 13.856 30.8041 14.1723L29.864 16.6862L29.1092 15.338C28.966 15.0822 28.6957 14.9235 28.4028 14.9235H27.4785C27.1757 14.9235 26.8987 15.0921 26.7595 15.361L26.1407 16.5542L25.3299 14.194C25.2173 13.8668 24.9095 13.6471 24.5638 13.6471H23.4592C22.0983 13.6471 20.7998 14.2198 19.8823 15.2254C18.9652 16.2311 18.5137 17.5766 18.6385 18.932V26.0316C18.6385 26.479 19.0009 26.8415 19.4484 26.8415L27.1902 26.8411V34.0084C25.9956 34.2461 24.9669 34.9991 24.3789 36.0658C23.7909 37.1324 23.7037 38.4043 24.1398 39.5414L18.544 43.648C17.9176 41.6228 16.0441 40.2424 13.9244 40.2438H12.9445C12.6069 40.2438 12.3045 40.4535 12.1861 40.7699L11.246 43.2837L10.4908 41.9351C10.3475 41.6793 10.0777 41.5211 9.78435 41.5211H8.86052C8.5577 41.5211 8.28019 41.6896 8.14099 41.9581L7.52269 43.1513L6.71141 40.7902C6.59886 40.463 6.29152 40.2433 5.94532 40.2433H4.84115C3.47982 40.2433 2.18131 40.8164 1.26426 41.8225C0.346759 42.8282 -0.10476 44.1737 0.0204359 45.5291V52.6291C0.0204359 53.0766 0.383368 53.4391 0.830367 53.4391L17.9338 53.4368C18.3808 53.4368 18.7438 53.0743 18.7438 52.6269V45.5291C18.7438 45.5228 18.7442 45.516 18.7451 45.5097L25.0094 40.9132C25.7882 41.733 26.8697 42.1977 28.001 42.1972C29.1318 42.1972 30.2134 41.7321 30.9922 40.9118L37.2551 45.5093C37.256 45.516 37.256 45.5224 37.2565 45.5291V52.6287C37.2565 53.0761 37.6189 53.4386 38.0664 53.4386L55.1694 53.4368C55.6169 53.4368 55.9793 53.0739 55.9793 52.6269V45.5291C56.105 44.1737 55.6535 42.8282 54.7364 41.8225C53.8194 40.8169 52.5213 40.2433 51.16 40.2433ZM20.2542 18.8114C20.1625 17.9052 20.4585 17.0026 21.0696 16.3273C21.6802 15.6516 22.5484 15.2661 23.4592 15.2666H23.9853L25.2232 18.8697C25.3254 19.1675 25.5916 19.3795 25.9048 19.412C26.218 19.445 26.5222 19.2932 26.684 19.0229C26.6926 19.0084 26.7007 18.9935 26.7084 18.9786L27.9495 16.5831L29.304 19.0021C29.4582 19.2773 29.7583 19.4378 30.0728 19.4138C30.387 19.3899 30.6591 19.1856 30.7693 18.89L32.1243 15.2661H32.542C33.4527 15.2666 34.3205 15.6521 34.9311 16.3273C35.5417 17.003 35.8373 17.9052 35.7455 18.8114C35.7428 18.8385 35.7415 18.8656 35.7415 18.8932V25.2203L20.2583 25.2221V18.8927C20.2583 18.8656 20.257 18.8385 20.2542 18.8114ZM17.128 45.4085C17.1253 45.4356 17.1239 45.4627 17.1239 45.4903V51.8169L1.6403 51.8192V45.4898C1.6403 45.4627 1.63894 45.4356 1.63623 45.408C1.54448 44.5023 1.84097 43.5997 2.45158 42.924C3.0622 42.2483 3.93043 41.8628 4.84115 41.8632H5.3677L6.60564 45.4663C6.71095 45.7732 6.98891 45.9874 7.31253 46.0114C7.63568 46.0349 7.94212 45.8636 8.09127 45.5752L9.33238 43.1802L10.6869 45.5987C10.8411 45.8735 11.1407 46.0344 11.4553 46.0105C11.7699 45.9861 12.0415 45.7818 12.1522 45.4862L13.5068 41.8628H13.9244C14.8351 41.8632 15.7029 42.2492 16.314 42.9244C16.9282 43.5979 17.2247 44.5023 17.128 45.4085ZM28.0001 40.5773C26.618 40.5692 25.5016 39.447 25.5003 38.0644C25.4994 36.6823 26.6139 35.5582 27.9965 35.5483H28.0037C29.3859 35.5582 30.5009 36.6823 30.4995 38.0644C30.4986 39.447 29.3822 40.5692 28.0001 40.5773ZM54.3635 45.4085C54.3608 45.4356 54.3595 45.4627 54.3595 45.4903V51.8169L38.8763 51.8188V45.4898C38.8763 45.4627 38.875 45.4351 38.8723 45.408C38.7805 44.5018 39.0765 43.5992 39.6872 42.924C40.2982 42.2483 41.1665 41.8628 42.0772 41.8632H42.6033L43.8412 45.4663C43.9465 45.7732 44.2249 45.9874 44.5481 46.0109C44.8717 46.0349 45.1781 45.8631 45.3268 45.5752L46.568 43.1802L47.9225 45.5992C48.0766 45.8744 48.3763 46.0349 48.6909 46.0109C49.0054 45.987 49.2775 45.7827 49.3878 45.4871L50.7428 41.8632H51.1604C52.0711 41.8632 52.9389 42.2487 53.5495 42.9244C54.1597 43.6001 54.4557 44.5027 54.364 45.4085H54.3635Z" fill="#A982E1"/>
</g>
<defs>
<clipPath id="clip0">
<rect width="56" height="56" fill="white"/>
</clipPath>
</defs>
</svg>
