<svg width="56" height="56" viewBox="0 0 56 56" fill="none" xmlns="http://www.w3.org/2000/svg">
<rect width="56" height="56" rx="8" fill="#FCEEF7"/>
<g clip-path="url(#clip0)">
<path d="M44.6218 15.4748H39.0439C39.0374 15.3393 38.9844 15.2104 38.894 15.1094L32.6725 8.19502C32.5607 8.07103 32.4015 8 32.2348 8H19.8402C18.2285 8.00164 16.9222 9.30789 16.9206 10.9197V15.4744H11.344C10.1542 15.4754 9.18998 16.4397 9.18866 17.6295V40.1863C9.18998 41.3761 10.1542 42.3404 11.344 42.3414H22.0841L20.8446 46.8215H18.3564C18.0308 46.8215 17.7671 47.0852 17.7671 47.4108C17.7671 47.736 18.0308 48.0001 18.3564 48.0001H37.6094C37.935 48.0001 38.1988 47.736 38.1988 47.4108C38.1988 47.0852 37.935 46.8215 37.6094 46.8215H35.1213L33.8818 42.3414H44.6218C45.8116 42.3404 46.7759 41.3761 46.7772 40.1863V17.6295C46.7755 16.44 45.8116 15.4757 44.6218 15.4748ZM45.5985 17.6298V35.1274H39.0453V16.6534H44.6218C45.1608 16.6541 45.5975 17.0908 45.5982 17.6295L45.5985 17.6298ZM32.8238 10.1255L36.6781 14.4092H33.3996C33.082 14.4089 32.8245 14.1514 32.8238 13.8334V10.1255ZM19.8402 9.17865H31.6452V13.8334C31.6461 14.8019 32.4311 15.5869 33.3996 15.5879H37.7387L37.8666 15.7296V35.1274H18.0992V10.9197C18.0999 9.95839 18.879 9.17964 19.8402 9.17865ZM11.344 16.6534H16.9206V35.1274H10.3676V17.6295C10.3683 17.0908 10.805 16.6541 11.344 16.6534ZM33.8982 46.8211H22.0676L23.3071 42.341H32.6587L33.8982 46.8211ZM44.6218 41.1624H11.344C10.8047 41.162 10.368 40.725 10.3673 40.186V36.306H45.5982V40.1863C45.5975 40.725 45.1608 41.162 44.6218 41.1624Z" fill="#EEA2D4"/>
<path d="M21.2773 32.7681H34.6887C35.0143 32.7681 35.2781 32.5044 35.2781 32.1788C35.2781 31.8532 35.0143 31.5895 34.6887 31.5895H21.2773C20.9517 31.5895 20.688 31.8532 20.688 32.1788C20.688 32.5044 20.9517 32.7681 21.2773 32.7681Z" fill="#EEA2D4"/>
<path d="M21.2773 29.9641H29.3062C29.6318 29.9641 29.8955 29.7003 29.8955 29.3747C29.8955 29.0492 29.6318 28.7854 29.3062 28.7854H21.2773C20.9517 28.7854 20.688 29.0492 20.688 29.3747C20.688 29.7003 20.9517 29.9641 21.2773 29.9641Z" fill="#EEA2D4"/>
<path d="M22.0085 26.031C22.0124 26.3536 22.2752 26.6127 22.5978 26.6127H22.6037L33.521 26.5006C33.6775 26.4989 33.8272 26.4351 33.9367 26.323C34.0459 26.2112 34.1064 26.0602 34.1044 25.9037L34.0653 22.8834C34.1366 21.9978 33.8324 21.123 33.2267 20.4728C32.6212 19.823 31.7698 19.4576 30.8815 19.4668L30.2564 19.4731C29.9926 19.4757 29.7631 19.653 29.6937 19.9072L29.1123 22.0385L28.8998 21.6682L29.3056 20.3245C29.3599 20.1449 29.3257 19.9503 29.2129 19.8003C29.1014 19.649 28.9235 19.5612 28.7357 19.5645L28.2263 19.5698C29.7798 19.3836 30.945 18.059 30.9309 16.4942L30.9075 14.1807C30.894 12.8438 29.7989 11.7711 28.4621 11.7845L25.8157 11.8115C25.2287 11.8181 24.7574 12.2989 24.7627 12.8859L24.8002 16.5567C24.818 18.1208 26.0088 19.4214 27.5653 19.5763L27.1549 19.5806C26.9671 19.5826 26.7918 19.6737 26.6823 19.8259C26.5728 19.9782 26.5422 20.1732 26.6001 20.3518L27.0365 21.6968L26.9108 21.9455L26.3636 19.8976C26.2893 19.6204 26.0262 19.4366 25.7401 19.4632L25.058 19.526C24.1737 19.5421 23.3368 19.9276 22.7497 20.5892C22.1627 21.2509 21.8799 22.128 21.9693 23.008L22.0085 26.031ZM28.4736 12.9632C29.0416 12.9566 29.5411 13.3371 29.6858 13.8863C28.4207 14.3379 27.3969 13.6249 26.779 12.9803L28.4736 12.9632ZM25.9506 13.8113C25.9706 13.8321 25.9913 13.8534 26.0124 13.8742C25.992 13.887 25.9713 13.8995 25.9515 13.913L25.9506 13.8113ZM25.9782 16.5445L25.9686 15.5935C26.0995 15.3586 26.4393 14.8657 27.0526 14.6914C27.6031 15.0285 28.2345 15.21 28.8797 15.2169C29.1691 15.2162 29.4576 15.1788 29.7378 15.1051L29.7519 16.5067C29.7611 17.5482 28.9258 18.401 27.8839 18.4128H27.8652C26.8309 18.4115 25.99 17.5788 25.9782 16.5445ZM23.6298 21.3729C24.0001 20.9503 24.5335 20.707 25.0952 20.7043C25.1113 20.7043 25.1274 20.7034 25.1435 20.7017L25.3527 20.6826L26.1706 23.7417C26.2314 23.9696 26.4222 24.139 26.6556 24.1729C26.8891 24.2064 27.12 24.0979 27.243 23.8963C27.2512 23.8828 27.2588 23.869 27.266 23.8549L27.9823 22.4378L28.7959 23.8565C28.9143 24.0634 29.1455 24.1781 29.3816 24.1479C29.618 24.1176 29.8127 23.9483 29.8755 23.7184L30.7132 20.6471L30.8931 20.6455H30.9144C31.4715 20.6458 32.0026 20.8803 32.3782 21.292C32.7538 21.7038 32.9389 22.2543 32.8883 22.8091C32.8863 22.8295 32.8856 22.8498 32.886 22.8702L32.9179 25.3285L23.1792 25.4281L23.1473 22.9656C23.1473 22.9462 23.146 22.9268 23.1437 22.9077C23.0786 22.35 23.2555 21.7912 23.6298 21.3729Z" fill="#EEA2D4"/>
</g>
<defs>
<clipPath id="clip0">
<rect width="40" height="40" fill="white" transform="translate(8 8)"/>
</clipPath>
</defs>
</svg>
