<svg width="56" height="56" viewBox="0 0 56 56" fill="none" xmlns="http://www.w3.org/2000/svg">
<g clip-path="url(#clip0)">
<path d="M47.9241 39.2748L40.08 43.2449C38.9471 41.2369 36.8193 39.9958 34.514 39.998H27.2156C26.0502 39.9916 24.9002 39.731 23.8462 39.2343L23.0959 38.8656C19.2767 37.0122 14.7946 37.1289 11.0771 39.1795V36.5193H1.02316V56H11.0771V54.0902L13.0142 52.985C13.829 52.5192 14.7919 52.3871 15.7021 52.6167L28.2116 55.7544L28.2798 55.7682C29.0589 55.9047 29.8486 55.9729 30.6399 55.9729C32.6974 55.9755 34.7282 55.5045 36.5742 54.5948L36.6285 54.5676L55.0994 41.8807L54.6358 41.1165C53.2461 38.8134 50.2949 38.0039 47.9241 39.2748ZM2.93303 54.104V38.443H9.16727V52.9988L9.09906 53.0399L9.16727 53.1491V54.104H2.93303ZM35.6597 52.9306C33.484 53.9863 31.0305 54.33 28.648 53.9127L16.1795 50.7751C14.7898 50.4234 13.3179 50.6237 12.0731 51.3346L11.0771 51.9075V41.4304C14.3848 39.1608 18.6569 38.8427 22.2635 40.5985L23.0138 40.9668C24.321 41.594 25.7523 41.9201 27.2018 41.9217H34.5002C36.6013 41.9249 38.4169 43.3887 38.8656 45.4414H27.9249V47.3513H40.8847V46.3964C40.8815 45.9471 40.8357 45.4995 40.7483 45.0593L48.7837 40.9939L48.8108 40.9801C49.988 40.3417 51.4412 40.5229 52.4259 41.4304L35.6597 52.9306Z" fill="#A982E1"/>
<path d="M26.1786 36.0146C36.1239 36.0146 44.1859 27.9526 44.1859 18.0073C44.1859 8.06204 36.1239 0 26.1786 0C16.2339 0 8.17133 8.06204 8.17133 18.0073C8.18145 27.9483 16.2376 36.005 26.1786 36.0146ZM27.1336 33.7094V24.8554C29.2891 24.9775 31.3972 25.5391 33.3273 26.5063C31.9903 29.6168 29.8758 32.1128 27.1336 33.7094ZM27.1336 22.9322V18.9622H34.9372C34.8732 20.9051 34.5572 22.831 33.9956 24.6918C31.848 23.6559 29.515 23.0575 27.1336 22.9322ZM27.1336 17.0524V13.0824C29.5113 12.9587 31.8395 12.3603 33.9822 11.3228C34.5498 13.182 34.8663 15.1089 34.9233 17.0524H27.1336ZM27.1336 11.1725V2.30527C29.8758 3.88794 31.9903 6.38452 33.3273 9.5083C31.3977 10.4798 29.2902 11.0462 27.1336 11.1725ZM25.2237 2.30527V11.1592C23.0671 11.0382 20.9563 10.4861 19.0166 9.53548C20.3537 6.41169 22.4681 3.9018 25.2237 2.30527ZM25.2237 13.0824V17.0524H17.4206C17.4851 15.1185 17.8017 13.2017 18.3623 11.35C20.5135 12.3726 22.8449 12.9614 25.2237 13.0824ZM25.2237 18.9622V22.9322C22.8449 23.0532 20.5135 23.6421 18.3623 24.6647C17.8017 22.8129 17.4851 20.8961 17.4206 18.9622H25.2237ZM25.2237 24.8421V33.6955C22.4681 32.1128 20.3537 29.6029 19.0166 26.4653C20.9611 25.5274 23.0692 24.9759 25.2237 24.8421ZM21.6363 33.4498C19.0731 32.6915 16.7391 31.3087 14.8425 29.4255C15.6051 28.6709 16.4412 27.9941 17.3391 27.4064C18.3287 29.7015 19.7931 31.7611 21.6363 33.4498ZM34.9915 27.4474C35.883 28.032 36.7106 28.7087 37.4609 29.4665C35.5713 31.3289 33.2522 32.6974 30.7082 33.4498C32.5498 31.7798 34.011 29.7324 34.9915 27.4474ZM35.6875 25.6329C36.3919 23.4769 36.7825 21.2302 36.847 18.9622H42.2489C42.0544 22.2795 40.8341 25.4544 38.7569 28.048C37.8243 27.1341 36.7948 26.3241 35.6875 25.6329ZM36.847 17.0524C36.7825 14.7844 36.3919 12.5378 35.6875 10.3817C36.7905 9.69001 37.8153 8.88056 38.743 7.96666C40.8261 10.557 42.0469 13.7341 42.2356 17.0524H36.847ZM34.9915 8.56722C34.0073 6.28433 32.5466 4.23752 30.7082 2.56478C33.2522 3.31722 35.5713 4.68567 37.4609 6.54811C36.7074 7.30215 35.8798 7.97838 34.9915 8.56722ZM17.3524 8.5944C16.4524 8.01035 15.6158 7.33359 14.8559 6.57529C16.7524 4.69207 19.087 3.30923 21.6496 2.55093C19.8048 4.23752 18.3399 6.29766 17.3524 8.5944ZM16.657 10.4222C15.9643 12.5676 15.5785 14.7993 15.5108 17.0524H10.1089C10.305 13.7527 11.5152 10.5938 13.5737 8.00769C14.5047 8.92905 15.539 9.73957 16.657 10.4222ZM15.5108 18.9622C15.5774 21.2153 15.9632 23.4475 16.657 25.5924C15.5417 26.2788 14.5073 27.0888 13.5737 28.0069C11.5163 25.4198 10.3066 22.2619 10.1089 18.9622H15.5108Z" fill="#A982E1"/>
</g>
<defs>
<clipPath id="clip0">
<rect width="56" height="56" fill="white"/>
</clipPath>
</defs>
</svg>
