<svg width="56" height="56" viewBox="0 0 56 56" fill="none" xmlns="http://www.w3.org/2000/svg">
<rect width="56" height="56" rx="8" fill="#EFE8F8"/>
<path d="M45.8499 15.4771H40.2851C40.2786 15.3423 40.2257 15.2137 40.1355 15.1129L33.9284 8.21482C33.8171 8.09113 33.6583 8.02026 33.4917 8.02026H21.1266C19.5186 8.0219 18.2154 9.32508 18.2138 10.9331V15.4768H12.6504C11.4633 15.4781 10.5014 16.4401 10.5001 17.6271V33.3089C8.96262 34.1291 8.00131 35.7292 8 37.4717V44.6998C8 45.0246 8.26313 45.2878 8.58794 45.2878H16.2246L16.1176 46.4295C16.0973 46.6457 16.198 46.8557 16.3798 46.9755L17.6757 47.8285C17.8739 47.9591 18.1311 47.9575 18.328 47.8246L19.5924 46.9719C19.7706 46.8515 19.869 46.6438 19.849 46.4299L19.742 45.2881H22.5334L22.1289 46.7497H20.4858C20.1613 46.7497 19.8979 47.0132 19.8979 47.3377C19.8979 47.6625 20.1613 47.9256 20.4858 47.9256H38.0141C38.3389 47.9256 38.602 47.6625 38.602 47.3377C38.602 47.0132 38.3389 46.7497 38.0141 46.7497H36.3713L35.1348 42.2805H45.8499C47.0369 42.2792 47.9989 41.3172 47.9999 40.1305V17.6271C47.9985 16.4401 47.0366 15.4784 45.8499 15.4771ZM46.824 17.6274V35.0838H40.2864V16.653H45.8499C46.3876 16.6536 46.8233 17.0894 46.824 17.6271V17.6274ZM34.0796 10.1407L37.9252 14.4144H34.6541C34.3372 14.4141 34.0799 14.1569 34.0796 13.8399V10.1407ZM21.1778 25.8044V27.3796C21.1778 29.23 19.6777 30.7301 17.8273 30.7301C15.9769 30.7301 14.4768 29.23 14.4768 27.3796V25.8044C14.4768 23.954 15.9769 22.454 17.8273 22.454C19.6777 22.454 21.1778 23.954 21.1778 25.8044ZM11.6763 17.6271C11.6769 17.0894 12.1126 16.6533 12.6507 16.6527H18.2141V21.2958C18.0865 21.285 17.9579 21.2781 17.8276 21.2781C15.3289 21.2807 13.3042 23.3057 13.3013 25.8044V27.3796C13.3013 29.8796 15.3279 31.9063 17.8276 31.9063C20.3274 31.9063 22.354 29.8796 22.354 27.3796V25.8044C22.3517 23.9074 21.1692 22.2125 19.3897 21.556V10.9331C19.3907 9.97404 20.1676 9.19713 21.1266 9.19614H32.9037V13.8399C32.9051 14.8062 33.6879 15.589 34.6541 15.59H38.9833L39.1106 15.7317V35.0838H27.0027C26.6477 34.4811 26.1634 33.964 25.5853 33.57H35.9399C36.2644 33.57 36.5278 33.3066 36.5278 32.9821C36.5278 32.6573 36.2644 32.3941 35.9399 32.3941H22.56C22.3235 32.3938 22.1099 32.5355 22.018 32.7534H21.8025C21.5544 32.7534 21.333 32.9092 21.249 33.1425L19.1505 38.9773L18.9205 36.5182C19.1187 36.4733 19.2794 36.3289 19.3457 36.1367L20.1335 33.8279C20.1945 33.6488 20.1656 33.4512 20.0557 33.297C19.9458 33.1428 19.7683 33.051 19.579 33.0503L16.2964 33.0385C16.1068 33.0395 15.929 33.13 15.8171 33.2833C15.7062 33.4375 15.6767 33.6356 15.7377 33.8154L16.5254 36.136C16.6019 36.3604 16.8066 36.5169 17.0435 36.5317L16.8125 39.0052L14.6691 33.1396C14.5845 32.9076 14.3637 32.7534 14.1169 32.7534H12.7186C12.3679 32.7537 12.0181 32.7931 11.6763 32.8708V17.6271ZM18.369 35.3591H17.5038L17.1163 34.2173L18.7565 34.2232L18.369 35.3591ZM9.17621 44.1119V37.4717C9.1785 35.5162 10.7632 33.9316 12.7186 33.9293H13.7058L16.5569 41.7323L16.3342 44.1116L9.17621 44.1119ZM17.9946 46.6313L17.3207 46.1874L17.9828 39.1164L18.6452 46.192L17.9946 46.6313ZM19.409 41.7346L22.2162 33.9296H22.936C24.8914 33.9316 26.4761 35.5162 26.4784 37.472V44.1122H19.6315L19.409 41.7346ZM35.1515 46.7501H23.3487L23.7533 45.2881H27.0663C27.3912 45.2881 27.6543 45.0246 27.6543 44.7002V42.2805H33.9149L35.1515 46.7501ZM45.8499 41.1046H27.6543V37.472C27.6543 37.0625 27.6011 36.6551 27.4961 36.2597H46.824V40.1308C46.8233 40.6683 46.3876 41.104 45.8499 41.1046Z" fill="#A982E1"/>
<path d="M22.5604 30.7726H30.57C30.8948 30.7726 31.158 30.5094 31.158 30.1846C31.158 29.8598 30.8948 29.5967 30.57 29.5967H22.5604C22.2355 29.5967 21.9724 29.8598 21.9724 30.1846C21.9724 30.5094 22.2355 30.7726 22.5604 30.7726Z" fill="#A982E1"/>
<path d="M29.2501 19.2482C30.9119 19.2462 32.2584 17.8994 32.2603 16.238V15.2353C32.2603 13.5729 30.9125 12.2251 29.2501 12.2251C27.5877 12.2251 26.2399 13.5729 26.2399 15.2353V16.238C26.2418 17.8994 27.5883 19.2462 29.2501 19.2482ZM27.2478 15.2353C27.2478 14.1293 28.1441 13.233 29.2501 13.233C30.3558 13.233 31.2524 14.1293 31.2524 15.2353V16.238C31.2524 17.3436 30.3558 18.2403 29.2501 18.2403C28.1441 18.2403 27.2478 17.3436 27.2478 16.238V15.2353Z" fill="#A982E1"/>
<path d="M23.3708 26.924H28.0956L28.0333 27.5014C28.0129 27.6891 28.0995 27.8725 28.2574 27.9765L29.0822 28.5195C29.2521 28.6314 29.4726 28.6301 29.6412 28.5162L30.4457 27.9732C30.6006 27.8686 30.6849 27.6871 30.6649 27.5014L30.6029 26.924H35.1299C35.4081 26.924 35.6338 26.6983 35.6338 26.42V22.6601C35.6318 20.9307 34.2306 19.5295 32.5012 19.5278H31.7801C31.5675 19.5278 31.3778 19.661 31.306 19.8612L30.1793 22.9931L30.0874 22.1404C30.2062 22.0814 30.2968 21.978 30.3394 21.8527L30.8407 20.3832C30.8932 20.2296 30.8683 20.0603 30.7741 19.9281C30.68 19.7959 30.5277 19.7171 30.3657 19.7165L28.2767 19.7093C28.1143 19.7109 27.9621 19.7887 27.8659 19.9192C27.7708 20.0515 27.7455 20.2211 27.7977 20.3753L28.299 21.852C28.3489 21.998 28.4627 22.1132 28.6084 22.1644L28.5165 23.0177L27.3623 19.8592C27.2898 19.6604 27.1005 19.5282 26.8889 19.5282H25.9991C24.2701 19.5301 22.8688 20.9314 22.8668 22.6604V26.42C22.8668 26.6983 23.0925 26.924 23.3708 26.924ZM29.3558 27.4929L29.0684 27.3036L29.3492 24.6976L29.6304 27.3079L29.3558 27.4929ZM32.1344 20.5357H32.5012C33.6738 20.537 34.6243 21.4875 34.6256 22.6601V25.9161H30.4946L30.4264 25.2855L32.1344 20.5357ZM29.6603 20.7221L29.5018 21.1857H29.1373L28.9788 20.7195L29.6603 20.7221ZM23.8747 22.6601C23.876 21.4875 24.8265 20.537 25.9991 20.5357H26.5365L28.2721 25.2855L28.2042 25.9161H23.8747V22.6601Z" fill="#A982E1"/>
</svg>
