<svg width="112" height="112" viewBox="0 0 112 112" fill="none" xmlns="http://www.w3.org/2000/svg">
<path d="M2.74527 69.7961C3.3595 70.2217 4.00753 70.5963 4.68287 70.9161C5.49114 71.3287 6.8426 72.0193 6.9378 72.5046C7.05661 73.142 6.9805 73.8003 6.7194 74.3937C6.44127 74.991 6.1482 75.5044 5.89807 75.9486C5.213 77.1545 4.0706 79.1761 5.7954 80.5873C6.1986 80.9606 6.89487 81.5001 7.5314 81.9873C7.06364 82.8041 6.85166 83.7424 6.92287 84.6809C7.02092 85.4155 7.41727 86.0772 8.0186 86.5102C8.4386 86.8089 8.88847 87.0702 9.32527 87.3222C10.4229 87.9476 10.8522 88.2388 11.0053 88.8156C11.1057 89.575 11.0355 90.3472 10.7999 91.0761C10.6898 91.5614 10.5834 92.0449 10.5143 92.5415C10.3293 94.244 10.5454 95.9662 11.1453 97.5703C11.983 100.543 14.6711 102.614 17.7589 102.666C18.2713 102.664 18.7823 102.611 19.2839 102.506C24.6167 101.242 29.8715 99.6694 35.0218 97.7961C39.2255 100.264 41.8837 107.768 42.5762 110.585C42.7837 111.417 43.5313 112 44.3887 112L91.2421 111.869C91.8359 111.868 92.3937 111.584 92.7445 111.105C93.0953 110.626 93.1973 110.009 93.0191 109.442C92.5575 108.178 91.921 106.984 91.1282 105.896C90.6798 105.252 90.2757 104.578 89.9186 103.88C89.0745 102.168 88.3698 100.39 87.8111 98.5652C86.7464 94.9575 86.0073 91.2617 85.6029 87.522C84.9476 81.9373 85.7943 76.279 88.0557 71.1308C89.4356 68.2756 91.1366 65.587 93.1255 63.1172C94.2455 61.6052 95.4085 60.039 96.4519 58.3945C98.2461 55.6075 99.5468 52.5323 100.297 49.3038C100.512 48.3073 99.8875 47.3227 98.8944 47.0923C97.9013 46.8618 96.907 47.4708 96.661 48.4601C96.0047 51.2778 94.8681 53.9615 93.301 56.3934C92.3322 57.926 91.2122 59.4342 90.1277 60.894C87.9677 63.5892 86.1244 66.5235 84.6341 69.6393C82.1061 75.3969 81.1614 81.7251 81.8975 87.97C82.328 91.9361 83.1158 95.8552 84.2514 99.6796C84.8647 101.688 85.6394 103.643 86.5679 105.526C86.9935 106.367 87.4769 107.178 88.0146 107.953L88.1397 108.139L45.7999 108.266C44.5592 103.838 42.3096 99.7582 39.2274 96.3457L40.9074 95.7614C42.1618 95.3228 43.1082 94.9924 43.5973 94.8281C51.5903 92.2801 55.5887 88.6401 55.4786 84.0014C55.4734 83.506 55.2679 83.0337 54.9089 82.6922C54.5498 82.3508 54.0678 82.1692 53.5727 82.1889C52.5424 82.2134 51.7269 83.0682 51.7509 84.0985C51.7957 86.0081 50.2221 88.8044 42.4623 91.2758C41.9546 91.4382 40.969 91.7798 39.6791 92.2334C38.2922 92.7169 36.5338 93.3329 34.5925 93.9919H34.5794C29.3298 95.9168 23.9735 97.5373 18.5373 98.8452C16.7986 99.1721 15.1085 98.08 14.6919 96.3606C14.2905 95.307 14.1328 94.1762 14.2309 93.0529C14.285 92.6796 14.3727 92.2876 14.4586 91.9068C14.8559 90.6038 14.92 89.222 14.6453 87.8878C14.1032 86.1785 12.8459 84.7884 11.1994 84.078L10.7981 83.8484C10.9993 83.4397 11.2406 83.052 11.5186 82.691C11.8314 82.2938 11.9696 81.7867 11.9017 81.2856C11.8338 80.7846 11.5655 80.3326 11.1583 80.0329C10.7122 79.7044 9.665 78.9129 8.881 78.2895C8.9706 78.1271 9.06767 77.9478 9.16287 77.7873C9.45594 77.2721 9.79194 76.6673 10.1167 75.9822C10.7083 74.6747 10.8817 73.2163 10.6133 71.8065C10.1671 69.5292 7.985 68.4129 6.39274 67.599C5.85629 67.3438 5.34183 67.0448 4.8546 66.7049C4.45458 66.437 4.0797 66.1334 3.7346 65.7977C3.7346 65.514 4.03887 64.8289 5.4594 63.0985C8.79966 58.7948 11.6631 54.1413 13.9994 49.2198C14.438 48.4483 14.6851 47.5829 14.7199 46.6961C14.5244 44.8179 13.5259 43.1162 11.9815 42.0294C11.2255 41.335 10.5106 40.6817 10.4303 40.131C10.4474 39.6737 10.55 39.2235 10.7327 38.8038C11.037 38.0049 11.3898 37.2209 11.7407 36.435C12.5279 34.8137 13.1531 33.1186 13.6074 31.3745C14.0352 29.2825 14.5963 27.22 15.2874 25.1996C16.7587 21.1381 19.037 17.4165 21.985 14.259C25.5541 10.479 31.1727 7.80597 38.7141 6.30891C44.4825 5.04245 50.3358 4.19896 56.2271 3.78517C58.2094 3.68302 60.1964 3.72545 62.1725 3.91211C62.838 3.97413 63.4861 3.67637 63.8726 3.13098C64.2591 2.5856 64.3253 1.87545 64.0462 1.26805C63.7672 0.660645 63.1852 0.248262 62.5197 0.186241C60.3627 -0.0113993 58.1943 -0.0544425 56.0311 0.0574407C49.9578 0.47885 43.9235 1.34481 37.9767 2.64837C29.5599 4.32837 23.4429 7.27957 19.269 11.6924C15.9731 15.2158 13.4254 19.3706 11.7799 23.906C11.0235 26.1131 10.4093 28.3664 9.94127 30.6521C9.54231 32.1179 9.00607 33.5429 8.33967 34.9081C7.96634 35.7574 7.5818 36.6068 7.2458 37.4897C6.82098 38.4767 6.64656 39.5533 6.73807 40.6238C7.12421 42.2901 8.09267 43.7636 9.469 44.779C10.3837 45.6172 10.9866 46.207 10.9941 46.7222C10.9261 47.0056 10.8193 47.2782 10.6767 47.5324C8.44186 52.2393 5.70299 56.69 2.5082 60.8062C1.15674 62.4545 -0.26193 64.3753 0.0348698 66.298C0.432367 67.7805 1.40903 69.041 2.74527 69.7961Z" fill="#6F96B6"/>
<path d="M22.2843 27.7928C23.4084 24.6763 25.1507 21.8191 27.4064 19.3928C29.8947 16.7589 34.1974 14.8194 40.1968 13.6266C41.2082 13.4261 41.8655 12.4437 41.665 11.4324C41.4645 10.421 40.4821 9.76371 39.4707 9.96422C32.6966 11.312 27.7256 13.6192 24.6942 16.8224C22.0894 19.6181 20.0777 22.9124 18.7806 26.5066C18.1522 28.3714 17.6404 30.2735 17.248 32.2018L20.8936 33.0101C21.2514 31.2445 21.7158 29.5022 22.2843 27.7928Z" fill="#6F96B6"/>
<path d="M61.337 10.4534L60.217 16.0384C59.1373 16.393 58.0864 16.8298 57.0735 17.3451L52.334 14.1718C50.8532 13.202 48.8948 13.4054 47.645 14.659L44.5463 17.7558C43.2681 19.0106 43.0613 20.9964 44.0535 22.4878L47.2119 27.2048C46.6966 28.2177 46.2598 29.2686 45.9052 30.3483L40.3276 31.4683C38.5848 31.8203 37.3321 33.3527 37.3335 35.1307V39.536C37.3322 41.3111 38.581 42.8416 40.3202 43.1966L45.9052 44.3166C46.2598 45.3962 46.6966 46.4471 47.2119 47.46L44.0386 52.1995C43.0688 53.6804 43.2722 55.6387 44.5258 56.8886L47.6244 59.9872C48.8815 61.2596 50.863 61.4652 52.3546 60.4782L57.0716 57.3198C58.0845 57.835 59.1354 58.2719 60.2151 58.6264L61.3351 64.204C61.6864 65.9476 63.2189 67.2013 64.9975 67.2H69.4028C71.1779 67.2013 72.7084 65.9525 73.0634 64.2134L74.1834 58.6283C75.2631 58.2737 76.314 57.8369 77.3268 57.3216L82.0663 60.495C83.5472 61.4648 85.5055 61.2613 86.7554 60.0078L89.8522 56.911C91.1303 55.6561 91.3371 53.6703 90.345 52.179L87.1866 47.4619C87.7019 46.449 88.1387 45.3981 88.4932 44.3184L94.0708 43.1984C95.1787 42.9744 96.1246 42.2587 96.6412 41.2534L99.4543 43.1387C99.9971 43.4806 100.625 43.6624 101.267 43.6632C102.162 43.6634 103.02 43.3067 103.651 42.672L106.133 40.1894C107.262 39.0546 107.444 37.2847 106.568 35.9446L104.16 32.3419C104.509 31.6399 104.811 30.9152 105.064 30.1728L109.288 29.331C110.868 29.0205 112.006 27.6321 112 26.0214V22.512C112.006 20.9073 110.876 19.5226 109.303 19.2062L105.06 18.3606C104.81 17.618 104.509 16.8933 104.16 16.1915L106.605 12.5459C107.453 11.2107 107.259 9.46605 106.139 8.34962L103.656 5.86696C102.522 4.73725 100.751 4.55585 99.4114 5.43202L95.8087 7.84002C95.1067 7.49074 94.382 7.18891 93.6396 6.93656L92.7959 2.71229C92.4855 1.13248 91.0982 -0.00513242 89.4882 2.11906e-05H85.9788C84.3742 -0.00564148 82.9894 1.12418 82.673 2.69735L81.8274 6.94029C81.0846 7.19248 80.3599 7.49496 79.6583 7.84562L76.0127 5.40029C74.6772 4.5544 72.9335 4.74831 71.8164 5.86696L70.1364 7.54696C69.8951 7.49662 69.6494 7.46974 69.4028 7.46669H64.9975C63.2225 7.46544 61.692 8.71418 61.337 10.4534ZM89.8746 17.7707L89.0028 16.899C92.2383 17.3321 94.8118 19.8269 95.3451 23.0474C95.8783 26.268 94.2463 29.4592 91.3231 30.912L88.4895 30.352C88.1349 29.2723 87.6981 28.2214 87.1828 27.2086L90.3562 22.4691C91.3295 20.9887 91.1283 19.0281 89.8746 17.7763V17.7707ZM74.2506 8.70616L78.5178 11.5734C79.1162 11.9746 79.8921 11.9957 80.5114 11.6275C81.5799 10.9986 82.7291 10.5182 83.9274 10.1995C84.612 10.0146 85.1328 9.45767 85.2714 8.76215L86.2738 3.73336H89.1932L90.1956 8.77335C90.3342 9.46887 90.855 10.0258 91.5396 10.2107C92.7379 10.5294 93.8871 11.0098 94.9556 11.6387C95.5771 12.0036 96.353 11.9781 96.9492 11.5734L101.216 8.70989L103.288 10.7819L100.427 15.051C100.026 15.6494 100.004 16.4253 100.373 17.0446C101.002 18.1131 101.482 19.2623 101.801 20.4606C101.986 21.1452 102.543 21.666 103.238 21.8046L108.278 22.807V25.7264L103.247 26.7288C102.552 26.8674 101.995 27.3882 101.81 28.0728C101.491 29.271 101.011 30.4203 100.382 31.4888C100.014 32.1081 100.035 32.884 100.436 33.4824L103.3 37.7496L101.228 39.8216L97.0668 37.0384V35.1307C97.067 34.0378 96.5897 32.9993 95.7602 32.2878C99.0465 29.1219 100.078 24.2758 98.3648 20.0463C96.6519 15.8168 92.5393 13.0537 87.9762 13.0667C86.8476 13.0738 85.727 13.2577 84.6554 13.6118C83.7433 13.4789 82.8141 13.6833 82.042 14.1867L77.3287 17.3451C76.3158 16.8298 75.2649 16.393 74.1852 16.0384L73.0652 10.4608C73.0322 10.3113 72.9892 10.1641 72.9364 10.0203L74.2506 8.70616ZM63.6535 17.8771L64.9975 11.2H69.4028L70.745 17.8827C70.8845 18.5763 71.4042 19.1314 72.0871 19.3163C73.6294 19.7321 75.1109 20.347 76.4943 21.1456C77.1108 21.5032 77.877 21.4786 78.4692 21.0822L84.1178 17.304L87.2463 20.4158L83.457 26.0699C83.0606 26.6621 83.0359 27.4284 83.3935 28.0448C84.1921 29.4282 84.8071 30.9097 85.2228 32.452C85.4077 33.1349 85.9628 33.6546 86.6564 33.7942L93.3335 35.1288V39.536L86.6508 40.8782C85.9572 41.0177 85.4021 41.5374 85.2172 42.2203C84.8015 43.7626 84.1865 45.2441 83.3879 46.6275C83.0303 47.2439 83.055 48.0102 83.4514 48.6024L87.2295 54.251L84.1178 57.3795L78.4636 53.5902C77.8714 53.1937 77.1052 53.1691 76.4887 53.5267C75.1053 54.3253 73.6238 54.9403 72.0815 55.356C71.3986 55.5409 70.8789 56.096 70.7394 56.7896L69.4028 63.4667H64.9975L63.6554 56.784C63.5158 56.0904 62.9961 55.5353 62.3132 55.3504C60.7709 54.9347 59.2894 54.3197 57.906 53.5211C57.2896 53.1635 56.5233 53.1881 55.9311 53.5846L50.2826 57.3627L47.154 54.251L50.9434 48.5968C51.3398 48.0046 51.3644 47.2383 51.0068 46.6219C50.2082 45.2385 49.5933 43.757 49.1775 42.2147C48.9926 41.5318 48.4375 41.0121 47.7439 40.8726L41.0668 39.536V35.1307L47.7495 33.7886C48.4431 33.649 48.9982 33.1293 49.1831 32.4464C49.5989 30.9041 50.2138 29.4226 51.0124 28.0392C51.37 27.4228 51.3454 26.6565 50.949 26.0643L47.1708 20.4158L50.2826 17.2872L55.9367 21.0766C56.5289 21.473 57.2952 21.4976 57.9116 21.14C59.295 20.3414 60.7765 19.7265 62.3188 19.3107C62.9988 19.1234 63.5152 18.5687 63.6535 17.8771Z" fill="#6F96B6"/>
<path d="M67.2 50.3999C74.4165 50.3999 80.2666 44.5498 80.2666 37.3333C80.2666 30.1167 74.4165 24.2666 67.2 24.2666C59.9834 24.2666 54.1333 30.1167 54.1333 37.3333C54.1415 44.5464 59.9869 50.3917 67.2 50.3999ZM67.2 27.9999C72.3546 27.9999 76.5333 32.1786 76.5333 37.3333C76.5333 42.4879 72.3546 46.6666 67.2 46.6666C62.0453 46.6666 57.8666 42.4879 57.8666 37.3333C57.8728 32.1812 62.0479 28.0061 67.2 27.9999Z" fill="#6F96B6"/>
<path d="M67.2002 39.1999C68.2311 39.1999 69.0668 38.3642 69.0668 37.3332C69.0668 36.3023 68.2311 35.4666 67.2002 35.4666C66.1692 35.4666 65.3335 36.3023 65.3335 37.3332C65.3335 38.3642 66.1692 39.1999 67.2002 39.1999Z" fill="#6F96B6"/>
<path d="M16.7998 41.0666C17.8307 41.0666 18.6664 40.2308 18.6664 39.1999C18.6664 38.169 17.8307 37.3333 16.7998 37.3333C15.7688 37.3333 14.9331 38.169 14.9331 39.1999C14.9331 40.2308 15.7688 41.0666 16.7998 41.0666Z" fill="#6F96B6"/>
</svg>
