<svg width="111" height="112" viewBox="0 0 111 112" fill="none" xmlns="http://www.w3.org/2000/svg">
<path d="M2.70259 69.5703C3.30626 69.9896 3.94373 70.3581 4.60843 70.6719C5.40161 71.0777 6.73276 71.757 6.8264 72.2326C6.94191 72.8602 6.86644 73.5082 6.60974 74.0925C6.33617 74.68 6.04974 75.185 5.80187 75.6201C5.12987 76.808 4.00436 78.7983 5.70089 80.1846C6.09748 80.5518 6.78233 81.0824 7.40659 81.5616C6.94704 82.3651 6.73917 83.2881 6.80987 84.2111C6.9073 84.938 7.30147 85.592 7.89866 86.0177C8.30627 86.3042 8.74142 86.5539 9.16922 86.7981C10.2562 87.415 10.6803 87.7032 10.8217 88.2798C10.9237 89.0188 10.861 89.7711 10.6381 90.483C10.5297 90.9733 10.4251 91.4653 10.3627 91.9519C10.1803 93.6252 10.3871 95.318 10.9667 96.8983C11.7926 99.8155 14.4313 101.848 17.4627 101.902C17.9687 101.9 18.4732 101.847 18.9683 101.742C24.2135 100.498 29.3822 98.9517 34.4482 97.1094C38.5848 99.5367 41.1975 106.918 41.8787 109.688C42.0821 110.507 42.8176 111.082 43.6615 111.082L89.7468 110.953C90.3308 110.952 90.8795 110.673 91.2246 110.202C91.5696 109.731 91.6699 109.124 91.4947 108.566C91.0408 107.322 90.4147 106.148 89.6348 105.078C89.1945 104.443 88.7976 103.78 88.4469 103.091C87.6152 101.409 86.922 99.661 86.3739 97.8659C85.3249 94.3172 84.5979 90.6811 84.2019 87.0019C84.1505 86.5777 84.1046 85.9718 84.0678 85.331C84.1982 85.331 84.3212 85.3696 84.4534 85.3696C88.0893 85.3727 91.1801 82.715 91.7219 79.1197C92.2637 75.5244 90.0933 72.0739 86.618 71.0054C83.1426 69.9369 79.4086 71.5721 77.837 74.8507C76.2653 78.1294 77.3292 82.0645 80.3388 84.1046C80.3737 85.3072 80.4545 86.6071 80.5555 87.4444C80.9803 91.3458 81.7552 95.2012 82.8707 98.9638C83.4749 100.937 84.2369 102.859 85.1493 104.711C85.5682 105.542 86.0436 106.344 86.5722 107.11L86.6953 107.294L45.0496 107.41C43.8308 103.054 41.6185 99.0408 38.5867 95.6846L40.2391 95.1063C41.4693 94.6766 42.3965 94.3535 42.872 94.2011C50.7377 91.7132 54.6706 88.1311 54.5641 83.5519C54.5403 82.5379 53.6989 81.7352 52.6849 81.759C51.6709 81.7828 50.8681 82.6242 50.892 83.6382C50.936 85.5275 49.3882 88.2834 41.7557 90.6979C41.2581 90.8576 40.2997 91.1918 39.0273 91.6361C37.6631 92.1135 35.928 92.7194 34.0149 93.3693H34.002C28.8349 95.2634 23.5628 96.8573 18.2118 98.1431C16.5033 98.4675 14.8423 97.3886 14.4442 95.6956C14.052 94.6511 13.9044 93.5306 14.0128 92.4201C14.0605 92.0345 14.1486 91.6526 14.2331 91.2689C14.6072 89.9995 14.6621 88.6574 14.3928 87.3617C13.8588 85.6751 12.6177 84.304 10.9924 83.6051L10.6124 83.3885C10.8106 82.9882 11.0474 82.6082 11.3193 82.2538C11.6273 81.8635 11.7638 81.365 11.6977 80.8722C11.6316 80.3795 11.3685 79.9346 10.9686 79.6392C10.5279 79.3161 9.48869 78.5376 8.72856 77.9244C8.81669 77.7646 8.91217 77.5884 9.00397 77.4286C9.29223 76.9237 9.62089 76.3362 9.9422 75.6568C10.5232 74.3698 10.6944 72.9353 10.4324 71.5477C9.99178 69.3077 7.84541 68.2097 6.28109 67.4092C5.75285 67.1582 5.24622 66.864 4.76633 66.5297C4.37593 66.2659 4.00972 65.9679 3.67204 65.6392C3.67204 65.3602 3.97132 64.6845 5.3704 62.9825C8.65892 58.7489 11.4785 54.1712 13.7796 49.3295C14.2098 48.5709 14.4522 47.7204 14.4865 46.8489C14.2968 45.0034 13.3188 43.3299 11.804 42.2588C11.0695 41.5776 10.3627 40.935 10.28 40.3364C10.2922 39.9031 10.3895 39.4763 10.5665 39.0806C10.8657 38.2929 11.2109 37.5217 11.5579 36.7487C12.3108 35.1964 12.9122 33.5749 13.3536 31.907L13.5372 31.1249C13.9248 29.2893 14.4245 27.4792 15.0336 25.7048C16.481 21.71 18.7219 18.0495 21.6214 14.9436C25.1338 11.2274 30.6622 8.59819 38.0799 7.12383C43.7544 5.87816 49.5123 5.0485 55.3077 4.64147C59.8376 4.49936 64.3614 5.07568 68.711 6.34901C64.5957 9.51684 61.5438 13.8638 59.9621 18.8104C59.2282 21.0693 59.6274 23.5434 61.0344 25.4569C62.6647 27.6854 65.4089 28.8085 68.1337 28.3626C70.8586 27.9167 73.1016 25.9773 73.9364 23.3455C75.6236 17.9322 81.1442 14.6837 86.6957 15.8376C92.2472 16.9915 96.0161 22.1708 95.4064 27.808C94.7967 33.4453 90.0075 37.699 84.3377 37.6392C82.4089 37.63 80.5521 38.3714 79.16 39.7066C77.848 40.9955 77.1107 42.7587 77.1147 44.5979V59.672C77.1147 63.7282 80.4028 67.0163 84.4589 67.0163C88.5151 67.0163 91.8032 63.7282 91.8032 59.672V51.2592C101.17 48.504 108.165 40.6771 109.855 31.0608C111.545 21.4446 107.637 11.7017 99.7709 5.91822C91.9046 0.134724 81.4397 -0.689439 72.765 3.79138C67.111 1.75162 61.123 0.796089 55.1149 0.974851C49.1405 1.38923 43.2045 2.241 37.3547 3.52331C29.0758 5.17577 23.0591 8.07859 18.9518 12.419C15.7119 15.8859 13.2068 19.9723 11.5873 24.4324C10.9261 26.3516 10.3828 28.3095 9.96056 30.295L9.77696 31.0698C9.38509 32.5098 8.85952 33.9101 8.20712 35.2524C7.83991 36.0896 7.458 36.9268 7.12935 37.7935C6.70677 38.7581 6.53983 39.8154 6.64463 40.8634C7.01406 42.5088 7.96372 43.9662 9.31978 44.9688C10.2176 45.7914 10.807 46.3716 10.8143 46.8765C10.7486 47.1556 10.6435 47.4239 10.5022 47.6733C8.30347 52.3025 5.61019 56.6801 2.46941 60.7296C1.13827 62.349 -0.257143 64.2383 0.0366271 66.1295C0.426092 67.5884 1.38715 68.8288 2.70259 69.5703ZM84.4589 74.3606C86.487 74.3606 88.1311 76.0046 88.1311 78.0327C88.1311 80.0608 86.487 81.7048 84.4589 81.7048C82.4309 81.7048 80.7868 80.0608 80.7868 78.0327C80.7868 76.0046 82.4309 74.3606 84.4589 74.3606ZM86.9762 4.7296C97.6115 5.94527 105.834 14.6293 106.468 25.3151C107.102 36.0009 99.9637 45.5962 89.5467 48.0607C88.7169 48.256 88.1306 48.9966 88.1311 49.8491V59.672C88.1311 61.7001 86.487 63.3442 84.4589 63.3442C82.4309 63.3442 80.7868 61.7001 80.7868 59.672V44.5979C80.7837 43.7407 81.1266 42.9185 81.7379 42.3175C82.4511 41.6346 83.4116 41.2713 84.3983 41.3114H84.4589C91.8151 41.3901 98.0677 35.9546 99.0134 28.659C99.6029 24.4479 98.3385 20.188 95.5471 16.9803C92.7556 13.7726 88.7111 11.9321 84.4589 11.9343C78.0189 11.9094 72.321 16.1012 70.4277 22.2567C70.0046 23.5623 68.8858 24.5209 67.5307 24.7389C66.1757 24.9569 64.8127 24.3975 64.0015 23.2904C63.29 22.3216 63.0897 21.0691 63.4635 19.9267C66.7034 9.92454 76.5258 3.57593 86.9762 4.7296Z" fill="#6F96B6"/>
<path d="M20.5032 33.587L20.6868 32.7699C21.0086 31.2434 21.4175 29.7366 21.9114 28.2569C23.0172 25.1915 24.7309 22.3812 26.9496 19.9946C29.3292 17.7509 32.2418 16.1514 35.412 15.3475C36.0521 15.1671 36.5446 14.6547 36.6995 14.008C36.8545 13.3613 36.6476 12.6814 36.1588 12.2305C35.6699 11.7797 34.9755 11.6284 34.3434 11.8351C30.56 12.8183 27.094 14.7603 24.2799 17.4736C21.723 20.2223 19.7477 23.4591 18.4725 26.99C17.9216 28.6198 17.4673 30.2806 17.1119 31.9639L16.9283 32.7589C16.6992 33.746 17.313 34.732 18.2999 34.9622C18.4365 34.9942 18.5764 35.0102 18.7167 35.0099C19.5706 35.0087 20.311 34.419 20.5032 33.587Z" fill="#6F96B6"/>
<path d="M16.5245 41.3113C17.5386 41.3113 18.3606 40.4893 18.3606 39.4752C18.3606 38.4612 17.5386 37.6392 16.5245 37.6392C15.5105 37.6392 14.6885 38.4612 14.6885 39.4752C14.6885 40.4893 15.5105 41.3113 16.5245 41.3113Z" fill="#6F96B6"/>
</svg>
