<svg width="112" height="112" viewBox="0 0 112 112" fill="none" xmlns="http://www.w3.org/2000/svg">
<path d="M35.8572 11.0917C32.0107 12.0913 28.4869 14.0657 25.626 16.8242C23.0232 19.6205 21.0124 22.9138 19.7142 26.5066C19.1546 28.1616 18.6934 29.8483 18.3329 31.5578L18.1462 32.3661C17.9869 33.0179 18.1896 33.7051 18.6773 34.166C19.1649 34.6269 19.8624 34.7907 20.5042 34.5948C21.146 34.399 21.6333 33.8738 21.7806 33.2192L21.9673 32.4072C22.2948 30.8476 22.7117 29.3081 23.2161 27.7965C24.3419 24.6808 26.0839 21.824 28.3382 19.3965C30.7577 17.1157 33.7188 15.4896 36.9417 14.6719C37.5924 14.4886 38.0932 13.9676 38.2507 13.3102C38.4082 12.6527 38.1979 11.9614 37.7009 11.5031C37.2039 11.0447 36.4979 10.8909 35.8553 11.101L35.8572 11.0917Z" fill="#6F96B6"/>
<path d="M17.7339 41.0666C18.7648 41.0666 19.6005 40.2309 19.6005 39.1999C19.6005 38.169 18.7648 37.3333 17.7339 37.3333C16.7029 37.3333 15.8672 38.169 15.8672 39.1999C15.8672 40.2309 16.7029 41.0666 17.7339 41.0666Z" fill="#6F96B6"/>
<path d="M105.467 80.2665C108.56 80.2665 111.067 77.7593 111.067 74.6665V37.3332C111.067 34.2404 108.56 31.7332 105.467 31.7332V22.3999C105.485 14.6654 101.503 7.47138 94.9382 3.38084C88.3739 -0.709701 80.1611 -1.11515 73.2258 2.30894C68.005 0.505128 62.4817 -0.259641 56.9672 0.0577438C50.8932 0.479029 44.8582 1.34499 38.9109 2.64868C30.4941 4.32868 24.377 7.27988 20.2013 11.6927C16.9074 15.2173 14.3606 19.3718 12.7141 23.9063C12.0418 25.8575 11.4895 27.8479 11.0602 29.8665L10.8735 30.6543C10.4751 32.1183 9.94082 33.5419 9.27755 34.9065C8.90421 35.7577 8.51595 36.6089 8.18181 37.49C7.75219 38.4708 7.58247 39.5457 7.68901 40.6111C8.06461 42.284 9.03009 43.7656 10.4087 44.7849C11.3215 45.6212 11.9207 46.2111 11.9282 46.7244C11.8614 47.0081 11.7546 47.2809 11.6109 47.5345C9.37551 52.2408 6.63734 56.6914 3.44421 60.8084C2.09088 62.4548 0.672213 64.3756 0.97088 66.2983C1.36684 67.7815 2.34391 69.0426 3.68128 69.7964C4.29501 70.2228 4.9431 70.5974 5.61888 70.9164C6.42528 71.3289 7.77861 72.0196 7.87381 72.5031C7.99125 73.1412 7.91452 73.7999 7.65355 74.394C7.37541 74.9913 7.09355 75.5047 6.83221 75.9471C6.14901 77.1548 5.00475 79.1783 6.72955 80.5876C7.13275 80.9609 7.82901 81.5004 8.46368 81.9876C7.99646 82.8045 7.78513 83.7429 7.85701 84.6812C7.95606 85.4202 8.3568 86.0852 8.96395 86.518C9.37835 86.8092 9.82075 87.0631 10.2557 87.3113C11.3607 87.9385 11.7919 88.2316 11.9357 88.8177C12.0394 89.569 11.9756 90.334 11.749 91.0577C11.6389 91.5561 11.5325 92.0564 11.469 92.5511C11.2837 94.2523 11.4938 95.9733 12.0831 97.5799C12.9228 100.546 15.6055 102.612 18.6874 102.667C19.2019 102.665 19.7148 102.611 20.2181 102.504C25.5507 101.24 30.8055 99.6675 35.956 97.7945C40.1616 100.262 42.8178 107.766 43.5104 110.583C43.7171 111.416 44.4649 112 45.3229 112L92.1762 111.869C92.77 111.868 93.3278 111.584 93.6786 111.105C94.0294 110.626 94.1314 110.009 93.9533 109.443C93.4918 108.178 92.8553 106.984 92.0624 105.896C91.6147 105.251 91.2113 104.576 90.8546 103.876C90.0091 102.165 89.3043 100.389 88.7472 98.5636C87.681 94.9569 86.9419 91.2616 86.5389 87.5223C86.2557 85.1115 86.2632 82.6755 86.5613 80.2665H105.467ZM107.334 37.3332V39.1999H99.8669C98.836 39.1999 98.0002 40.0356 98.0002 41.0665C98.0002 42.0975 98.836 42.9332 99.8669 42.9332H107.334V46.6665H99.8669C98.836 46.6665 98.0002 47.5023 98.0002 48.5332C98.0002 49.5641 98.836 50.3999 99.8669 50.3999H107.334V54.1332H99.8669C98.836 54.1332 98.0002 54.9689 98.0002 55.9999C98.0002 57.0308 98.836 57.8665 99.8669 57.8665H107.334V61.5999H99.8669C98.836 61.5999 98.0002 62.4356 98.0002 63.4665C98.0002 64.4975 98.836 65.3332 99.8669 65.3332H107.334V69.0665H99.8669C98.836 69.0665 98.0002 69.9023 98.0002 70.9332C98.0002 71.9641 98.836 72.7999 99.8669 72.7999H107.334V74.6665C107.334 75.6975 106.498 76.5332 105.467 76.5332H60.6669C59.636 76.5332 58.8002 75.6975 58.8002 74.6665V72.7999H66.2669C67.2978 72.7999 68.1336 71.9641 68.1336 70.9332C68.1336 69.9023 67.2978 69.0665 66.2669 69.0665H58.8002V65.3332H66.2669C67.2978 65.3332 68.1336 64.4975 68.1336 63.4665C68.1336 62.4356 67.2978 61.5999 66.2669 61.5999H58.8002V57.8665H66.2669C67.2978 57.8665 68.1336 57.0308 68.1336 55.9999C68.1336 54.9689 67.2978 54.1332 66.2669 54.1332H58.8002V50.3999H66.2669C67.2978 50.3999 68.1336 49.5641 68.1336 48.5332C68.1336 47.5023 67.2978 46.6665 66.2669 46.6665H58.8002V42.9332H66.2669C67.2978 42.9332 68.1336 42.0975 68.1336 41.0665C68.1336 40.0356 67.2978 39.1999 66.2669 39.1999H58.8002V37.3332C58.8002 36.3023 59.636 35.4665 60.6669 35.4665H105.467C106.498 35.4665 107.334 36.3023 107.334 37.3332ZM94.2669 31.7332H71.8669V22.3999C71.8669 16.2143 76.8813 11.1999 83.0669 11.1999C89.2525 11.1999 94.2669 16.2143 94.2669 22.3999V31.7332ZM101.734 22.3999V31.7332H98.0002V22.3999C98.0002 14.1524 91.3143 7.46654 83.0669 7.46654C74.8194 7.46654 68.1336 14.1524 68.1336 22.3999V31.7332H64.4002V22.3999C64.4002 12.0906 72.7576 3.73321 83.0669 3.73321C93.3762 3.73321 101.734 12.0906 101.734 22.3999ZM82.8373 87.9759C83.2679 91.9397 84.0538 95.8568 85.1856 99.6799C85.7998 101.686 86.5745 103.64 87.5021 105.523C87.928 106.368 88.4113 107.183 88.9488 107.962L89.0738 108.149L46.7341 108.267C45.4949 103.838 43.2458 99.7581 40.1634 96.346L41.8434 95.758C43.0941 95.3212 44.0368 94.9927 44.5202 94.8377C52.517 92.3084 56.5154 88.6665 56.4072 84.0111C56.4034 83.5153 56.1994 83.0421 55.8416 82.699C55.4837 82.3559 55.0024 82.1721 54.5069 82.1892C53.4766 82.2136 52.661 83.0685 52.685 84.0988C52.7298 86.0196 51.1562 88.8215 43.3965 91.2761C42.8906 91.4385 41.9162 91.7783 40.6226 92.23C39.2357 92.7153 37.4717 93.3313 35.5266 93.9921H35.5136C30.2604 95.9177 24.9003 97.5382 19.4602 98.8455C17.7193 99.182 16.0234 98.0835 15.6186 96.3572C15.2198 95.2953 15.0698 94.156 15.1799 93.0271C15.2285 92.6351 15.3181 92.2468 15.4039 91.8567C15.7843 90.5661 15.8401 89.2017 15.5663 87.8844C15.0234 86.1696 13.7617 84.7757 12.1093 84.0652L11.7229 83.8449C11.9244 83.438 12.1651 83.0516 12.4415 82.6913C12.7547 82.2945 12.8935 81.7877 12.8264 81.2867C12.7592 80.7858 12.4917 80.3334 12.085 80.0332C11.637 79.7047 10.5805 78.9132 9.80768 78.2897C9.89728 78.1273 9.99435 77.9481 10.0877 77.7857C10.3807 77.2724 10.7149 76.6751 11.0415 75.9844C11.6322 74.6759 11.8062 73.2175 11.5399 71.8068C11.0919 69.5295 8.90981 68.4132 7.31941 67.5993C6.78238 67.3441 6.2673 67.0451 5.77941 66.7052C5.3825 66.437 5.0102 66.134 4.66688 65.7999C4.66688 65.5161 4.97115 64.8292 6.39355 63.0988C9.73688 58.7947 12.6034 54.1407 14.9429 49.2183C15.3803 48.4471 15.6267 47.5823 15.6615 46.6964C15.4687 44.8201 14.4744 43.1187 12.9343 42.0297C12.1877 41.3372 11.469 40.6839 11.385 40.0753C11.3974 39.6348 11.4963 39.2009 11.6762 38.7985C11.9805 37.9977 12.3314 37.2137 12.6842 36.4279C13.4496 34.8496 14.061 33.2012 14.5098 31.5055L14.6965 30.7103C15.0905 28.8441 15.5986 27.0039 16.2178 25.1999C17.6893 21.1385 19.9676 17.4169 22.9154 14.2593C26.4863 10.4812 32.1069 7.80814 39.6482 6.30921C45.4155 5.04315 51.2675 4.19967 57.1576 3.78548C61.1625 3.56097 65.1782 3.95128 69.065 4.94281C63.759 9.1839 60.669 15.6072 60.6669 22.3999V31.7332C57.5741 31.7332 55.0669 34.2404 55.0669 37.3332V74.6665C55.0669 77.7593 57.5741 80.2665 60.6669 80.2665H82.7925C82.5163 82.8298 82.5313 85.416 82.8373 87.9759Z" fill="#6F96B6"/>
<path d="M92.4001 50.3999C92.4012 46.0802 89.438 42.3242 85.2366 41.3199C81.0353 40.3156 76.6938 42.3256 74.7412 46.1788C72.7887 50.0321 73.7355 54.7217 77.0299 57.5157L75.8763 66.7351C75.743 67.7981 76.0727 68.8672 76.7816 69.6704C77.4905 70.4736 78.5103 70.9336 79.5817 70.9333H86.5518C87.6228 70.9335 88.6422 70.4738 89.3511 69.671C90.06 68.8682 90.3899 67.7997 90.2571 66.737L89.1035 57.5175C91.2 55.7486 92.4068 53.143 92.4001 50.3999ZM86.1057 55.1039C85.5034 55.4927 85.1769 56.192 85.2657 56.9034L86.5518 67.1999H79.5817L80.8678 56.9034C80.9566 56.192 80.6301 55.4927 80.0278 55.1039C78.0439 53.8247 77.0752 51.4387 77.6059 49.1385C78.1366 46.8383 80.0528 45.118 82.3966 44.8372C82.6191 44.812 82.8428 44.7996 83.0667 44.7999C84.4442 44.7926 85.7751 45.2983 86.8001 46.2186C88.1057 47.3818 88.793 49.0881 88.6582 50.8315C88.5234 52.5748 87.582 54.1552 86.1131 55.1039H86.1057Z" fill="#6F96B6"/>
</svg>
