<svg width="112" height="112" viewBox="0 0 112 112" fill="none" xmlns="http://www.w3.org/2000/svg">
<path d="M2.74585 69.7966C3.36047 70.2225 4.00916 70.5972 4.68531 70.9166C5.49171 71.3291 6.84505 72.0198 6.93838 72.5032C7.05734 73.1412 6.98122 73.8002 6.71998 74.3942C6.44185 74.9915 6.14878 75.5048 5.89865 75.9491C5.21358 77.155 4.07118 79.1766 5.79598 80.5878C6.19918 80.9611 6.89545 81.5006 7.53198 81.9878C7.06422 82.8046 6.85224 83.7429 6.92345 84.6814C7.02293 85.4202 7.42357 86.0851 8.03038 86.5182C8.44478 86.8094 8.88718 87.0632 9.32398 87.3115C10.4272 87.9406 10.8584 88.2318 11.004 88.8179C11.108 89.5692 11.0443 90.3342 10.8173 91.0579C10.709 91.5582 10.6008 92.0584 10.5392 92.5512C10.3536 94.2523 10.5632 95.9732 11.1514 97.58C11.9904 100.546 14.6724 102.612 17.7538 102.667C18.2683 102.665 18.7812 102.611 19.2845 102.504C24.6171 101.24 29.8719 99.6675 35.0224 97.7947C39.228 100.262 41.8842 107.766 42.5768 110.583C42.7836 111.416 43.5313 112 44.3893 112L91.2426 111.869C91.8364 111.868 92.3942 111.585 92.745 111.106C93.0959 110.627 93.1978 110.009 93.0197 109.443C92.5569 108.178 91.9198 106.984 91.1269 105.896C90.6798 105.252 90.2763 104.58 89.9192 103.882C89.0762 102.169 88.3715 100.392 87.8117 98.5675C86.7462 94.9602 86.0078 91.2642 85.6053 87.5243C84.9456 81.9536 85.7833 76.3078 88.032 71.1686C88.228 70.7411 91.153 64.8555 91.4181 64.3758C91.7452 63.7946 91.7374 63.083 91.3976 62.5091C91.0579 61.9352 90.4377 61.5862 89.7708 61.5935C89.104 61.6008 88.4916 61.9634 88.1645 62.5446C87.8546 63.0952 84.7915 69.2814 84.6178 69.6379C82.0908 75.3958 81.1461 81.7237 81.8813 87.9686C82.3176 91.9358 83.1111 95.8555 84.252 99.6801C84.866 101.687 85.6407 103.642 86.5685 105.525C86.994 106.366 87.4774 107.177 88.0152 107.951L88.1402 108.138L45.8005 108.267C44.5606 103.839 42.3116 99.7587 39.2299 96.3462L40.9098 95.7563C42.1586 95.3214 43.0994 94.9928 43.581 94.8379C51.5797 92.3086 55.5781 88.6667 55.4698 84.0112C55.4719 83.5143 55.2702 83.0383 54.9118 82.6941C54.5535 82.3498 54.0697 82.1674 53.5733 82.1894C52.543 82.2138 51.7275 83.0687 51.7514 84.099C51.7962 86.0198 50.2226 88.8216 42.461 91.2763C41.9552 91.4387 40.9826 91.7785 39.6928 92.2283C38.304 92.7136 36.54 93.3315 34.5912 93.9923H34.58C29.3266 95.9174 23.9666 97.5379 18.5266 98.8456C16.7871 99.1751 15.0957 98.0795 14.685 96.3574C14.2875 95.2945 14.1375 94.1549 14.2464 93.0254C14.2968 92.6352 14.3845 92.2451 14.4704 91.855C14.85 90.5649 14.9052 89.2011 14.6309 87.8846C14.0892 86.1708 12.8287 84.7774 11.1776 84.0672C11.0469 83.9944 10.9181 83.9198 10.7893 83.8451C10.9915 83.4381 11.2329 83.0518 11.5098 82.6915C11.8228 82.2945 11.9613 81.7875 11.8938 81.2865C11.8262 80.7855 11.5584 80.3333 11.1514 80.0334C10.7034 79.7048 9.64691 78.9134 8.87225 78.2899C8.96185 78.1275 9.05891 77.9483 9.15411 77.7878C9.44718 77.2726 9.78318 76.6678 10.108 75.9846C10.6996 74.6764 10.8737 73.2176 10.6064 71.807C10.1584 69.5296 7.97625 68.4134 6.38398 67.5995C5.84754 67.3443 5.33308 67.0452 4.84585 66.7054C4.44582 66.4375 4.07095 66.1339 3.72585 65.7982C3.72585 65.5163 4.02825 64.8312 5.45065 63.099C8.79406 58.7956 11.6606 54.1422 14 49.2203C14.4391 48.449 14.6862 47.5834 14.7205 46.6966C14.5299 44.8196 13.5351 43.1173 11.9933 42.0299C11.2466 41.3374 10.5261 40.684 10.444 40.0792C10.4587 39.638 10.5569 39.2035 10.7333 38.7987C11.0376 37.9998 11.3904 37.2158 11.7413 36.4318C12.5077 34.8524 13.1197 33.2027 13.5688 31.5056L13.7554 30.7104C14.1519 28.8441 14.6625 27.0039 15.2842 25.2C16.7562 21.1404 19.0337 17.4203 21.98 14.2632C23.9825 12.2211 26.3448 10.5663 28.9482 9.38191C29.5511 9.09648 29.9559 8.5111 30.0102 7.84628C30.0644 7.18146 29.7599 6.5382 29.2112 6.15881C28.6626 5.77942 27.9533 5.72154 27.3504 6.00697C24.3292 7.38939 21.5896 9.31833 19.2696 11.6966C15.9749 15.2209 13.4275 19.3755 11.7805 23.9102C11.1076 25.8599 10.5552 27.8491 10.1266 29.8667L9.93998 30.6544C9.54217 32.1207 9.00589 33.5457 8.33838 34.9104C7.96505 35.7598 7.58051 36.6091 7.24265 37.4939C6.8175 38.4746 6.64919 39.5475 6.75358 40.6112C7.12903 42.2847 8.09533 43.7666 9.47518 44.7851C10.3861 45.6214 10.9853 46.2112 10.9928 46.7246C10.9253 47.0081 10.8185 47.2808 10.6754 47.5347C8.43954 52.2443 5.69943 56.6974 2.50318 60.816C1.15358 62.4587 -0.261354 64.3776 0.0354464 66.2984C0.432943 67.7809 1.40961 69.0414 2.74585 69.7966Z" fill="#6F96B6"/>
<path d="M20.8411 33.2118L21.0277 32.3998C21.3585 30.8395 21.7785 29.2994 22.2859 27.7873C23.4073 24.6662 25.1555 21.8076 27.4229 19.3873C27.9294 18.8478 28.4878 18.3595 29.0899 17.9294C29.9275 17.3284 30.1193 16.1621 29.5183 15.3245C28.9172 14.4869 27.751 14.295 26.9133 14.8961C26.1162 15.4661 25.3766 16.1126 24.7051 16.8262C22.0911 19.616 20.0744 22.9101 18.7784 26.5068C18.2162 28.1636 17.7518 29.8522 17.3877 31.5636L17.2011 32.3849C17.0458 33.0378 17.2531 33.7238 17.7438 34.1816C18.2346 34.6394 18.9333 34.7985 19.5739 34.5983C20.2145 34.3981 20.6983 33.8695 20.8411 33.2137V33.2118Z" fill="#6F96B6"/>
<path d="M16.7998 41.0666C17.8307 41.0666 18.6664 40.2309 18.6664 39.1999C18.6664 38.169 17.8307 37.3333 16.7998 37.3333C15.7688 37.3333 14.9331 38.169 14.9331 39.1999C14.9331 40.2309 15.7688 41.0666 16.7998 41.0666Z" fill="#6F96B6"/>
<path d="M112 54.2453V9.22133C112.003 7.22733 110.391 5.6072 108.397 5.6H104.533V3.6064C104.553 1.63779 102.976 0.0246002 101.007 0H79.438C76.8187 0.0225597 74.3616 1.27187 72.8001 3.37493C72.5703 3.06444 72.3209 2.76891 72.0534 2.49013C71.9434 2.37013 71.8178 2.2653 71.6801 2.1784C70.1741 0.793892 68.2079 0.0176303 66.1622 0H44.5929C42.6244 0.0246002 41.0471 1.63779 41.0668 3.6064V5.6H37.2028C35.2088 5.6072 33.597 7.22733 33.6001 9.22133V54.2453C33.597 56.2393 35.2088 57.8595 37.2028 57.8667L63.4854 57.736V59.8453C63.4823 61.8394 65.0941 63.4595 67.0881 63.4667H78.5308C80.5248 63.4595 82.1365 61.8394 82.1334 59.8453L82.0028 57.8667H108.397C110.391 57.8595 112.003 56.2393 112 54.2453ZM79.438 3.73333H100.8V37.3333H79.438C77.7148 37.3393 76.0402 37.9053 74.6668 38.9461V8.82374C74.584 6.10254 76.7171 3.82666 79.438 3.73333ZM44.8001 41.0667H66.1622C69.0155 41.3162 71.1402 43.81 70.9334 46.6667H44.8001V41.0667ZM100.8 41.0667L100.787 46.6667H74.6668C74.46 43.81 76.5847 41.3162 79.438 41.0667H100.8ZM44.8001 3.73333H66.1622C68.8831 3.82666 71.0163 6.10254 70.9334 8.82374V38.9461C69.56 37.9053 67.8855 37.3393 66.1622 37.3333H44.8001V3.73333ZM79.451 55.1843C78.7782 55.8631 78.4005 56.7802 78.4001 57.736L78.5308 59.7333L67.2188 59.8453V57.736C67.2167 55.7472 65.605 54.1354 63.6161 54.1333L37.3334 54.2453L37.2028 9.33333H41.0668V46.6667C41.0134 48.6698 42.5899 50.339 44.5929 50.4H70.9334C70.9334 50.4299 70.9484 50.4541 70.9502 50.484C70.9521 50.5139 70.9334 50.54 70.9334 50.5699V54.0493C70.9334 55.0803 71.7692 55.916 72.8001 55.916C73.831 55.916 74.6668 55.0803 74.6668 54.0493V50.5699C74.6668 50.54 74.6518 50.5139 74.65 50.484C74.6481 50.4541 74.6668 50.4299 74.6668 50.4H101.007C103.01 50.339 104.587 48.6698 104.533 46.6667V9.296L108.267 9.22133L108.397 54.1333H82.0028C81.0469 54.1337 80.1299 54.5114 79.451 55.1843Z" fill="#6F96B6"/>
<path d="M50.3999 13.0666H65.3332C66.3641 13.0666 67.1999 12.2309 67.1999 11.1999C67.1999 10.169 66.3641 9.33325 65.3332 9.33325H50.3999C49.3689 9.33325 48.5332 10.169 48.5332 11.1999C48.5332 12.2309 49.3689 13.0666 50.3999 13.0666Z" fill="#6F96B6"/>
<path d="M50.3999 22.4001H65.3332C66.3641 22.4001 67.1999 21.5643 67.1999 20.5334C67.1999 19.5025 66.3641 18.6667 65.3332 18.6667H50.3999C49.3689 18.6667 48.5332 19.5025 48.5332 20.5334C48.5332 21.5643 49.3689 22.4001 50.3999 22.4001Z" fill="#6F96B6"/>
<path d="M50.3999 31.7333H65.3332C66.3641 31.7333 67.1999 30.8976 67.1999 29.8667C67.1999 28.8357 66.3641 28 65.3332 28H50.3999C49.3689 28 48.5332 28.8357 48.5332 29.8667C48.5332 30.8976 49.3689 31.7333 50.3999 31.7333Z" fill="#6F96B6"/>
<path d="M80.2666 13.0666H95.1999C96.2308 13.0666 97.0666 12.2309 97.0666 11.1999C97.0666 10.169 96.2308 9.33325 95.1999 9.33325H80.2666C79.2356 9.33325 78.3999 10.169 78.3999 11.1999C78.3999 12.2309 79.2356 13.0666 80.2666 13.0666Z" fill="#6F96B6"/>
<path d="M80.2666 22.4001H95.1999C96.2308 22.4001 97.0666 21.5643 97.0666 20.5334C97.0666 19.5025 96.2308 18.6667 95.1999 18.6667H80.2666C79.2356 18.6667 78.3999 19.5025 78.3999 20.5334C78.3999 21.5643 79.2356 22.4001 80.2666 22.4001Z" fill="#6F96B6"/>
<path d="M80.2666 31.7333H95.1999C96.2308 31.7333 97.0666 30.8976 97.0666 29.8667C97.0666 28.8357 96.2308 28 95.1999 28H80.2666C79.2356 28 78.3999 28.8357 78.3999 29.8667C78.3999 30.8976 79.2356 31.7333 80.2666 31.7333Z" fill="#6F96B6"/>
</svg>
